<?xml version="1.0" encoding="UTF-8"?>
<svg version="1.1" xmlns="http://www.w3.org/2000/svg" width="1280" height="1280">
    <path d="M0 0 C4.0157965 0.38613428 5.25469388 1.69160714 8.25 4.3125 C10.24145391 5.32941264 12.24187074 6.32892648 14.25 7.3125 C16.2565438 8.63596506 18.25628175 9.96979179 20.25 11.3125 C23.83756993 13.46191554 27.47835836 15.50211201 31.25 17.3125 C31.25 17.9725 31.25 18.6325 31.25 19.3125 C33.90228812 20.38775194 36.53368454 21.40706151 39.25 22.3125 C39.25 22.9725 39.25 23.6325 39.25 24.3125 C39.8275 24.43625 40.405 24.56 41 24.6875 C43.27335767 25.31898824 45.1753529 26.20108191 47.25 27.3125 C47.25 27.9725 47.25 28.6325 47.25 29.3125 C48.09884766 29.4671875 48.09884766 29.4671875 48.96484375 29.625 C51.66453905 30.43721602 53.51074692 31.69231509 55.8125 33.3125 C58.37875248 35.11277155 60.25530589 36.31426863 63.25 37.3125 C63.25 37.9725 63.25 38.6325 63.25 39.3125 C63.96414063 39.57289062 64.67828125 39.83328125 65.4140625 40.1015625 C68.39525736 41.37452449 70.91653158 42.91031012 73.625 44.6875 C74.58535156 45.30625 75.54570313 45.925 76.53515625 46.5625 C77.43105469 47.14 78.32695313 47.7175 79.25 48.3125 C83.41879687 50.97040464 87.16896052 53.3125 92.25 53.3125 C94.94433317 51.44052546 94.94433317 51.44052546 97.25 49.3125 C98.24 49.3125 99.23 49.3125 100.25 49.3125 C100.25 48.6525 100.25 47.9925 100.25 47.3125 C103.20481492 44.56874329 104.02471908 44.3125 108.25 44.3125 C108.45625 43.714375 108.6625 43.11625 108.875 42.5 C110.77919641 39.47059662 113.01615434 38.73539209 116.25 37.3125 C116.95125 36.961875 117.6525 36.61125 118.375 36.25 C119.71689957 35.57905022 121.07302515 34.93625993 122.4375 34.3125 C124.42201523 33.44105431 124.42201523 33.44105431 125.25 31.3125 C126.24 31.3125 127.23 31.3125 128.25 31.3125 C128.25 30.6525 128.25 29.9925 128.25 29.3125 C128.8275 29.23 129.405 29.1475 130 29.0625 C132.87756891 28.10331036 134.1552625 26.47269805 136.25 24.3125 C138.57833011 22.9719463 140.68748194 22.16667269 143.25 21.3125 C143.25 20.6525 143.25 19.9925 143.25 19.3125 C144.9 19.3125 146.55 19.3125 148.25 19.3125 C148.476875 18.673125 148.70375 18.03375 148.9375 17.375 C150.25 15.3125 150.25 15.3125 152.875 14.5625 C153.65875 14.48 154.4425 14.3975 155.25 14.3125 C155.25 13.6525 155.25 12.9925 155.25 12.3125 C158.20481492 9.56874329 159.02471908 9.3125 163.25 9.3125 C163.58 8.3225 163.91 7.3325 164.25 6.3125 C166.56808364 5.27764123 168.90175298 4.2769586 171.25 3.3125 C171.58 2.6525 171.91 1.9925 172.25 1.3125 C176.06984796 0.53438282 178.51840331 0.06863444 182.25 1.3125 C183.25 2.97916667 184.25 4.64583333 185.25 6.3125 C186.28826974 7.39868988 187.35232106 8.46067369 188.4375 9.5 C191.25 12.3125 191.25 12.3125 191.25 14.3125 C192.24 14.6425 193.23 14.9725 194.25 15.3125 C195.6796875 16.984375 195.6796875 16.984375 197.125 19.0625 C199.00493403 21.68315616 200.76267515 23.82517515 203.0625 26.125 C205.25 28.3125 205.25 28.3125 206.25 31.3125 C207.24 31.6425 208.23 31.9725 209.25 32.3125 C209.25 32.9725 209.25 33.6325 209.25 34.3125 C209.91 34.3125 210.57 34.3125 211.25 34.3125 C212.27319336 35.79443359 212.27319336 35.79443359 213.40234375 37.8359375 C216.25445286 42.58631506 219.81111899 46.1446472 223.8125 49.9375 C228.24722629 54.16848031 231.90629979 58.13653762 235.25 63.3125 C236.79195975 64.93615298 238.37474662 66.52222719 240 68.0625 C241.45368431 69.44115544 242.88091317 70.84980039 244.25 72.3125 C244.25 72.9725 244.25 73.6325 244.25 74.3125 C244.91 74.3125 245.57 74.3125 246.25 74.3125 C246.25 74.9725 246.25 75.6325 246.25 76.3125 C255.86099517 75.43380255 255.86099517 75.43380255 265.25 73.3125 C265.58 72.6525 265.91 71.9925 266.25 71.3125 C268.57741989 70.94011282 270.91235715 70.61413134 273.25 70.3125 C276.38327056 69.48484363 279.47116155 68.55720262 282.5625 67.5859375 C287.78580282 65.96997819 292.91766421 64.72419307 298.31640625 63.83984375 C298.95449219 63.66582031 299.59257813 63.49179688 300.25 63.3125 C300.58 62.6525 300.91 61.9925 301.25 61.3125 C303.19082467 61.04480005 305.133427 60.78551382 307.08203125 60.58203125 C312.14722946 59.95230391 316.81817534 58.1049485 321.5625 56.3125 C326.00617355 54.66059941 330.30439384 53.63275226 334.96484375 52.8203125 C337.1965683 52.32437371 339.00752068 51.61032486 341.0625 50.625 C344.25 49.3125 344.25 49.3125 346.875 49.1875 C353.56719561 52.35748739 355.45126433 60.21239027 357.80859375 66.65625 C359.38044989 70.64339728 361.18823232 74.43080096 363.125 78.25 C363.63329346 79.25426025 363.63329346 79.25426025 364.15185547 80.27880859 C365.84117905 83.59589498 367.55637776 86.89865008 369.28515625 90.1953125 C369.60564941 90.81543213 369.92614258 91.43555176 370.25634766 92.07446289 C371.1299209 93.76366129 372.01571108 95.44652581 372.90234375 97.12890625 C374.35413551 100.55850127 374.88210447 103.61957396 375.25 107.3125 C375.91 107.3125 376.57 107.3125 377.25 107.3125 C379.25 112.3125 379.25 112.3125 380.125 114.625 C381.65462533 118.27910495 383.45987543 121.78152034 385.25 125.3125 C386.45941869 127.72863174 387.66779056 130.14526565 388.875 132.5625 C389.47129037 133.75524023 390.06764186 134.9479499 390.6640625 136.140625 C391.859375 138.53125 393.0546875 140.921875 394.25 143.3125 C403.11947529 143.44551059 411.9889834 143.57601574 420.85853767 143.70365143 C424.98074221 143.76304297 429.10293263 143.82317625 433.22509766 143.88525391 C437.21345365 143.94524491 441.20183219 144.00339097 445.19023895 144.05990601 C446.77702151 144.08246962 448.36379835 144.10543922 449.95056915 144.1288147 C458.37015675 144.25124128 466.78560189 144.33125569 475.20605469 144.2734375 C476.2620263 144.26742146 476.2620263 144.26742146 477.33933067 144.26128387 C480.64222425 144.24164276 483.94395533 144.21113506 487.24661255 144.16223145 C488.3948349 144.15316772 489.54305725 144.144104 490.72607422 144.13476562 C491.72613495 144.12110962 492.72619568 144.10745361 493.75656128 144.09338379 C496.25 144.3125 496.25 144.3125 499.25 146.3125 C499.69140625 149.02734375 499.69140625 149.02734375 499.8125 152.25 C499.97027018 157.08819486 499.97027018 157.08819486 502.25 161.3125 C502.62890625 164.1953125 502.62890625 164.1953125 502.8125 167.4375 C502.71334775 171.19164167 502.71334775 171.19164167 504.25 174.3125 C504.48749104 177.89371414 504.64624842 181.46806299 504.76757812 185.0546875 C504.94323833 188.92584063 505.05797688 191.02446532 507.25 194.3125 C507.62890625 197.1953125 507.62890625 197.1953125 507.8125 200.4375 C507.71334775 204.19164167 507.71334775 204.19164167 509.25 207.3125 C509.48755563 210.64959105 509.64574879 213.97938742 509.76757812 217.32226562 C509.95576183 221.2031107 510.41102083 223.92188215 512.25 227.3125 C512.62890625 230.07421875 512.62890625 230.07421875 512.8125 233 C512.75754728 236.46845857 512.75754728 236.46845857 514.25 239.3125 C514.48287008 240.99433948 514.66264166 242.6837416 514.8125 244.375 C514.89628906 245.29410156 514.98007813 246.21320313 515.06640625 247.16015625 C515.12699219 247.87042969 515.18757813 248.58070313 515.25 249.3125 C525.08399717 252.55909712 525.08399717 252.55909712 535.25 254.3125 C535.25 254.9725 535.25 255.6325 535.25 256.3125 C536.384375 256.415625 537.51875 256.51875 538.6875 256.625 C541.71463949 257.00343361 544.41184776 257.61850916 547.28515625 258.63671875 C552.88496857 260.5571321 558.56079125 262.17988245 564.25 263.8125 C570.62522273 265.64198121 576.96303251 267.51385194 583.24365234 269.64697266 C586.15655009 270.61321253 589.10487262 271.43253004 592.0625 272.25 C596.68790588 273.56295378 601.29528316 274.90993796 605.875 276.375 C606.81601563 276.67535156 607.75703125 276.97570312 608.7265625 277.28515625 C611.43440843 278.3875765 613.25676598 279.15434118 615.25 281.3125 C615.45703125 284.37890625 615.45703125 284.37890625 615.0625 287.875 C614.94519531 289.03128906 614.82789063 290.18757813 614.70703125 291.37890625 C614.25 294.3125 614.25 294.3125 613.25 296.3125 C613.06804119 298.75305862 612.92199584 301.18114598 612.8125 303.625 C612.4853195 310.73247419 612.4853195 310.73247419 611.25 313.77734375 C609.85742431 317.30774073 609.82563631 320.81597379 609.6875 324.5625 C609.37190083 332.19059917 609.37190083 332.19059917 608.25 333.3125 C608.0636108 335.71189114 607.91956017 338.09684082 607.8125 340.5 C607.57945914 345.55252415 606.83939583 349.5443125 605.25 354.3125 C604.92419288 357.60751842 604.74300513 360.879087 604.59570312 364.18554688 C604.33956473 369.22293527 604.33956473 369.22293527 603.25 370.3125 C603.01472227 372.66237262 602.83613583 375.01806039 602.6875 377.375 C602.56181641 379.31052734 602.56181641 379.31052734 602.43359375 381.28515625 C602.34271484 382.78369141 602.34271484 382.78369141 602.25 384.3125 C602.91 384.3125 603.57 384.3125 604.25 384.3125 C605.3328125 385.42431641 605.3328125 385.42431641 606.4375 386.55859375 C609.44217203 389.50066845 612.57771939 391.41723502 616.25 393.375 C620.56897992 395.70521887 624.44859923 398.19155651 628.25 401.3125 C630.22711651 402.35701438 632.22250996 403.36948138 634.25 404.3125 C634.25 404.9725 634.25 405.6325 634.25 406.3125 C635.2709375 406.68375 635.2709375 406.68375 636.3125 407.0625 C639.81865083 408.55447908 642.96620368 410.38085511 646.25 412.3125 C646.25 412.9725 646.25 413.6325 646.25 414.3125 C647.2709375 414.6528125 647.2709375 414.6528125 648.3125 415 C651.3788297 416.3700622 653.750143 418.03938779 656.43359375 420.02734375 C658.66734465 421.60778256 661.04088885 422.89270032 663.43359375 424.21484375 C665.48649821 425.45541612 667.34865872 426.8507752 669.25 428.3125 C673.9452499 431.91583132 678.9105215 434.74955032 684.25 437.3125 C684.25 437.9725 684.25 438.6325 684.25 439.3125 C685.9 439.9725 687.55 440.6325 689.25 441.3125 C688.58333333 443.97916667 687.91666667 446.64583333 687.25 449.3125 C686.59 449.3125 685.93 449.3125 685.25 449.3125 C685.1675 450.488125 685.085 451.66375 685 452.875 C684.53693379 456.63906677 683.35155276 459.26926151 681.3046875 462.50390625 C679.49746149 465.60296419 678.43522714 468.93460266 677.25 472.3125 C676.59 472.3125 675.93 472.3125 675.25 472.3125 C675.146875 473.364375 675.04375 474.41625 674.9375 475.5 C674.24089976 479.36296497 673.29875904 481.04966153 671.25 484.3125 C669.83361033 487.61401262 668.53343351 490.95733117 667.25 494.3125 C666.59 494.3125 665.93 494.3125 665.25 494.3125 C665.20875 495.405625 665.1675 496.49875 665.125 497.625 C664.5314289 502.67035432 662.18779267 506.48448349 659.625 510.796875 C658.40449157 513.02985064 657.71396976 514.83026179 657.25 517.3125 C656.59 517.3125 655.93 517.3125 655.25 517.3125 C655.1675 518.3025 655.085 519.2925 655 520.3125 C654.46954939 524.11790653 653.0244417 527.02178728 651.25 530.39453125 C649.88169676 533.0188941 648.84462328 535.40545287 648.25 538.3125 C649.53350327 540.58007564 649.53350327 540.58007564 651.25 542.3125 C651.25 542.9725 651.25 543.6325 651.25 544.3125 C652.24 544.6425 653.23 544.9725 654.25 545.3125 C655.5940093 547.30534138 656.92541292 549.30669671 658.25 551.3125 C659.30964787 552.41901191 660.39348809 553.50285213 661.5 554.5625 C662.4075 555.47 663.315 556.3775 664.25 557.3125 C664.25 557.9725 664.25 558.6325 664.25 559.3125 C664.91 559.3125 665.57 559.3125 666.25 559.3125 C670.25 563.66544118 670.25 563.66544118 670.25 567.3125 C671.24 567.6425 672.23 567.9725 673.25 568.3125 C675.0390625 570.0546875 675.0390625 570.0546875 676.875 572.1875 C677.48601562 572.88617187 678.09703125 573.58484375 678.7265625 574.3046875 C680.25 576.3125 680.25 576.3125 681.25 579.3125 C681.91 579.3125 682.57 579.3125 683.25 579.3125 C684.58203125 580.921875 684.58203125 580.921875 686.0625 583.0625 C688.48061606 586.4312268 690.99915764 588.73094872 694.25 591.3125 C694.25 592.3025 694.25 593.2925 694.25 594.3125 C694.91 594.3125 695.57 594.3125 696.25 594.3125 C697.0853125 595.8903125 697.0853125 595.8903125 697.9375 597.5 C699.94689769 601.01293303 702.31015472 603.50939171 705.25 606.3125 C708.47112177 609.8473674 711.59470679 613.32956019 714.25 617.3125 C713.89434608 620.43227119 712.62633878 622.54357849 710.8125 625.0625 C710.16474609 625.98289062 710.16474609 625.98289062 709.50390625 626.921875 C709.09011719 627.38078125 708.67632813 627.8396875 708.25 628.3125 C707.59 628.3125 706.93 628.3125 706.25 628.3125 C705.98574219 628.89515625 705.72148438 629.4778125 705.44921875 630.078125 C704.20217503 632.40160711 702.82686849 634.10837105 701.0625 636.0625 C700.12857422 637.10664062 700.12857422 637.10664062 699.17578125 638.171875 C698.22251953 639.23148438 698.22251953 639.23148438 697.25 640.3125 C696.08114283 641.64391346 694.91443196 642.9772146 693.75 644.3125 C691.95427178 646.37170979 690.15158942 648.42188945 688.32421875 650.453125 C687.39029297 651.49726562 687.39029297 651.49726562 686.4375 652.5625 C685.87417969 653.18640625 685.31085938 653.8103125 684.73046875 654.453125 C683.24214246 656.32236858 682.23437509 658.14207298 681.25 660.3125 C680.59 660.3125 679.93 660.3125 679.25 660.3125 C679.04375 660.869375 678.8375 661.42625 678.625 662 C677.0595568 664.63279084 675.09985753 666.06954947 672.71484375 667.94140625 C670.47925528 670.03391706 669.41757903 672.52328342 668.25 675.3125 C667.59 675.3125 666.93 675.3125 666.25 675.3125 C666.00121094 675.89128906 665.75242187 676.47007812 665.49609375 677.06640625 C664.07550814 679.62702295 662.44212014 681.2472846 660.3125 683.25 C657.39402473 686.08931229 655.12730387 688.66218692 653.25 692.3125 C652.59 693.3025 651.93 694.2925 651.25 695.3125 C650.59 695.3125 649.93 695.3125 649.25 695.3125 C648.16298847 698.48991832 647.97442397 700.62135532 649.2265625 703.76171875 C650.10018071 705.47063859 650.99911446 707.16691104 651.92578125 708.84765625 C654.1132664 712.9193469 655.25 715.63002796 655.25 720.3125 C655.91 720.3125 656.57 720.3125 657.25 720.3125 C658.59538144 723.03629681 659.92641535 725.76563508 661.25 728.5 C661.82234375 729.65338867 661.82234375 729.65338867 662.40625 730.83007812 C665.81355932 737.91849841 665.81355932 737.91849841 665.25 742.3125 C665.91 742.3125 666.57 742.3125 667.25 742.3125 C667.49234375 742.9415625 667.7346875 743.570625 667.984375 744.21875 C669.64886518 748.46960184 671.34392197 752.59775426 673.5 756.625 C675.06910352 759.64675013 675.68301986 761.84834114 675.25 765.3125 C675.91 765.3125 676.57 765.3125 677.25 765.3125 C678.59538144 768.03629681 679.92641535 770.76563508 681.25 773.5 C681.82234375 774.65338867 681.82234375 774.65338867 682.40625 775.83007812 C685.81355932 782.91849841 685.81355932 782.91849841 685.25 787.3125 C685.91 787.3125 686.57 787.3125 687.25 787.3125 C687.91 789.6225 688.57 791.9325 689.25 794.3125 C686.48352293 797.28390129 683.75322987 799.28431429 680.25 801.3125 C679.59 801.9725 678.93 802.6325 678.25 803.3125 C677.445625 803.621875 676.64125 803.93125 675.8125 804.25 C673.19125436 805.33685795 672.17426064 806.30806183 670.25 808.3125 C668.59051852 809.32437895 666.92419438 810.3251546 665.25 811.3125 C664.59 811.9725 663.93 812.6325 663.25 813.3125 C662.445625 813.621875 661.64125 813.93125 660.8125 814.25 C658.19125436 815.33685795 657.17426064 816.30806183 655.25 818.3125 C653.60443434 819.34685556 651.9329392 820.34013513 650.25 821.3125 C645.8143463 823.98577344 641.52729261 826.80193385 637.3125 829.8125 C634.20319117 832.01512488 631.10766189 834.01227211 627.75 835.8125 C623.4417743 838.12292901 619.51426513 840.83513102 615.54296875 843.6796875 C613.67972736 845.00649312 611.80084368 846.26784812 609.875 847.5 C607.23038767 849.32604185 605.26694927 850.80723669 603.25 853.3125 C602.73002008 856.55070004 602.73002008 856.55070004 602.9375 860 C602.96199219 861.15886719 602.98648437 862.31773437 603.01171875 863.51171875 C602.93871296 866.21608622 602.93871296 866.21608622 604.25 867.3125 C604.48788858 870.6202841 604.64540297 873.92074645 604.76757812 877.234375 C604.97034683 881.39687217 605.69980743 884.49151753 607.25 888.3125 C607.58282486 891.56183138 607.75815805 894.78713401 607.90429688 898.04882812 C608.03745385 901.80524 608.03745385 901.80524 609.25 905.3125 C609.48215595 908.66586366 609.64440527 912.01238023 609.76757812 915.37109375 C609.92807315 919.47487648 609.92807315 919.47487648 611.25 923.30859375 C612.8530416 926.52093883 612.68399341 929.97390464 612.8125 933.5 C612.5822347 938.28930804 612.5822347 938.28930804 614.25 942.3125 C614.53859409 944.61833761 614.75639292 946.93324066 614.9375 949.25 C615.09798828 951.15072266 615.09798828 951.15072266 615.26171875 953.08984375 C615.25 956.3125 615.25 956.3125 613.25 958.3125 C610.94640663 958.6907019 608.67238974 958.81753963 606.34375 958.96875 C604.03487741 959.13881807 604.03487741 959.13881807 602.25 961.3125 C600.08487224 962.04858593 597.89182094 962.70375549 595.6875 963.3125 C594.42421875 963.66183594 593.1609375 964.01117187 591.859375 964.37109375 C589.05755167 965.10187235 586.26941024 965.77748702 583.4375 966.375 C577.63025508 967.60324846 572.1330721 969.43821652 566.75 971.9375 C563.08626476 973.37682456 560.06074747 973.78280178 556.16796875 974.00390625 C554.0135231 974.15844224 554.0135231 974.15844224 552.25 976.3125 C550.12089115 976.87950635 547.97087415 977.36975659 545.8125 977.8125 C541.95101211 978.60637014 539.55046095 979.1121927 536.25 981.3125 C535.21875 981.456875 534.1875 981.60125 533.125 981.75 C528.56568918 982.41183544 524.54032195 983.6735006 520.25 985.3125 C519.26 985.68375 518.27 986.055 517.25 986.4375 C514.40665716 989.10313391 514.56200766 991.56890225 514.390625 995.3515625 C514.25 997.3125 514.25 997.3125 513.25 998.3125 C512.96450351 1001.34873255 512.80131186 1004.38507785 512.62890625 1007.4296875 C512.25 1010.3125 512.25 1010.3125 510.25 1013.3125 C509.97395387 1016.20956142 509.78568747 1019.03498263 509.6875 1021.9375 C509.37053951 1030.19196049 509.37053951 1030.19196049 508.25 1031.3125 C507.96450351 1034.34873255 507.80131186 1037.38507785 507.62890625 1040.4296875 C507.25 1043.3125 507.25 1043.3125 505.25 1046.3125 C504.97457149 1049.04406938 504.7861176 1051.70026024 504.6875 1054.4375 C504.37058024 1062.19191976 504.37058024 1062.19191976 503.25 1063.3125 C502.96450351 1066.34873255 502.80131186 1069.38507785 502.62890625 1072.4296875 C502.25 1075.3125 502.25 1075.3125 500.25 1078.3125 C499.82796044 1081.24810139 499.82796044 1081.24810139 499.6875 1084.4375 C499.34808917 1090.21441083 499.34808917 1090.21441083 498.25 1091.3125 C496.89706324 1091.41987146 495.53864581 1091.45928638 494.1815033 1091.47071838 C493.30505661 1091.4805072 492.42860992 1091.49029602 491.52560425 1091.50038147 C490.55672272 1091.50613693 489.58784119 1091.5118924 488.58959961 1091.51782227 C487.57508224 1091.52772186 486.56056488 1091.53762146 485.51530457 1091.54782104 C482.14434179 1091.57954128 478.7733649 1091.6042349 475.40234375 1091.62890625 C473.07206342 1091.6494667 470.7417869 1091.67046292 468.41151428 1091.69187927 C462.26466953 1091.74719386 456.11779061 1091.7965616 449.97088623 1091.84472656 C443.70386701 1091.89487323 437.43689769 1091.95059488 431.16992188 1092.00585938 C418.86332383 1092.11355569 406.55668255 1092.214975 394.25 1092.3125 C393.97643173 1093.00174561 393.70286346 1093.69099121 393.42100525 1094.40112305 C393.06156326 1095.30386963 392.70212128 1096.20661621 392.33178711 1097.13671875 C391.97571884 1098.03221436 391.61965057 1098.92770996 391.25279236 1099.8503418 C390.21350238 1102.40211268 389.07602043 1104.86415591 387.8125 1107.3125 C387.39355469 1108.13363281 386.97460938 1108.95476562 386.54296875 1109.80078125 C386.11628906 1110.62964844 385.68960938 1111.45851563 385.25 1112.3125 C382.40248912 1117.91512465 379.6498527 1123.5023303 377.25 1129.3125 C376.59 1129.3125 375.93 1129.3125 375.25 1129.3125 C375.1675 1130.488125 375.085 1131.66375 375 1132.875 C374.53346997 1136.57484232 373.42618592 1139.21432747 371.421875 1142.40234375 C369.08242285 1146.21565075 367.22909553 1150.3040462 365.25 1154.3125 C364.21648987 1156.35110761 363.18256297 1158.38947221 362.14453125 1160.42578125 C360.71425527 1163.44247688 359.53851879 1166.55151595 358.35546875 1169.671875 C356.10985904 1175.52001604 353.42975955 1180.9173342 350.25 1186.3125 C347.375 1186.4375 347.375 1186.4375 344.25 1186.3125 C343.59 1185.6525 342.93 1184.9925 342.25 1184.3125 C340.34776644 1183.99922425 340.34776644 1183.99922425 338.1875 1183.9375 C333.76103111 1183.54859299 330.54305016 1182.21304615 326.578125 1180.29296875 C323.31405125 1178.91833366 320.02959116 1178.35772009 316.5546875 1177.74609375 C309.32306889 1176.38556889 309.32306889 1176.38556889 307.25 1174.3125 C305.91930004 1174.17883594 304.58493397 1174.08111578 303.25 1174 C298.82070417 1173.56616692 295.54991421 1172.21637017 291.578125 1170.29296875 C288.31405125 1168.91833366 285.02959116 1168.35772009 281.5546875 1167.74609375 C274.32306889 1166.38556889 274.32306889 1166.38556889 272.25 1164.3125 C270.87975346 1164.12725208 269.5029679 1163.9894414 268.125 1163.875 C263.95025983 1163.46086578 260.24114502 1162.58626969 256.25 1161.3125 C256.25 1160.6525 256.25 1159.9925 256.25 1159.3125 C251.13231151 1159.08661308 251.13231151 1159.08661308 246.25 1160.3125 C245.98445312 1160.88742187 245.71890625 1161.46234375 245.4453125 1162.0546875 C243.88113192 1165.00925081 241.79199829 1166.88525534 239.375 1169.1875 C235.74486484 1172.73939949 232.86474277 1175.98811772 230.25 1180.3125 C228.125 1183.1875 228.125 1183.1875 226.25 1185.3125 C225.59 1185.3125 224.93 1185.3125 224.25 1185.3125 C223.89035156 1186.16714844 223.89035156 1186.16714844 223.5234375 1187.0390625 C221.51642094 1190.62214114 218.50099305 1193.09500491 215.5390625 1195.8984375 C213.15879972 1198.26394357 213.15879972 1198.26394357 211.37109375 1201.19140625 C208.84913384 1204.90235647 205.91978917 1207.78814566 202.6875 1210.875 C198.92863575 1214.46587032 195.72927695 1217.67870761 193.25 1222.3125 C192.59 1223.3025 191.93 1224.2925 191.25 1225.3125 C190.59 1225.3125 189.93 1225.3125 189.25 1225.3125 C188.92 1226.3025 188.59 1227.2925 188.25 1228.3125 C187.59 1228.3125 186.93 1228.3125 186.25 1228.3125 C186.023125 1228.89 185.79625 1229.4675 185.5625 1230.0625 C183.89018419 1232.9293271 181.97780269 1234.44961036 179.25 1236.3125 C178.26 1236.3125 177.27 1236.3125 176.25 1236.3125 C175.92 1235.6525 175.59 1234.9925 175.25 1234.3125 C174.095 1233.8175 172.94 1233.3225 171.75 1232.8125 C168.25 1231.3125 168.25 1231.3125 167.25 1229.3125 C166.321875 1228.94125 165.39375 1228.57 164.4375 1228.1875 C159.6774876 1226.26406642 155.66512895 1223.31460611 151.44140625 1220.43359375 C147.39931683 1217.74711327 143.22975291 1215.33186584 139.0234375 1212.9140625 C129.15 1207.2125 129.15 1207.2125 126.25 1204.3125 C124.27000374 1203.27415801 122.25229664 1202.34720518 120.22265625 1201.41015625 C118.16839276 1200.26709082 116.87573118 1198.99153384 115.25 1197.3125 C113.66709768 1196.40317313 112.08136942 1195.49834636 110.48046875 1194.62109375 C106.56189128 1192.32210347 102.85810757 1189.69210651 99.1171875 1187.1171875 C95.10424068 1184.59132724 92.46120372 1183.27000162 87.6875 1183.4375 C83.85498751 1184.41304863 82.80818048 1185.41322879 80.25 1188.3125 C77.76349344 1189.88359747 75.21968936 1191.3297615 72.6640625 1192.78515625 C66.03950663 1196.56133866 59.6877698 1200.60328357 53.41455078 1204.93579102 C50.11589175 1207.18705267 46.98480564 1208.91618428 43.25 1210.3125 C42.5075 1211.0859375 42.5075 1211.0859375 41.75 1211.875 C39.74293911 1213.79843335 37.95332474 1213.94718585 35.25 1214.3125 C34.92 1215.3025 34.59 1216.2925 34.25 1217.3125 C32.26833966 1218.3483679 30.26526169 1219.34362419 28.25 1220.3125 C27.486875 1220.93125 26.72375 1221.55 25.9375 1222.1875 C23.01145369 1224.50111802 20.00303488 1226.12254397 16.72265625 1227.875 C13.14362084 1229.95570305 9.89245967 1232.44107257 6.609375 1234.95703125 C3.87077306 1236.53036713 2.35891735 1236.7315055 -0.75 1236.3125 C-3.0625 1234.4375 -3.0625 1234.4375 -4.75 1232.3125 C-4.75 1231.6525 -4.75 1230.9925 -4.75 1230.3125 C-5.41 1230.3125 -6.07 1230.3125 -6.75 1230.3125 C-7.41 1228.6625 -8.07 1227.0125 -8.75 1225.3125 C-9.74 1225.3125 -10.73 1225.3125 -11.75 1225.3125 C-12.80771739 1223.68185236 -13.80273046 1222.00969127 -14.75 1220.3125 C-15.306875 1219.755625 -15.86375 1219.19875 -16.4375 1218.625 C-16.870625 1218.191875 -17.30375 1217.75875 -17.75 1217.3125 C-17.75 1216.6525 -17.75 1215.9925 -17.75 1215.3125 C-18.41 1215.3125 -19.07 1215.3125 -19.75 1215.3125 C-21.20659977 1213.69867052 -22.59048951 1212.01886784 -23.9375 1210.3125 C-30.72857651 1201.82773043 -30.72857651 1201.82773043 -38.1875 1193.9375 C-39.75 1192.3125 -39.75 1192.3125 -39.75 1190.3125 C-40.74 1189.9825 -41.73 1189.6525 -42.75 1189.3125 C-42.75 1188.6525 -42.75 1187.9925 -42.75 1187.3125 C-43.41 1187.3125 -44.07 1187.3125 -44.75 1187.3125 C-46.046875 1185.73828125 -46.046875 1185.73828125 -47.5 1183.625 C-49.44083305 1180.93150242 -51.24908242 1178.72025346 -53.875 1176.6875 C-56.93019193 1174.1636458 -58.64888962 1171.64529577 -60.75 1168.3125 C-61.265625 1167.796875 -61.78125 1167.28125 -62.3125 1166.75 C-63.75 1165.3125 -63.75 1165.3125 -65.0625 1162.6875 C-66.58507174 1160.04120381 -66.58507174 1160.04120381 -69.6875 1159.375 C-72.62433392 1159.0718372 -72.62433392 1159.0718372 -74.5 1160.21484375 C-78.56974795 1162.20025898 -83.11430648 1162.67769663 -87.53515625 1163.53125 C-90.87513656 1164.14854034 -90.87513656 1164.14854034 -93.75 1166.3125 C-94.801875 1166.456875 -95.85375 1166.60125 -96.9375 1166.75 C-100.33274008 1167.25093706 -103.00848989 1168.1506054 -106.16796875 1169.421875 C-110.39975165 1170.88155201 -114.75748687 1171.85391274 -119.11499023 1172.86645508 C-122.58384144 1173.6905006 -125.60257527 1174.65294878 -128.75 1176.3125 C-129.8225 1176.456875 -130.895 1176.60125 -132 1176.75 C-135.36369449 1177.25455417 -138.03812756 1178.16344099 -141.171875 1179.421875 C-145.37566347 1180.87409284 -149.70046717 1181.84886995 -154.02709961 1182.86645508 C-156.91091265 1183.55484015 -159.63421003 1184.26282628 -162.36328125 1185.43359375 C-165.2609465 1186.50065542 -167.6869109 1186.45496926 -170.75 1186.3125 C-176.57731958 1174.93030695 -182.29450738 1163.45568301 -186.8203125 1151.48046875 C-187.65779056 1149.15725025 -187.65779056 1149.15725025 -189.75 1147.3125 C-190.45105843 1145.66000513 -191.10800351 1143.98882417 -191.75 1142.3125 C-193.96373559 1137.13393995 -196.31963227 1132.08282849 -199.015625 1127.13671875 C-199.75 1125.3125 -199.75 1125.3125 -199.75 1121.3125 C-200.41 1121.3125 -201.07 1121.3125 -201.75 1121.3125 C-201.9459375 1120.77625 -202.141875 1120.24 -202.34375 1119.6875 C-204.83436661 1113.16036682 -207.84163638 1106.97214856 -211.01953125 1100.75976562 C-212.44448523 1097.9669646 -213.75676985 1095.29219044 -214.75 1092.3125 C-249.07 1091.9825 -283.39 1091.6525 -318.75 1091.3125 C-323.19700461 1080.19498848 -323.19700461 1080.19498848 -323.25 1075.75 C-323.73104903 1065.88262848 -325.61923996 1056.19777754 -327.23388672 1046.46508789 C-328.87269547 1036.45471066 -330.32565249 1026.41776273 -331.75 1016.375 C-331.915 1015.21548828 -332.08 1014.05597656 -332.25 1012.86132812 C-332.415 1011.70181641 -332.58 1010.54230469 -332.75 1009.34765625 C-332.91604736 1008.20095459 -333.08209473 1007.05425293 -333.25317383 1005.87280273 C-333.59984077 1003.38855508 -333.92057858 1000.90061112 -334.22143555 998.41040039 C-334.379104 997.15348389 -334.53677246 995.89656738 -334.69921875 994.6015625 C-334.83416748 993.46025879 -334.96911621 992.31895508 -335.1081543 991.14306641 C-335.54363883 988.01439718 -335.54363883 988.01439718 -338.5625 985.625 C-343.14012791 983.83080262 -348.14473322 982.96485369 -352.95703125 982.0234375 C-355.75 981.3125 -355.75 981.3125 -357.75 979.3125 C-359.65223356 978.99922425 -359.65223356 978.99922425 -361.8125 978.9375 C-365.21879689 978.63028652 -367.75039943 978.01338432 -370.8125 976.5 C-374.89793574 974.52845697 -379.04216424 973.36444202 -383.4375 972.3125 C-384.11973633 972.14919189 -384.80197266 971.98588379 -385.50488281 971.81762695 C-386.89484487 971.48546451 -388.28481887 971.15335206 -389.67480469 970.82128906 C-392.99034964 970.00839545 -396.27458454 969.10648258 -399.5625 968.1875 C-400.68269531 967.87554688 -401.80289063 967.56359375 -402.95703125 967.2421875 C-405.75 966.3125 -405.75 966.3125 -408.75 964.3125 C-412.14120247 963.02061335 -415.52079081 962.1229002 -419.0625 961.375 C-423.75863322 960.37379393 -428.22504136 958.90259591 -432.75 957.3125 C-433.74 956.9825 -434.73 956.6525 -435.75 956.3125 C-436.96278303 952.67415092 -436.41484095 951.10209341 -435.75 947.3125 C-435.47856026 944.31432468 -435.25017771 941.3149372 -435.03125 938.3125 C-434.63286073 934.06301446 -433.87591921 929.93593694 -433.03125 925.75390625 C-431.40140264 917.6617141 -430.34046051 909.87633109 -429.9609375 901.6171875 C-429.68111164 897.23324896 -428.90012532 893.05578351 -428.03125 888.75390625 C-426.40758293 880.69239923 -425.41846764 872.97505171 -425 864.75390625 C-424.66689219 860.16846905 -423.83145147 855.77479977 -422.75 851.3125 C-423.77480469 850.95671875 -423.77480469 850.95671875 -424.8203125 850.59375 C-428.36661241 849.04283484 -431.44506808 846.99017066 -434.625 844.8125 C-435.96606252 843.90612671 -437.30721074 842.99988023 -438.6484375 842.09375 C-439.6708252 841.39958984 -439.6708252 841.39958984 -440.71386719 840.69140625 C-443.88048512 838.54691487 -447.06563823 836.4305099 -450.25 834.3125 C-451.49356447 833.4831852 -452.73705376 832.65375766 -453.98046875 831.82421875 C-456.54348059 830.11532142 -459.10885623 828.41004445 -461.67578125 826.70703125 C-468.04304514 822.47888186 -474.38026498 818.22738097 -480.6015625 813.78515625 C-484.32290598 811.23434445 -488.20683706 809.05200545 -492.1875 806.9375 C-495.04429856 805.36934026 -497.54907234 803.77193663 -500 801.625 C-502.56746151 799.21208846 -502.56746151 799.21208846 -505.5 798.25 C-507.75 797.3125 -507.75 797.3125 -509.125 795.4375 C-509.86907857 792.90763287 -509.59854886 791.78100576 -508.75 789.3125 C-508.605625 788.590625 -508.46125 787.86875 -508.3125 787.125 C-508.126875 786.526875 -507.94125 785.92875 -507.75 785.3125 C-507.09 784.9825 -506.43 784.6525 -505.75 784.3125 C-505.62625 783.44625 -505.5025 782.58 -505.375 781.6875 C-504.81448293 778.66070782 -504.27618424 777.23480032 -502.75 774.6875 C-501.17425564 772.02843139 -500.22676548 770.29228425 -499.75 767.3125 C-499.09 767.3125 -498.43 767.3125 -497.75 767.3125 C-497.79125 766.52875 -497.8325 765.745 -497.875 764.9375 C-497.75 762.3125 -497.75 762.3125 -495.75 760.3125 C-495.19724885 758.83112693 -494.70253151 757.32749678 -494.25 755.8125 C-493.36483047 752.84910634 -492.97193687 751.53443687 -490.75 749.3125 C-490.39984951 747.64928518 -490.06802943 745.98215451 -489.75 744.3125 C-488.17105263 740.52302632 -488.17105263 740.52302632 -485.75 739.3125 C-485.27285361 737.71065141 -484.80471119 736.10555954 -484.3828125 734.48828125 C-482.83168332 729.15507784 -480.83191501 723.93537252 -477.75 719.3125 C-477.75 718.6525 -477.75 717.9925 -477.75 717.3125 C-477.09 716.6525 -476.43 715.9925 -475.75 715.3125 C-475.03149869 713.75200496 -474.37126285 712.16419328 -473.75 710.5625 C-473.40324219 709.67046875 -473.05648437 708.7784375 -472.69921875 707.859375 C-471.64551178 705.03214478 -470.68252299 702.18180152 -469.75 699.3125 C-469.42 698.6525 -469.09 697.9925 -468.75 697.3125 C-469.23210937 696.78140625 -469.71421875 696.2503125 -470.2109375 695.703125 C-470.84257812 694.99671875 -471.47421875 694.2903125 -472.125 693.5625 C-472.75148438 692.86640625 -473.37796875 692.1703125 -474.0234375 691.453125 C-475.62505183 689.46741312 -476.71520068 687.63295907 -477.75 685.3125 C-478.41 685.3125 -479.07 685.3125 -479.75 685.3125 C-481.80506382 682.99226665 -483.5247283 680.72925265 -485 678 C-487.26170487 674.52666752 -490.09792043 671.91617138 -493.10546875 669.08203125 C-494.75 667.3125 -494.75 667.3125 -494.75 665.3125 C-495.41 665.3125 -496.07 665.3125 -496.75 665.3125 C-498.47772779 663.34481001 -500.11639526 661.355631 -501.75 659.3125 C-502.72416317 658.16240979 -503.70342976 657.01662479 -504.6875 655.875 C-505.18765625 655.29105469 -505.6878125 654.70710937 -506.203125 654.10546875 C-507.24843337 652.89386132 -508.30072847 651.68825195 -509.359375 650.48828125 C-511.52501896 648.01708851 -513.50617501 645.74473521 -515.125 642.875 C-517.3103428 639.42888251 -520.14533681 636.87148892 -523.10546875 634.08203125 C-524.75 632.3125 -524.75 632.3125 -524.75 630.3125 C-525.41 630.3125 -526.07 630.3125 -526.75 630.3125 C-528.1875 628.6328125 -528.1875 628.6328125 -529.75 626.4375 C-531.34356457 624.21447743 -532.81234725 622.25015275 -534.75 620.3125 C-535.125 617.9375 -535.125 617.9375 -534.75 615.3125 C-533.46034824 613.93687146 -532.12310707 612.60483607 -530.75 611.3125 C-530.440625 610.508125 -530.13125 609.70375 -529.8125 608.875 C-528.41493294 605.5043971 -526.41619123 603.80094515 -523.75 601.3125 C-521.93037715 599.43405313 -520.11352198 597.55305833 -518.30078125 595.66796875 C-516.75 594.3125 -516.75 594.3125 -514.75 594.3125 C-514.58129395 593.4138623 -514.58129395 593.4138623 -514.40917969 592.49707031 C-513.33426848 588.93473496 -510.54897376 586.66243059 -508 584.0625 C-504.04052179 579.91795607 -500.60766761 575.96401648 -497.7578125 570.9609375 C-495.20871538 566.79148406 -492.00558434 564.44029217 -487.75 562.3125 C-487.42 561.3225 -487.09 560.3325 -486.75 559.3125 C-484.76853326 556.46126153 -482.54020344 553.85661312 -480.25 551.25 C-479.36828125 550.24259766 -479.36828125 550.24259766 -478.46875 549.21484375 C-477.39819843 548.02993781 -476.29794935 546.87042106 -475.15625 545.75390625 C-473.51653089 544.16162553 -473.51653089 544.16162553 -471.75 541.3125 C-470.76 540.6525 -469.77 539.9925 -468.75 539.3125 C-469.17258297 535.12465373 -469.17258297 535.12465373 -471.125 531.5 C-472.74139857 529.32407885 -473.28637018 527.87051367 -474.0625 525.3125 C-475.6121232 520.34554986 -477.90241822 515.90455589 -480.2734375 511.28515625 C-482.37235513 507.05955752 -484.04915075 502.70916171 -485.75 498.3125 C-488.63238821 491.09177321 -491.8013555 484.12728051 -495.3359375 477.203125 C-497.05277103 473.69357579 -498.48241237 470.11438646 -499.890625 466.47265625 C-501.00925579 463.66082522 -502.37499189 461.00751589 -503.75 458.3125 C-509.48355818 446.50811551 -509.48355818 446.50811551 -509.75 441.3125 C-508.10622962 438.02495925 -505.11943428 437.43564476 -501.75 436.3125 C-501.75 435.6525 -501.75 434.9925 -501.75 434.3125 C-501.193125 434.065 -500.63625 433.8175 -500.0625 433.5625 C-497.60901229 432.32650889 -497.60901229 432.32650889 -495.1875 430.25 C-492.45199681 428.07562567 -490.04225066 427.40991689 -486.75 426.3125 C-486.75 425.6525 -486.75 424.9925 -486.75 424.3125 C-485.1 424.3125 -483.45 424.3125 -481.75 424.3125 C-481.523125 423.673125 -481.29625 423.03375 -481.0625 422.375 C-479.75 420.3125 -479.75 420.3125 -477.125 419.5625 C-476.34125 419.48 -475.5575 419.3975 -474.75 419.3125 C-474.75 418.6525 -474.75 417.9925 -474.75 417.3125 C-471.79518508 414.56874329 -470.97528092 414.3125 -466.75 414.3125 C-466.523125 413.673125 -466.29625 413.03375 -466.0625 412.375 C-464.75 410.3125 -464.75 410.3125 -462.125 409.5625 C-461.34125 409.48 -460.5575 409.3975 -459.75 409.3125 C-459.75 408.6525 -459.75 407.9925 -459.75 407.3125 C-458.5625 405.6875 -458.5625 405.6875 -456.75 404.3125 C-454.0625 404.125 -454.0625 404.125 -451.75 404.3125 C-451.42 403.3225 -451.09 402.3325 -450.75 401.3125 C-448.97265625 399.99609375 -448.97265625 399.99609375 -446.8125 398.75 C-444.44462424 397.37052973 -442.70028299 396.26278299 -440.75 394.3125 C-439.43 394.3125 -438.11 394.3125 -436.75 394.3125 C-436.42 393.3225 -436.09 392.3325 -435.75 391.3125 C-435.09 391.3125 -434.43 391.3125 -433.75 391.3125 C-433.75 390.6525 -433.75 389.9925 -433.75 389.3125 C-432.6053125 388.879375 -432.6053125 388.879375 -431.4375 388.4375 C-428.59970692 387.34980987 -428.59970692 387.34980987 -425.75 385.3125 C-424.76 384.9825 -423.77 384.6525 -422.75 384.3125 C-422.88277344 383.58546875 -423.01554687 382.8584375 -423.15234375 382.109375 C-424.05904827 376.94711569 -424.83919651 371.85680862 -425.1875 366.625 C-425.54110479 361.7629341 -426.28862706 357.03595034 -427.1875 352.25 C-428.29788596 346.30226274 -429.11871423 340.39822966 -429.6875 334.375 C-430.42247552 326.6355706 -431.52586347 318.98914664 -432.75 311.3125 C-434.44525279 300.67012309 -435.76745096 290.04296973 -436.75 279.3125 C-436.13584229 279.10898926 -435.52168457 278.90547852 -434.88891602 278.69580078 C-434.08123779 278.42751465 -433.27355957 278.15922852 -432.44140625 277.8828125 C-431.64162354 277.61742676 -430.84184082 277.35204102 -430.01782227 277.07861328 C-428.23170337 276.47522852 -426.45715861 275.83757867 -424.6875 275.1875 C-422.1902515 274.44363874 -420.0695907 274.08006959 -417.5 273.8125 C-413.72858349 273.69605023 -413.72858349 273.69605023 -411.75 271.3125 C-409.81356189 270.69713046 -407.84983485 270.16551626 -405.875 269.6875 C-404.30105469 269.29691406 -404.30105469 269.29691406 -402.6953125 268.8984375 C-399.75 268.3125 -399.75 268.3125 -395.75 268.3125 C-395.75 267.6525 -395.75 266.9925 -395.75 266.3125 C-393.44 265.9825 -391.13 265.6525 -388.75 265.3125 C-388.75 264.9825 -388.75 264.6525 -388.75 264.3125 C-386.44 264.3125 -384.13 264.3125 -381.75 264.3125 C-381.75 263.6525 -381.75 262.9925 -381.75 262.3125 C-377.27193691 260.664324 -373.01895492 259.2165282 -368.25 258.75 C-367.095 258.605625 -365.94 258.46125 -364.75 258.3125 C-364.42 257.6525 -364.09 256.9925 -363.75 256.3125 C-361.42258011 255.94011282 -359.08764285 255.61413134 -356.75 255.3125 C-352.13284762 254.12645347 -352.13284762 254.12645347 -347.75 252.3125 C-347.75 251.9825 -347.75 251.6525 -347.75 251.3125 C-345.76432292 251.08463542 -343.77864583 250.85677083 -341.79296875 250.62890625 C-339.55603607 250.34079265 -339.55603607 250.34079265 -336.75 249.3125 C-336.75 248.6525 -336.75 247.9925 -336.75 247.3125 C-336.09 247.3125 -335.43 247.3125 -334.75 247.3125 C-334.76160156 246.50425781 -334.77320313 245.69601562 -334.78515625 244.86328125 C-334.79417969 243.79464844 -334.80320312 242.72601563 -334.8125 241.625 C-334.82410156 240.56925781 -334.83570313 239.51351562 -334.84765625 238.42578125 C-334.75738933 235.54807182 -334.39002431 233.10995724 -333.75 230.3125 C-332.04166318 221.83580696 -330.47489239 213.51485518 -329.9609375 204.86328125 C-329.66065774 201.23212045 -328.86380956 197.79680914 -328.03125 194.25390625 C-326.33876015 186.93388766 -325.32535774 179.87641533 -324.9609375 172.37109375 C-324.76794207 169.57265998 -324.36451241 167.04413395 -323.75 164.3125 C-323.39421875 162.641875 -323.39421875 162.641875 -323.03125 160.9375 C-322.51041667 158.52083333 -321.98958333 156.10416667 -321.46875 153.6875 C-321.02704517 151.61340775 -320.62249474 149.53046771 -320.28125 147.4375 C-320.1059375 146.73625 -319.930625 146.035 -319.75 145.3125 C-317.44701344 144.16100672 -316.16003902 144.18913012 -313.59921265 144.19224548 C-312.72980545 144.19087082 -311.86039825 144.18949615 -310.96464539 144.18807983 C-309.53074211 144.19347275 -309.53074211 144.19347275 -308.06787109 144.19897461 C-306.56050636 144.19875557 -306.56050636 144.19875557 -305.02268982 144.1985321 C-301.68958402 144.19923071 -298.35653358 144.20702067 -295.0234375 144.21484375 C-292.71701081 144.21670812 -290.41058372 144.21813193 -288.10415649 144.21913147 C-282.02468783 144.22295518 -275.94524294 144.23278424 -269.86578369 144.24383545 C-263.66573407 144.2540527 -257.46568061 144.25862976 -251.265625 144.26367188 C-239.09373954 144.27440662 -226.92187174 144.29148131 -214.75 144.3125 C-213.74824236 141.49470877 -213.74824236 141.49470877 -213.3125 139.25 C-212.75 137.3125 -212.75 137.3125 -210.75 135.3125 C-210.21765195 133.89383425 -209.74454594 132.45235782 -209.3125 131 C-208.17565362 127.40572812 -206.744476 124.52100486 -204.75 121.3125 C-204.399375 120.24 -204.04875 119.1675 -203.6875 118.0625 C-202.75 115.3125 -202.75 115.3125 -200.75 114.3125 C-200.39080332 112.65121537 -200.06088368 110.98349977 -199.75 109.3125 C-198.17105263 105.52302632 -198.17105263 105.52302632 -195.75 104.3125 C-195.02129528 101.99779088 -194.35760482 99.6619053 -193.75 97.3125 C-192.75 94.3125 -192.75 94.3125 -190.75 92.3125 C-190.10232207 89.74188689 -190.10232207 89.74188689 -189.75 87.3125 C-189.09 87.3125 -188.43 87.3125 -187.75 87.3125 C-187.62625 86.590625 -187.5025 85.86875 -187.375 85.125 C-186.45694256 80.99374151 -185.0987286 77.83559289 -182.75 74.3125 C-181.64014276 72.21602589 -181.64014276 72.21602589 -180.8125 69.4375 C-179.55279943 65.73249833 -178.5228702 63.0853702 -175.75 60.3125 C-174.97562682 58.03192844 -174.35315234 55.73142676 -173.7265625 53.40625 C-172.75 51.3125 -172.75 51.3125 -170.8984375 50.03125 C-168.75 49.3125 -168.75 49.3125 -164.75 49.3125 C-164.75 49.9725 -164.75 50.6325 -164.75 51.3125 C-163.265 50.8175 -163.265 50.8175 -161.75 50.3125 C-159.74357892 51.29955342 -157.7448286 52.30222338 -155.75 53.3125 C-153.01140757 54.13193226 -150.23264543 54.71896984 -147.4375 55.3125 C-142.2882357 56.46398645 -137.2943904 57.68587441 -132.3203125 59.4609375 C-128.48036197 60.73313995 -124.5855459 61.79616437 -120.6875 62.875 C-119.93090088 63.08503662 -119.17430176 63.29507324 -118.39477539 63.51147461 C-114.85836818 64.48518978 -111.3208418 65.42202068 -107.75390625 66.27734375 C-104.14375258 67.16820134 -100.65577565 68.31505469 -97.13769531 69.51416016 C-92.8329332 70.95348246 -88.4817915 72.228746 -84.125 73.5 C-83.22265625 73.77263672 -82.3203125 74.04527344 -81.390625 74.32617188 C-76.32804573 75.79845258 -72.02237602 76.63750948 -66.75 76.3125 C-66.75 75.6525 -66.75 74.9925 -66.75 74.3125 C-66.09 74.3125 -65.43 74.3125 -64.75 74.3125 C-64.63897949 73.71703369 -64.52795898 73.12156738 -64.41357422 72.50805664 C-63.68278353 70.09010203 -62.85650349 69.0016262 -61.1328125 67.18359375 C-60.34583984 66.34344727 -60.34583984 66.34344727 -59.54296875 65.48632812 C-58.71732422 64.6268457 -58.71732422 64.6268457 -57.875 63.75 C-57.33230469 63.17314453 -56.78960937 62.59628906 -56.23046875 62.00195312 C-54.25070088 59.90359281 -52.27164602 57.81555675 -50.19482422 55.81274414 C-48.52571079 54.16850112 -48.52571079 54.16850112 -46.75 51.3125 C-46.234375 50.8175 -45.71875 50.3225 -45.1875 49.8125 C-43.49483279 48.26047562 -43.49483279 48.26047562 -42.75 45.3125 C-42.09 45.3125 -41.43 45.3125 -40.75 45.3125 C-40.36328125 44.43851563 -40.36328125 44.43851563 -39.96875 43.546875 C-38.65165983 41.1322097 -37.19911616 39.49509823 -35.25 37.5625 C-34.6415625 36.94890625 -34.033125 36.3353125 -33.40625 35.703125 C-31.75 34.3125 -31.75 34.3125 -29.75 34.3125 C-29.6571875 33.2296875 -29.6571875 33.2296875 -29.5625 32.125 C-28.48260098 28.38688801 -26.56865668 26.99675207 -23.75 24.3125 C-21.51279721 22.15401171 -19.28698508 19.98408113 -17.0625 17.8125 C-16.48177734 17.25691406 -15.90105469 16.70132813 -15.30273438 16.12890625 C-12.12461877 13.00590248 -10.20059736 10.60508401 -8.75 6.3125 C-6.1875 3.5625 -6.1875 3.5625 -3.75 1.3125 C-2.75 0.3125 -2.75 0.3125 0 0 Z M-28.75 30.3125 C-28.42 30.9725 -28.09 31.6325 -27.75 32.3125 C-27.42 31.6525 -27.09 30.9925 -26.75 30.3125 C-27.41 30.3125 -28.07 30.3125 -28.75 30.3125 Z " fill="#E41C22" transform="translate(546.75,22.6875)"/>
</svg>
