<svg width="193" height="193" viewBox="0 0 193 193" fill="none" xmlns="http://www.w3.org/2000/svg">
    <g clip-path="url(#clip0_232_2171)">
        <path d="M188.771 63.4825C157.018 62.8738 148.144 41.4154 148.144 41.4154V41.4867V41.4154C148.144 41.4154 139.271 62.8738 107.518 63.4825C107.518 63.4825 99.083 124.044 146.745 134.598H149.55C197.206 124.044 188.771 63.4825 188.771 63.4825Z" fill="#59A64E"/>
        <path d="M148.145 47.4243V134.21C148.145 134.21 197.741 123.28 187.462 65.5804L161.248 55.4599L148.145 47.4243Z" fill="#59A64E"/>
        <path d="M149.878 137.635H146.415L146.093 137.564C125.386 132.979 111.631 118.534 106.311 95.7801C102.377 78.9644 104.428 63.7091 104.518 63.0681L104.873 60.5039L107.453 60.4521C134.453 59.9341 144.107 44.0055 145.616 40.9169L148.118 36.4296L150.613 40.8327C152.122 43.9213 161.841 59.9277 188.828 60.4457L191.408 60.4975L191.762 63.0616C191.853 63.7026 193.903 78.9579 189.97 95.7737C184.649 118.527 170.894 132.973 150.194 137.557L149.878 137.635ZM147.073 131.561H149.208C187.925 122.742 186.894 77.624 186.023 66.4222C163.782 65.1725 152.767 54.0418 148.144 47.4243C143.52 54.0418 132.506 65.1725 110.258 66.4157C109.864 71.3044 109.426 82.6487 112.237 94.5434C117.055 114.946 128.772 127.398 147.073 131.561Z" fill="#83D178"/>
    </g>
    <path fill-rule="evenodd" clip-rule="evenodd" d="M157.284 81.9078V84.3748C160.055 85.2398 162.074 87.7485 162.074 90.7448V98.6881C162.074 102.397 158.999 105.405 155.208 105.405H141.59C137.797 105.405 134.722 102.397 134.722 98.6881V90.7448C134.722 87.7485 136.743 85.2398 139.513 84.3748V81.9078C139.529 77.1111 143.502 73.2258 148.374 73.2258C153.311 73.2258 157.284 77.1111 157.284 81.9078ZM148.406 76.0239C151.725 76.0239 154.423 78.662 154.423 81.9078V84.0279H142.374V81.8758C142.39 78.646 145.088 76.0239 148.406 76.0239ZM149.829 96.4832C149.829 97.2667 149.191 97.8902 148.39 97.8902C147.605 97.8902 146.968 97.2667 146.968 96.4832V92.9337C146.968 92.1662 147.605 91.5427 148.39 91.5427C149.191 91.5427 149.829 92.1662 149.829 92.9337V96.4832Z" fill="white"/>
    <defs>
        <clipPath id="clip0_232_2171">
            <rect width="88.4756" height="101.205" fill="white" transform="translate(103.907 36.4296)"/>
        </clipPath>
    </defs>
</svg>