<svg width="100" height="100" viewBox="0 0 18 21" fill="none" xmlns="http://www.w3.org/2000/svg">
<path d="M16.96 7.9599C16.29 7.2199 15.28 6.7899 13.88 6.6399V5.8799C13.88 4.5099 13.3 3.1899 12.28 2.2699C11.25 1.3299 9.90999 0.8899 8.51999 1.0199C6.12999 1.2499 4.11999 3.5599 4.11999 6.0599V6.6399C2.71999 6.7899 1.70999 7.2199 1.03999 7.9599C0.0699899 9.0399 0.09999 10.4799 0.20999 11.4799L0.90999 17.0499C1.11999 18.9999 1.90999 20.9999 6.20999 20.9999H11.79C16.09 20.9999 16.88 18.9999 17.09 17.0599L17.79 11.4699C17.9 10.4799 17.92 9.0399 16.96 7.9599ZM8.65999 2.4099C9.65999 2.3199 10.61 2.6299 11.35 3.2999C12.08 3.9599 12.49 4.8999 12.49 5.8799V6.5799H5.50999V6.0599C5.50999 4.2799 6.97999 2.5699 8.65999 2.4099ZM5.41999 12.1499H5.40999C4.85999 12.1499 4.40999 11.6999 4.40999 11.1499C4.40999 10.5999 4.85999 10.1499 5.40999 10.1499C5.96999 10.1499 6.41999 10.5999 6.41999 11.1499C6.41999 11.6999 5.96999 12.1499 5.41999 12.1499ZM12.42 12.1499H12.41C11.86 12.1499 11.41 11.6999 11.41 11.1499C11.41 10.5999 11.86 10.1499 12.41 10.1499C12.97 10.1499 13.42 10.5999 13.42 11.1499C13.42 11.6999 12.97 12.1499 12.42 12.1499Z" fill="white"/>
</svg>
