<svg width="100" height="100" viewBox="0 0 18 18" fill="none" xmlns="http://www.w3.org/2000/svg">
    <path d="M14.432 4.18541H14.132L11.597 1.65041C11.3945 1.44791 11.0645 1.44791 10.8545 1.65041C10.652 1.85291 10.652 2.18291 10.8545 2.39291L12.647 4.18541H5.35695L7.14945 2.39291C7.35195 2.19041 7.35195 1.86041 7.14945 1.65041C6.94695 1.44791 6.61695 1.44791 6.40695 1.65041L3.87945 4.18541H3.57945C2.90445 4.18541 1.50195 4.18541 1.50195 6.10541C1.50195 6.83291 1.65195 7.31291 1.96695 7.62791C2.14695 7.81541 2.36445 7.91291 2.59695 7.96541C2.81445 8.01791 3.04695 8.02541 3.27195 8.02541H14.732C14.9645 8.02541 15.182 8.01041 15.392 7.96541C16.022 7.81541 16.502 7.36541 16.502 6.10541C16.502 4.18541 15.0995 4.18541 14.432 4.18541Z" fill="white"/>
    <path d="M14.2899 9H3.65494C3.18994 9 2.83744 9.4125 2.91244 9.87L3.54244 13.725C3.75244 15.015 4.31494 16.5 6.81244 16.5H11.0199C13.5474 16.5 13.9974 15.2325 14.2674 13.815L15.0249 9.8925C15.1149 9.4275 14.7624 9 14.2899 9ZM7.95993 13.8375C7.95993 14.13 7.72744 14.3625 7.44244 14.3625C7.14994 14.3625 6.91744 14.13 6.91744 13.8375V11.3625C6.91744 11.0775 7.14994 10.8375 7.44244 10.8375C7.72744 10.8375 7.95993 11.0775 7.95993 11.3625V13.8375ZM11.1699 13.8375C11.1699 14.13 10.9374 14.3625 10.6449 14.3625C10.3599 14.3625 10.1199 14.13 10.1199 13.8375V11.3625C10.1199 11.0775 10.3599 10.8375 10.6449 10.8375C10.9374 10.8375 11.1699 11.0775 11.1699 11.3625V13.8375Z" fill="white"/>
</svg>
