<svg width="100" height="100" viewBox="0 0 19 19" fill="none" xmlns="http://www.w3.org/2000/svg">
    <g transform="rotate(90 9.5 9.5)">
        <path d="M18.2083 15.0417H16.1001C15.7573 13.9009 14.7092 13.0625 13.4583 13.0625C12.2075 13.0625 11.1601 13.9009 10.8166 15.0417H0.791654C0.354654 15.0417 0 15.3963 0 15.8333C0 16.2703 0.354654 16.625 0.791654 16.625H10.8165C11.1593 17.7658 12.2075 18.6042 13.4583 18.6042C14.7091 18.6042 15.7565 17.7658 16.1001 16.625H18.2083C18.6461 16.625 19 16.2703 19 15.8333C19 15.3963 18.6461 15.0417 18.2083 15.0417ZM13.4583 17.0208C12.8036 17.0208 12.2708 16.4881 12.2708 15.8333C12.2708 15.1786 12.8036 14.6458 13.4583 14.6458C14.1131 14.6458 14.6458 15.1786 14.6458 15.8333C14.6458 16.4881 14.113 17.0208 13.4583 17.0208Z" fill="white"/>
        <path d="M18.2083 2.37491H16.1001C15.7565 1.23413 14.7092 0.395752 13.4583 0.395752C12.2075 0.395752 11.1601 1.23413 10.8165 2.37491H0.791654C0.354654 2.37491 0 2.72956 0 3.16656C0 3.60356 0.354654 3.95822 0.791654 3.95822H10.8165C11.1601 5.09903 12.2075 5.93741 13.4583 5.93741C14.7092 5.93741 15.7566 5.09903 16.1001 3.95825H18.2083C18.6461 3.95825 19 3.6036 19 3.1666C19 2.7296 18.6461 2.37491 18.2083 2.37491ZM13.4583 4.35406C12.8036 4.35406 12.2708 3.82128 12.2708 3.16656C12.2708 2.51184 12.8036 1.97906 13.4583 1.97906C14.1131 1.97906 14.6458 2.51184 14.6458 3.16656C14.6458 3.82128 14.113 4.35406 13.4583 4.35406Z" fill="white"/>
        <path d="M18.2083 8.7084H8.18347C7.83987 7.56762 6.7925 6.72925 5.54169 6.72925C4.29088 6.72925 3.24347 7.56762 2.89991 8.7084H0.791654C0.354654 8.7084 0 9.06306 0 9.50006C0 9.93706 0.354654 10.2917 0.791654 10.2917H2.89987C3.24347 11.4325 4.29085 12.2709 5.54165 12.2709C6.79246 12.2709 7.83988 11.4325 8.18343 10.2917H18.2083C18.6461 10.2917 19 9.93706 19 9.50006C19 9.06306 18.6461 8.7084 18.2083 8.7084ZM5.54165 10.6876C4.88693 10.6876 4.35415 10.1548 4.35415 9.50006C4.35415 8.84534 4.88693 8.31256 5.54165 8.31256C6.19637 8.31256 6.72915 8.84534 6.72915 9.50006C6.72915 10.1548 6.19637 10.6876 5.54165 10.6876Z" fill="white"/>
    </g>
</svg>
