<svg width="42" height="40" viewBox="0 0 42 40" fill="none" xmlns="http://www.w3.org/2000/svg">
<rect width="42" height="40" rx="20" fill="white"/>
<g clip-path="url(#clip0_48_1101)">
<path d="M33.0185 17.7397L22.4133 17.7392C21.945 17.7392 21.5654 18.1188 21.5654 18.5871V21.9749C21.5654 22.4431 21.945 22.8228 22.4133 22.8228H28.3855C27.7315 24.5199 26.5109 25.9412 24.9537 26.8443L27.5002 31.2526C31.5851 28.8901 34.0002 24.7449 34.0002 20.1046C34.0002 19.4439 33.9515 18.9716 33.8541 18.4397C33.7801 18.0357 33.4293 17.7397 33.0185 17.7397Z" fill="#167EE6"/>
<path d="M21 27.9129C18.0773 27.9129 15.5259 26.316 14.1556 23.953L9.74744 26.4938C11.9907 30.3817 16.1931 32.9998 21 32.9998C23.3581 32.9998 25.5832 32.3649 27.5 31.2584V31.2524L24.9535 26.8441C23.7887 27.5197 22.4407 27.9129 21 27.9129Z" fill="#12B347"/>
<path d="M27.5 31.2586V31.2526L24.9535 26.8443C23.7887 27.5198 22.4408 27.913 21 27.913V33C23.3581 33 25.5833 32.3651 27.5 31.2586Z" fill="#0F993E"/>
<path d="M13.087 19.9998C13.087 18.5592 13.4801 17.2114 14.1556 16.0467L9.74743 13.5059C8.63487 15.4166 8 17.6357 8 19.9998C8 22.364 8.63487 24.583 9.74743 26.4938L14.1556 23.953C13.4801 22.7882 13.087 21.4405 13.087 19.9998Z" fill="#FFD500"/>
<path d="M21 12.087C22.9059 12.087 24.6565 12.7642 26.0239 13.8907C26.3612 14.1685 26.8515 14.1485 27.1605 13.8395L29.561 11.439C29.9116 11.0884 29.8866 10.5146 29.5121 10.1897C27.2211 8.20214 24.2402 7 21 7C16.193 7 11.9907 9.61813 9.74744 13.506L14.1556 16.0468C15.5259 13.6838 18.0773 12.087 21 12.087Z" fill="#FF4B26"/>
<path d="M26.0239 13.8907C26.3612 14.1685 26.8516 14.1485 27.1605 13.8395L29.561 11.439C29.9115 11.0884 29.8865 10.5146 29.5121 10.1897C27.2211 8.20209 24.2402 7 21 7V12.087C22.9058 12.087 24.6565 12.7642 26.0239 13.8907Z" fill="#D93F21"/>
</g>
<defs>
<clipPath id="clip0_48_1101">
<rect width="26" height="26" fill="white" transform="translate(8 7)"/>
</clipPath>
</defs>
</svg>
