<svg width="156" height="174" viewBox="0 0 156 174" fill="none" xmlns="http://www.w3.org/2000/svg">
<path d="M4.21613 46.158C4.21613 46.158 -1.78468 52.8483 14.6372 64.5416C31.0539 76.2269 40.7865 81.1833 40.7865 81.1833C40.7865 81.1833 44.1524 84.1309 41.3427 86.3194C38.5382 88.5159 31.1204 90.9906 31.7256 95.5214C32.351 100.222 37.1579 102.453 44.6723 102.689C52.1868 102.924 68.6212 104.054 70.1125 104.163C71.5694 104.273 73.5744 105.409 71.9008 107.218C70.2299 109.014 55.6772 118.649 60.6653 125.288C65.6534 131.926 86.6901 129.152 88.9909 128.891C91.2918 128.629 92.1747 129.207 92.5763 130.342C92.9698 131.482 87.7722 134.252 83.7419 137.162C79.7115 140.071 75.5568 144.152 78.7567 147.735C81.9565 151.319 96.9544 154.549 123.671 143.794L135.73 137.997L136.947 124.614C137.816 95.7928 129.608 82.8209 125.141 81.0549C120.674 79.2889 118.282 84.6069 116.942 89.3832C115.608 94.1675 114.795 100.008 113.594 100.028C112.394 100.048 111.549 99.4223 110.993 97.163C110.442 94.9116 105.778 74.192 97.8317 71.7992C89.8851 69.4063 85.8753 86.3993 84.7594 88.5875C83.6487 90.7837 81.8822 89.296 81.2802 87.9606C80.6624 86.6012 73.9367 71.5449 71.1198 64.5694C68.3029 57.5939 64.5492 53.8466 59.931 54.8844C55.4802 55.881 55.7164 63.7027 54.6219 67.0916C53.5327 70.4885 49.6147 68.3389 49.6147 68.3389C49.6147 68.3389 41.6105 60.9068 24.9875 49.5175C8.36452 38.1281 4.09045 46.2978 4.09045 46.2978" fill="#127359" fill-opacity="0.52"/>
</svg>