<svg width="100" height="100" viewBox="0 0 20 20" fill="none" xmlns="http://www.w3.org/2000/svg">
    <path d="M18.633 6.89102L18.3914 4.58268C18.0414 2.06602 16.8997 1.04102 14.458 1.04102H12.4914H11.258H8.72471H7.49137H5.49137C3.04138 1.04102 1.90804 2.06602 1.54971 4.60768L1.32471 6.89935C1.24137 7.79102 1.48304 8.65768 2.00804 9.33268C2.64137 10.1577 3.61637 10.6243 4.69971 10.6243C5.74971 10.6243 6.75804 10.0993 7.39137 9.25768C7.95804 10.0993 8.92471 10.6243 9.99971 10.6243C11.0747 10.6243 12.0164 10.1243 12.5914 9.29101C13.233 10.116 14.2247 10.6243 15.258 10.6243C16.3664 10.6243 17.3664 10.1327 17.9914 9.26602C18.4914 8.59935 18.7164 7.75768 18.633 6.89102Z" fill="#C4C4C4"/>
    <path d="M9.4599 13.8829C8.40156 13.9912 7.60156 14.8912 7.60156 15.9579V18.2412C7.60156 18.4662 7.7849 18.6496 8.0099 18.6496H11.9849C12.2099 18.6496 12.3932 18.4662 12.3932 18.2412V16.2496C12.4016 14.5079 11.3766 13.6829 9.4599 13.8829Z" fill="#C4C4C4"/>
    <path d="M17.8081 12.0001V14.4834C17.8081 16.7834 15.9414 18.6501 13.6414 18.6501C13.4164 18.6501 13.2331 18.4667 13.2331 18.2417V16.2501C13.2331 15.1834 12.9081 14.3501 12.2747 13.7834C11.7164 13.2751 10.9581 13.0251 10.0164 13.0251C9.80807 13.0251 9.59974 13.0334 9.37474 13.0584C7.89141 13.2084 6.76641 14.4584 6.76641 15.9584V18.2417C6.76641 18.4667 6.58307 18.6501 6.35807 18.6501C4.05807 18.6501 2.19141 16.7834 2.19141 14.4834V12.0167C2.19141 11.4334 2.76641 11.0417 3.30807 11.2334C3.53307 11.3084 3.75807 11.3667 3.99141 11.4001C4.09141 11.4167 4.19974 11.4334 4.29974 11.4334C4.43307 11.4501 4.56641 11.4584 4.69974 11.4584C5.66641 11.4584 6.61641 11.1001 7.36641 10.4834C8.08307 11.1001 9.01641 11.4584 9.99974 11.4584C10.9914 11.4584 11.9081 11.1167 12.6247 10.5001C13.3747 11.1084 14.3081 11.4584 15.2581 11.4584C15.4081 11.4584 15.5581 11.4501 15.6997 11.4334C15.7997 11.4251 15.8914 11.4167 15.9831 11.4001C16.2414 11.3667 16.4747 11.2917 16.7081 11.2167C17.2497 11.0334 17.8081 11.4334 17.8081 12.0001Z" fill="#C4C4C4"/>
</svg>
