<svg width="347" height="268" viewBox="0 0 347 268" fill="none" xmlns="http://www.w3.org/2000/svg">
<path d="M144.083 50.9931C129.763 -0.776045 65.2614 -17.4499 28.2979 21.2335C27.7644 21.7907 27.2394 22.3563 26.7059 22.9304C-26.2878 80.3644 -1.25593 221.902 109.347 257.774C219.949 293.646 334.989 228.141 341.45 169.584C347.911 111.027 296.891 92.6229 217.697 109.001C172.959 118.246 152.991 83.218 144.083 50.9931Z" fill="#267961" fill-opacity="0.12"/>
<path d="M328.651 197.661C340.31 194.183 350.707 188.749 345.719 184.311C340.731 179.866 323.018 189.563 313.961 202.225L309.85 205.794C316.613 196.679 319.77 182.818 315.09 179.628C310.432 176.459 309.17 185.875 309.45 194.674C309.661 201.37 308.272 205.801 307.339 207.974L287.913 224.843C298.583 210.379 303.543 188.497 296.135 183.449C288.748 178.422 286.742 193.363 287.191 207.322C287.527 217.867 285.346 224.878 283.872 228.356L280 231.721C280.477 232.486 280.961 233.243 281.445 234L304.553 213.934C307.107 213.569 310.748 213.429 315.392 214.235C324.07 215.743 333.576 215.806 331.085 210.758C328.925 206.376 318.086 206.656 308.749 210.295L316.739 203.354C319.573 201.629 323.621 199.161 328.651 197.661Z" fill="#59A64E"/>
<path d="M314.081 139.945C325.974 127.42 334.929 113.38 325.651 111.444C316.368 109.499 301.42 133.96 299.226 155.951L296.689 163.251C298.569 147.249 292.653 127.955 284.637 127.337C276.663 126.73 281.767 139.213 288.334 149.846C293.328 157.939 294.751 164.375 295.14 167.711L283.157 202.211C286.064 176.862 276.695 146.419 264.007 145.444C251.359 144.48 259.455 164.29 269.878 181.155C277.749 193.897 280.022 204.07 280.667 209.392L278.28 216.273C279.408 216.876 280.539 217.466 281.671 218.056L295.926 177.016C298.811 174.761 303.194 172.014 309.48 169.723C321.228 165.442 332.974 158.798 326.338 154.345C320.58 150.479 307.437 158.488 298.517 169.57L303.444 155.376C305.713 151.249 308.95 145.349 314.081 139.945Z" fill="#59A64E"/>
<path d="M287.792 195.533C287.792 195.533 292.986 175.597 289.508 165.84C286.029 156.084 275.139 148.865 275.578 142.736C276.015 136.608 283.006 120.042 277.306 107.71C277.306 107.71 275.14 118.711 273.004 121.158C270.867 123.605 256.202 133.474 258.803 146.506C261.402 159.538 275.658 162.584 279.169 166.421C282.68 170.258 287.421 170.252 287.45 172.804C287.48 175.356 288.405 184.631 286.831 193.783L287.792 195.533Z" fill="#3C8F7C"/>
<path d="M273.002 121.159C270.866 123.607 256.201 133.475 258.801 146.507C261.4 159.54 275.656 162.586 279.168 166.423C282.679 170.26 287.419 170.254 287.449 172.806C287.479 175.357 288.404 184.633 286.83 193.785L287.251 194.549C288.02 190.977 289.087 185.537 289.436 181.406C290.003 174.697 288.917 171.921 286.764 166.487C284.61 161.053 271.229 149.984 267.875 144.164C264.522 138.345 274.341 128.618 276.521 123.921C278.701 119.224 277.306 107.712 277.306 107.712C277.306 107.712 275.139 118.712 273.002 121.159Z" fill="#327F6B"/>
<path d="M86.0235 214.414C92.8376 217.598 90.9987 225.508 90.9987 225.508C90.9987 225.508 109.473 211.114 116.379 219.515C123.285 227.916 119.657 244.384 111.556 247.06C103.455 249.737 33.0015 247.862 33.0015 247.862C33.0015 247.862 79.8938 211.549 86.0235 214.414Z" fill="#96D9C9"/>
<path d="M33 247.79C33 247.79 63.7884 241.464 70.5043 235.303C77.2202 229.142 74.2476 226.74 74.2476 226.74C74.2476 226.74 86.0801 217.408 85.8956 211.314C85.7111 205.22 78.0028 208.312 78.0028 208.312C78.0028 208.312 91.0672 191.526 87.9681 188.334C82.1954 182.388 67.0899 199.835 67.0899 199.835C67.0899 199.835 71.5726 191.535 66.8429 190.217C59.7104 188.23 54.4644 208.7 54.4644 208.7C54.4644 208.7 55.7945 200.616 50.8788 201.688C42.0622 203.616 33 247.79 33 247.79Z" fill="#50BFA5"/>
<path d="M52.5809 94.1417L33.9314 248.179L36.5931 251.063L52.5675 187.184L52.5809 94.1417Z" fill="#428C38"/>
<path d="M54.8498 78.6636L36.593 251.063H76.8915L66.8816 75.1125L54.8498 78.6636Z" fill="#59A64E"/>
<path d="M49.0622 249.117H274.032C277.879 249.117 281.21 245.817 281.472 241.746L291.722 82.8017C291.943 79.3608 289.487 76.5708 286.235 76.5708H60.1894C56.9371 76.5708 54.1207 79.3608 53.8991 82.8017L43.5752 242.885C43.3536 246.327 45.8099 249.117 49.0622 249.117Z" fill="#EDD7BE"/>
<path d="M66.9128 75.6711L66.8816 75.1125L53.8083 76.2774L36.593 251.063H38.5152L56.772 78.6636L66.9128 75.6711Z" fill="#317D26"/>
<path d="M54.8171 97.1283L45.072 244.527C45.3681 248.128 48.5282 249.117 50.3552 249.117H79.5651L62.1326 83.8384L54.8171 97.1283Z" fill="#FEF8F8"/>
<path d="M78.1248 133.931H62.9434C60.7653 133.931 59.1644 132.091 59.3667 129.821L60.7757 113.999C60.978 111.729 62.9077 109.889 65.0843 109.889H80.2658C82.4439 109.889 84.0448 111.729 83.8424 113.999L82.4335 129.821C82.2326 132.091 80.303 133.931 78.1248 133.931Z" fill="#9BC1F9"/>
<path d="M110.849 133.931H95.6675C93.4893 133.931 91.8885 132.091 92.0908 129.821L93.4997 113.999C93.7021 111.729 95.6318 109.889 97.8084 109.889H112.99C115.168 109.889 116.769 111.729 116.567 113.999L115.158 129.821C114.957 132.091 113.027 133.931 110.849 133.931Z" fill="#9BC1F9"/>
<path d="M143.573 133.931H128.392C126.213 133.931 124.613 132.091 124.815 129.821L126.224 113.999C126.426 111.729 128.356 109.889 130.533 109.889H145.714C147.892 109.889 149.493 111.729 149.291 113.999L147.882 129.821C147.681 132.091 145.751 133.931 143.573 133.931Z" fill="#9BC1F9"/>
<path d="M176.297 133.931H161.116C158.937 133.931 157.337 132.091 157.539 129.821L158.948 113.999C159.15 111.729 161.08 109.889 163.257 109.889H178.438C180.616 109.889 182.217 111.729 182.015 113.999L180.606 129.821C180.405 132.091 178.475 133.931 176.297 133.931Z" fill="#9BC1F9"/>
<path d="M209.021 133.931H193.84C191.661 133.931 190.061 132.091 190.263 129.821L191.672 113.999C191.874 111.729 193.804 109.889 195.981 109.889H211.162C213.34 109.889 214.941 111.729 214.739 113.999L213.33 129.821C213.127 132.091 211.199 133.931 209.021 133.931Z" fill="#9BC1F9"/>
<path d="M241.745 133.931H226.564C224.386 133.931 222.785 132.091 222.987 129.821L224.396 113.999C224.598 111.729 226.528 109.889 228.705 109.889H243.886C246.064 109.889 247.665 111.729 247.463 113.999L246.054 129.821C245.852 132.091 243.923 133.931 241.745 133.931Z" fill="#59A64E"/>
<path d="M274.469 133.931H259.288C257.11 133.931 255.509 132.091 255.711 129.821L257.12 113.999C257.322 111.729 259.252 109.889 261.429 109.889H276.61C278.788 109.889 280.389 111.729 280.187 113.999L278.778 129.821C278.575 132.091 276.647 133.931 274.469 133.931Z" fill="#59A64E"/>
<path d="M74.9023 170.127H59.7209C57.5427 170.127 55.9419 168.288 56.1442 166.018L57.5532 150.195C57.7555 147.925 59.6852 146.086 61.8618 146.086H77.0433C79.2214 146.086 80.8223 147.925 80.6199 150.195L79.211 166.018C79.0086 168.288 77.0805 170.127 74.9023 170.127Z" fill="#9BC1F9"/>
<path d="M107.626 170.127H92.4449C90.2668 170.127 88.6659 168.288 88.8683 166.018L90.2772 150.195C90.4796 147.925 92.4092 146.086 94.5859 146.086H109.767C111.945 146.086 113.546 147.925 113.344 150.195L111.935 166.018C111.733 168.288 109.805 170.127 107.626 170.127Z" fill="#9BC1F9"/>
<path d="M140.351 170.127H125.169C122.991 170.127 121.39 168.288 121.592 166.018L123.001 150.195C123.204 147.925 125.133 146.086 127.31 146.086H142.492C144.67 146.086 146.271 147.925 146.068 150.195L144.659 166.018C144.457 168.288 142.527 170.127 140.351 170.127Z" fill="#9BC1F9"/>
<path d="M173.075 170.127H157.893C155.715 170.127 154.114 168.288 154.316 166.018L155.725 150.195C155.928 147.925 157.857 146.086 160.034 146.086H175.215C177.394 146.086 178.994 147.925 178.792 150.195L177.383 166.018C177.181 168.288 175.251 170.127 173.075 170.127Z" fill="#9BC1F9"/>
<path d="M205.799 170.127H190.617C188.439 170.127 186.838 168.288 187.04 166.018L188.449 150.195C188.652 147.925 190.581 146.086 192.758 146.086H207.94C210.118 146.086 211.719 147.925 211.516 150.195L210.107 166.018C209.905 168.288 207.975 170.127 205.799 170.127Z" fill="#9BC1F9"/>
<path d="M238.523 170.127H223.341C221.163 170.127 219.562 168.288 219.764 166.018L221.173 150.195C221.376 147.925 223.305 146.086 225.482 146.086H240.664C242.842 146.086 244.443 147.925 244.24 150.195L242.831 166.018C242.629 168.288 240.699 170.127 238.523 170.127Z" fill="#59A64E"/>
<path d="M271.247 170.127H256.065C253.887 170.127 252.286 168.288 252.489 166.018L253.898 150.195C254.1 147.925 256.03 146.086 258.206 146.086H273.388C275.566 146.086 277.167 147.925 276.964 150.195L275.555 166.018C275.353 168.288 273.423 170.127 271.247 170.127Z" fill="#59A64E"/>
<path d="M71.6797 206.324H56.4982C54.3201 206.324 52.7192 204.484 52.9215 202.214L54.3305 186.392C54.5328 184.122 56.4625 182.282 58.6391 182.282H73.8206C75.9987 182.282 77.5996 184.122 77.3973 186.392L75.9883 202.214C75.786 204.484 73.8563 206.324 71.6797 206.324Z" fill="#E6ECE0"/>
<path d="M104.402 206.324H89.2208C87.0427 206.324 85.4418 204.484 85.6441 202.214L87.0531 186.392C87.2554 184.122 89.1851 182.282 91.3617 182.282H106.543C108.721 182.282 110.322 184.122 110.12 186.392L108.711 202.214C108.51 204.484 106.58 206.324 104.402 206.324Z" fill="#9BC1F9"/>
<path d="M137.126 206.324H121.945C119.767 206.324 118.166 204.484 118.368 202.214L119.777 186.392C119.98 184.122 121.909 182.282 124.086 182.282H139.267C141.445 182.282 143.046 184.122 142.844 186.392L141.435 202.214C141.234 204.484 139.305 206.324 137.126 206.324Z" fill="#9BC1F9"/>
<path d="M169.85 206.324H154.669C152.491 206.324 150.89 204.484 151.092 202.214L152.501 186.392C152.704 184.122 154.633 182.282 156.81 182.282H171.991C174.169 182.282 175.77 184.122 175.568 186.392L174.159 202.214C173.958 204.484 172.029 206.324 169.85 206.324Z" fill="#9BC1F9"/>
<path d="M202.575 206.324H187.393C185.215 206.324 183.614 204.484 183.816 202.214L185.225 186.392C185.428 184.122 187.357 182.282 189.534 182.282H204.716C206.894 182.282 208.495 184.122 208.292 186.392L206.883 202.214C206.682 204.484 204.753 206.324 202.575 206.324Z" fill="#9BC1F9"/>
<path d="M235.299 206.324H220.117C217.939 206.324 216.338 204.484 216.54 202.214L217.949 186.392C218.152 184.122 220.081 182.282 222.258 182.282H237.439C239.618 182.282 241.218 184.122 241.016 186.392L239.607 202.214C239.406 204.484 237.477 206.324 235.299 206.324Z" fill="#59A64E"/>
<path d="M268.023 206.324H252.841C250.663 206.324 249.062 204.484 249.265 202.214L250.674 186.392C250.876 184.122 252.806 182.282 254.982 182.282H270.164C272.342 182.282 273.943 184.122 273.74 186.392L272.331 202.214C272.131 204.484 270.201 206.324 268.023 206.324Z" fill="#59A64E"/>
<path d="M68.4557 242.522H53.2742C51.0961 242.522 49.4952 240.682 49.6975 238.412L51.1065 222.59C51.3088 220.32 53.2385 218.48 55.4152 218.48H70.5966C72.7748 218.48 74.3756 220.32 74.1733 222.59L72.7643 238.412C72.5635 240.681 70.6338 242.522 68.4557 242.522Z" fill="#E6ECE0"/>
<path d="M101.18 242.522H85.9983C83.8202 242.522 82.2193 240.682 82.4217 238.412L83.8306 222.59C84.033 220.32 85.9626 218.48 88.1393 218.48H103.321C105.499 218.48 107.1 220.32 106.897 222.59L105.489 238.412C105.288 240.681 103.358 242.522 101.18 242.522Z" fill="#9BC1F9"/>
<path d="M133.904 242.522H118.722C116.544 242.522 114.943 240.682 115.146 238.412L116.555 222.59C116.757 220.32 118.687 218.48 120.863 218.48H136.045C138.223 218.48 139.824 220.32 139.621 222.59L138.212 238.412C138.012 240.681 136.082 242.522 133.904 242.522Z" fill="#9BC1F9"/>
<path d="M166.628 242.522H151.446C149.268 242.522 147.667 240.682 147.87 238.412L149.279 222.59C149.481 220.32 151.411 218.48 153.587 218.48H168.769C170.947 218.48 172.548 220.32 172.345 222.59L170.937 238.412C170.736 240.681 168.806 242.522 166.628 242.522Z" fill="#9BC1F9"/>
<path d="M199.352 242.522H184.17C181.992 242.522 180.391 240.682 180.594 238.412L182.003 222.59C182.205 220.32 184.135 218.48 186.311 218.48H201.493C203.671 218.48 205.272 220.32 205.07 222.59L203.661 238.412C203.46 240.681 201.53 242.522 199.352 242.522Z" fill="#9BC1F9"/>
<path d="M290.176 253.994H65.2064C61.359 253.994 58.1676 250.817 58.0784 246.9L54.5672 93.9093C54.4913 90.5965 57.0652 87.9108 60.3175 87.9108H286.364C289.617 87.9108 292.314 90.5965 292.39 93.9093L295.926 247.997C296.004 251.309 293.428 253.994 290.176 253.994Z" fill="#E0C8A9"/>
<path d="M291.789 254.1H66.8176C62.9701 254.1 59.7788 250.923 59.6895 247.005L56.1783 94.0151C56.1025 90.7023 58.6763 88.0166 61.9287 88.0166H287.975C291.228 88.0166 293.925 90.7023 294.001 94.0151L297.537 248.103C297.615 251.414 295.039 254.1 291.789 254.1Z" fill="#FEF8F8"/>
<path d="M276.762 64.8494H66.77C59.0618 64.8494 53.24 71.0341 53.7652 78.6636L55.1771 99.1317H293.083L291.671 78.6636C291.144 71.0341 284.47 64.8494 276.762 64.8494Z" fill="#428C38"/>
<path d="M277.847 64.8494H67.8532C60.1449 64.8494 54.3232 71.0341 54.8483 78.6636L56.2603 99.1317H294.166L292.754 78.6636C292.229 71.0341 285.555 64.8494 277.847 64.8494Z" fill="#59A64E"/>
<path d="M85.5133 136.791H70.3318C68.1537 136.791 66.3281 134.971 66.2552 132.724L65.739 117.069C65.6646 114.823 67.3711 113.003 69.5477 113.003H84.7292C86.9074 113.003 88.7329 114.823 88.8058 117.069L89.322 132.724C89.3964 134.971 87.6914 136.791 85.5133 136.791Z" fill="#59A64E" fill-opacity="0.14"/>
<path d="M118.237 136.791H103.056C100.878 136.791 99.0521 134.971 98.9792 132.724L98.463 117.069C98.3886 114.823 100.095 113.003 102.272 113.003H117.453C119.631 113.003 121.457 114.823 121.53 117.069L122.046 132.724C122.12 134.971 120.414 136.791 118.237 136.791Z" fill="#59A64E" fill-opacity="0.14"/>
<path d="M150.961 136.791H135.78C133.602 136.791 131.776 134.971 131.703 132.724L131.187 117.069C131.113 114.823 132.819 113.003 134.996 113.003H150.177C152.356 113.003 154.181 114.823 154.254 117.069L154.77 132.724C154.845 134.971 153.138 136.791 150.961 136.791Z" fill="#59A64E" fill-opacity="0.14"/>
<path d="M183.685 136.791H168.504C166.326 136.791 164.5 134.971 164.427 132.724L163.911 117.069C163.837 114.823 165.543 113.003 167.72 113.003H182.901C185.08 113.003 186.905 114.823 186.978 117.069L187.493 132.724C187.569 134.971 185.862 136.791 183.685 136.791Z" fill="#59A64E"/>
<path d="M216.409 136.791H201.228C199.05 136.791 197.224 134.971 197.151 132.724L196.635 117.069C196.561 114.823 198.267 113.003 200.444 113.003H215.625C217.804 113.003 219.629 114.823 219.702 117.069L220.217 132.724C220.293 134.971 218.586 136.791 216.409 136.791Z" fill="#59A64E" fill-opacity="0.14"/>
<path d="M249.134 136.791H233.952C231.774 136.791 229.948 134.971 229.876 132.724L229.361 117.069C229.286 114.823 230.993 113.003 233.169 113.003H248.351C250.529 113.003 252.355 114.823 252.428 117.069L252.944 132.724C253.017 134.971 251.31 136.791 249.134 136.791Z" fill="#59A64E" fill-opacity="0.14"/>
<path d="M281.856 136.791H266.676C264.498 136.791 262.673 134.971 262.6 132.724L262.085 117.069C262.01 114.823 263.717 113.003 265.894 113.003H281.075C283.253 113.003 285.079 114.823 285.152 117.069L285.668 132.724C285.741 134.971 284.034 136.791 281.856 136.791Z" fill="#59A64E" fill-opacity="0.14"/>
<path d="M86.693 172.607H71.5116C69.3334 172.607 67.5079 170.787 67.435 168.541L66.9187 152.886C66.8443 150.639 68.5508 148.819 70.7275 148.819H85.909C88.0871 148.819 89.9126 150.639 89.9855 152.886L90.5018 168.541C90.5762 170.786 88.8697 172.607 86.693 172.607Z" fill="#59A64E" fill-opacity="0.14"/>
<path d="M119.417 172.607H104.236C102.058 172.607 100.232 170.787 100.159 168.541L99.6428 152.886C99.5685 150.639 101.275 148.819 103.452 148.819H118.633C120.811 148.819 122.637 150.639 122.71 152.886L123.226 168.541C123.3 170.786 121.594 172.607 119.417 172.607Z" fill="#59A64E" fill-opacity="0.14"/>
<path d="M152.14 172.607H136.958C134.78 172.607 132.955 170.787 132.882 168.541L132.365 152.886C132.291 150.639 133.998 148.819 136.174 148.819H151.356C153.534 148.819 155.359 150.639 155.432 152.886L155.948 168.541C156.024 170.786 154.318 172.607 152.14 172.607Z" fill="#59A64E" fill-opacity="0.14"/>
<path d="M184.864 172.607H169.682C167.504 172.607 165.679 170.787 165.606 168.541L165.09 152.886C165.015 150.639 166.722 148.819 168.898 148.819H184.08C186.258 148.819 188.083 150.639 188.156 152.886L188.673 168.541C188.748 170.786 187.042 172.607 184.864 172.607Z" fill="#59A64E" fill-opacity="0.14"/>
<path d="M217.588 172.607H202.406C200.228 172.607 198.403 170.787 198.33 168.541L197.815 152.886C197.741 150.639 199.447 148.819 201.624 148.819H216.805C218.983 148.819 220.809 150.639 220.882 152.886L221.398 168.541C221.471 170.786 219.766 172.607 217.588 172.607Z" fill="#59A64E" fill-opacity="0.14"/>
<path d="M250.312 172.607H235.13C232.952 172.607 231.127 170.787 231.054 168.541L230.538 152.886C230.463 150.639 232.17 148.819 234.346 148.819H249.528C251.706 148.819 253.532 150.639 253.604 152.886L254.121 168.541C254.195 170.786 252.49 172.607 250.312 172.607Z" fill="#59A64E" fill-opacity="0.14"/>
<path d="M283.036 172.607H267.855C265.676 172.607 263.851 170.787 263.778 168.541L263.262 152.886C263.187 150.639 264.894 148.819 267.07 148.819H282.253C284.432 148.819 286.257 150.639 286.33 152.886L286.845 168.541C286.919 170.786 285.214 172.607 283.036 172.607Z" fill="#59A64E" fill-opacity="0.14"/>
<path d="M87.8714 208.423H72.69C70.5118 208.423 68.6863 206.602 68.6134 204.356L68.0971 188.701C68.0227 186.454 69.7292 184.634 71.9059 184.634H87.0874C89.2655 184.634 91.091 186.454 91.1639 188.701L91.6802 204.356C91.7546 206.602 90.0496 208.423 87.8714 208.423Z" fill="#59A64E" fill-opacity="0.14"/>
<path d="M120.596 208.423H105.414C103.236 208.423 101.41 206.602 101.338 204.356L100.821 188.701C100.747 186.454 102.453 184.634 104.63 184.634H119.811C121.99 184.634 123.815 186.454 123.888 188.701L124.404 204.356C124.479 206.602 122.774 208.423 120.596 208.423Z" fill="#59A64E" fill-opacity="0.14"/>
<path d="M153.32 208.423H138.138C135.96 208.423 134.134 206.602 134.062 204.356L133.545 188.701C133.471 186.454 135.177 184.634 137.354 184.634H152.535C154.714 184.634 156.539 186.454 156.612 188.701L157.128 204.356C157.203 206.602 155.498 208.423 153.32 208.423Z" fill="#59A64E" fill-opacity="0.14"/>
<path d="M186.044 208.423H170.862C168.684 208.423 166.858 206.602 166.786 204.356L166.271 188.701C166.196 186.454 167.903 184.634 170.08 184.634H185.261C187.439 184.634 189.265 186.454 189.338 188.701L189.854 204.356C189.927 206.602 188.222 208.423 186.044 208.423Z" fill="#59A64E" fill-opacity="0.14"/>
<path d="M218.768 208.423H203.586C201.408 208.423 199.583 206.602 199.51 204.356L198.993 188.701C198.919 186.454 200.626 184.634 202.802 184.634H217.984C220.162 184.634 221.987 186.454 222.06 188.701L222.576 204.356C222.651 206.602 220.946 208.423 218.768 208.423Z" fill="#59A64E" fill-opacity="0.14"/>
<path d="M251.492 208.423H236.31C234.132 208.423 232.307 206.602 232.234 204.356L231.717 188.701C231.643 186.454 233.35 184.634 235.526 184.634H250.708C252.886 184.634 254.711 186.454 254.784 188.701L255.299 204.356C255.375 206.602 253.67 208.423 251.492 208.423Z" fill="#59A64E" fill-opacity="0.14"/>
<path d="M284.216 208.423H269.034C266.856 208.423 265.031 206.602 264.958 204.356L264.441 188.701C264.367 186.454 266.074 184.634 268.25 184.634H283.432C285.61 184.634 287.435 186.454 287.508 188.701L288.023 204.356C288.099 206.602 286.394 208.423 284.216 208.423Z" fill="#59A64E" fill-opacity="0.14"/>
<path d="M89.0512 244.238H73.8698C71.6916 244.238 69.8661 242.417 69.7932 240.171L69.2769 224.516C69.2025 222.27 70.909 220.449 73.0857 220.449H88.2672C90.4453 220.449 92.2708 222.27 92.3437 224.516L92.86 240.171C92.9344 242.417 91.2294 244.238 89.0512 244.238Z" fill="#59A64E" fill-opacity="0.14"/>
<path d="M121.775 244.238H106.594C104.416 244.238 102.59 242.417 102.517 240.171L102.001 224.516C101.927 222.27 103.633 220.449 105.81 220.449H120.991C123.169 220.449 124.995 222.27 125.068 224.516L125.584 240.171C125.659 242.417 123.954 244.238 121.775 244.238Z" fill="#59A64E" fill-opacity="0.14"/>
<path d="M154.499 244.238H139.318C137.14 244.238 135.314 242.417 135.241 240.171L134.725 224.516C134.651 222.27 136.357 220.449 138.534 220.449H153.715C155.893 220.449 157.719 222.27 157.792 224.516L158.308 240.171C158.383 242.417 156.678 244.238 154.499 244.238Z" fill="#59A64E" fill-opacity="0.14"/>
<path d="M187.224 244.238H172.042C169.864 244.238 168.038 242.417 167.966 240.171L167.449 224.516C167.375 222.27 169.081 220.449 171.258 220.449H186.439C188.618 220.449 190.443 222.27 190.516 224.516L191.031 240.171C191.107 242.417 189.402 244.238 187.224 244.238Z" fill="#59A64E" fill-opacity="0.14"/>
<path d="M219.948 244.238H204.766C202.588 244.238 200.762 242.417 200.69 240.171L200.173 224.516C200.099 222.27 201.805 220.449 203.982 220.449H219.163C221.342 220.449 223.167 222.27 223.24 224.516L223.755 240.171C223.831 242.417 222.126 244.238 219.948 244.238Z" fill="#59A64E" fill-opacity="0.14"/>
<path d="M68.6253 89.1517C68.9541 89.3438 69.4257 89.5032 69.9092 89.5032C70.6278 89.5032 71.0221 89.1278 70.9849 88.5841C70.9507 88.0807 70.6397 87.7917 69.8854 87.5131C68.9749 87.2018 68.3947 86.746 68.3426 85.9863C68.2846 85.1462 68.9451 84.5221 70.003 84.5221C70.5609 84.5221 70.973 84.6502 71.2244 84.7857L71.0697 85.3533C70.8852 85.2579 70.5103 85.097 70.0178 85.097C69.2739 85.097 69.0225 85.5365 69.0478 85.9044C69.082 86.4079 69.4302 86.6566 70.2023 86.9441C71.147 87.2957 71.6469 87.7351 71.7005 88.5275C71.7585 89.3587 71.1857 90.0796 69.9003 90.0796C69.3751 90.0796 68.7904 89.9277 68.4869 89.7356L68.6253 89.1517Z" fill="white"/>
<path d="M75.9377 88.9446C75.966 89.3438 75.9972 89.6968 76.0433 90.0007H75.4125L75.3292 89.3691H75.3128C75.1492 89.6805 74.7638 90.0886 74.069 90.0886C73.4545 90.0886 72.6958 89.7534 72.602 88.3935L72.4458 86.1308H73.157L73.3043 88.2743C73.3549 89.0102 73.6152 89.5062 74.2624 89.5062C74.74 89.5062 75.048 89.1785 75.1551 88.8657C75.1878 88.7614 75.2042 88.6333 75.1953 88.5052L75.0316 86.1293H75.7428L75.9377 88.9446Z" fill="white"/>
<path d="M76.9955 87.1765C76.9687 86.7773 76.9375 86.4481 76.8914 86.1293H77.5222L77.607 86.7698H77.6234C77.7915 86.4019 78.22 86.0414 78.8657 86.0414C79.4072 86.0414 80.2687 86.3617 80.3609 87.6889L80.5201 90.0007H79.8089L79.6557 87.7693C79.6126 87.1452 79.3418 86.6254 78.6723 86.6254C78.2036 86.6254 77.8629 86.9531 77.7692 87.3448C77.7424 87.4327 77.7349 87.5534 77.7439 87.6725L77.9046 89.9992H77.1934L76.9955 87.1765Z" fill="white"/>
<path d="M106.27 87.1765C106.256 87.1318 106.231 87.0096 106.192 86.81C106.159 86.6432 106.131 86.5062 106.109 86.396C106.094 86.5255 106.07 86.6566 106.036 86.7862C106.002 86.9158 105.956 87.0499 105.899 87.1839L104.599 90.2301L102.873 87.1214C102.801 86.9933 102.738 86.8696 102.684 86.7505C102.63 86.6313 102.581 86.5121 102.54 86.3945C102.546 86.5136 102.544 86.6402 102.535 86.7713C102.528 86.9024 102.511 87.0394 102.486 87.1839L102.061 89.9992H101.196L102.15 84.041L104.103 87.6487C104.133 87.7053 104.181 87.8006 104.243 87.9332C104.306 88.0658 104.383 88.2296 104.472 88.4247C104.515 88.2609 104.588 88.0523 104.69 87.8006C104.716 87.7336 104.737 87.6814 104.749 87.6442L106.165 84.0395L107.973 89.9977H107.101L106.27 87.1765Z" fill="white"/>
<path d="M108.251 88.1536C108.232 87.8825 108.266 87.6278 108.354 87.3865C108.442 87.1452 108.576 86.9322 108.757 86.7445C108.937 86.5598 109.147 86.4183 109.391 86.3185C109.633 86.2202 109.892 86.1695 110.166 86.1695C110.447 86.1695 110.715 86.2187 110.971 86.3185C111.227 86.4168 111.459 86.5628 111.67 86.7564C111.88 86.9471 112.045 87.1616 112.164 87.4014C112.283 87.6412 112.352 87.8915 112.369 88.1551C112.389 88.4277 112.356 88.6854 112.271 88.9237C112.186 89.1636 112.053 89.3751 111.871 89.5598C111.679 89.7549 111.462 89.9024 111.219 90.0037C110.977 90.1035 110.716 90.1541 110.441 90.1541C110.17 90.1541 109.907 90.1035 109.65 90.0037C109.392 89.9039 109.16 89.7579 108.953 89.5687C108.742 89.3766 108.579 89.1606 108.46 88.9208C108.338 88.6795 108.269 88.4232 108.251 88.1536ZM111.466 88.1611C111.443 87.817 111.31 87.5265 111.071 87.2882C110.831 87.0499 110.548 86.9307 110.226 86.9307C109.904 86.9307 109.639 87.0499 109.431 87.2882C109.223 87.5265 109.131 87.817 109.154 88.1611C109.178 88.5052 109.311 88.7956 109.552 89.034C109.793 89.2723 110.074 89.3915 110.395 89.3915C110.716 89.3915 110.98 89.2723 111.19 89.034C111.398 88.7956 111.49 88.5037 111.466 88.1611Z" fill="white"/>
<path d="M113.403 89.9992L113.148 86.2976H113.952L113.994 86.9024C114.147 86.6477 114.336 86.4615 114.559 86.3438C114.783 86.2261 115.059 86.168 115.391 86.168C115.669 86.168 115.91 86.2112 116.113 86.2991C116.315 86.387 116.477 86.5151 116.599 86.6879C116.672 86.7892 116.727 86.9083 116.766 87.0439C116.805 87.1794 116.834 87.4163 116.858 87.7544L117.013 89.9992H116.148L116.017 88.097C115.983 87.6099 115.901 87.2867 115.771 87.1273C115.64 86.9679 115.422 86.8875 115.117 86.8875C114.918 86.8875 114.742 86.9247 114.591 86.9962C114.439 87.0692 114.323 87.172 114.243 87.3046C114.186 87.3924 114.149 87.5071 114.134 87.6457C114.119 87.7857 114.122 88.0061 114.143 88.3115L114.259 89.9977H113.403V89.9992Z" fill="white"/>
<path d="M136.207 85.0717L136.546 89.9992H135.607L135.268 85.0717H133.734L133.679 84.2823H137.68L137.735 85.0717H136.207Z" fill="white"/>
<path d="M138.48 86.2976L138.624 88.383C138.65 88.742 138.742 88.9997 138.903 89.1561C139.063 89.3125 139.312 89.39 139.648 89.39C139.984 89.39 140.222 89.3125 140.362 89.1561C140.502 88.9997 140.559 88.742 140.533 88.383L140.389 86.2976H141.245L141.371 88.1283C141.42 88.8359 141.311 89.3498 141.047 89.67C140.782 89.9903 140.335 90.1497 139.706 90.1497C139.066 90.1497 138.593 89.9903 138.285 89.673C137.977 89.3557 137.799 88.8403 137.748 88.1268L137.622 86.2961H138.48V86.2976Z" fill="white"/>
<path d="M146.139 88.2743H143.149C143.194 88.6199 143.317 88.891 143.516 89.0846C143.716 89.2782 143.972 89.3751 144.283 89.3751C144.559 89.3751 144.785 89.3185 144.961 89.2038C145.137 89.0891 145.285 88.9044 145.404 88.6497L146.154 89.0474C145.97 89.4198 145.729 89.6968 145.431 89.8785C145.134 90.0603 144.775 90.1526 144.357 90.1526C143.757 90.1526 143.268 89.9724 142.887 89.6104C142.508 89.2484 142.296 88.7658 142.255 88.1611C142.215 87.5801 142.365 87.1035 142.707 86.7296C143.048 86.3557 143.506 86.1695 144.083 86.1695C144.686 86.1695 145.166 86.3393 145.526 86.6804C145.886 87.0216 146.087 87.4997 146.13 88.1134L146.139 88.2743ZM145.212 87.7038C145.16 87.4386 145.043 87.2361 144.863 87.096C144.683 86.9575 144.443 86.8875 144.146 86.8875C143.865 86.8875 143.643 86.956 143.481 87.0901C143.319 87.2256 143.213 87.4297 143.164 87.7038H145.212Z" fill="white"/>
<path d="M166.525 84.2848H167.452L168.743 87.1701C168.828 87.3608 168.898 87.5261 168.958 87.6706C169.016 87.8136 169.068 87.9477 169.114 88.0728C169.185 87.7704 169.261 87.4755 169.34 87.1865C169.35 87.1508 169.358 87.1254 169.362 87.112L170.312 84.0584L171.749 87.1701C171.817 87.3206 171.883 87.4725 171.944 87.6229C172.006 87.7734 172.064 87.9268 172.119 88.0802C172.137 87.9626 172.164 87.8345 172.2 87.6944C172.235 87.5544 172.281 87.3876 172.339 87.1939L173.223 84.2848H174.159L172.332 90.2237L170.789 86.9631C170.721 86.8171 170.66 86.6771 170.603 86.543C170.547 86.4089 170.496 86.2823 170.45 86.1617C170.416 86.3151 170.382 86.4596 170.346 86.5937C170.31 86.7277 170.273 86.8558 170.234 86.978L169.164 90.2222L166.525 84.2848Z" fill="white"/>
<path d="M178.161 88.2743H175.171C175.215 88.6199 175.339 88.891 175.538 89.0846C175.738 89.2783 175.993 89.3751 176.304 89.3751C176.581 89.3751 176.807 89.3185 176.983 89.2038C177.158 89.0891 177.307 88.9044 177.426 88.6497L178.176 89.0474C177.992 89.4198 177.751 89.6968 177.453 89.8786C177.155 90.0603 176.797 90.1526 176.379 90.1526C175.779 90.1526 175.29 89.9724 174.909 89.6104C174.529 89.2485 174.318 88.7659 174.277 88.1611C174.236 87.5802 174.387 87.1035 174.729 86.7296C175.07 86.3558 175.529 86.1696 176.105 86.1696C176.708 86.1696 177.188 86.3394 177.548 86.6805C177.908 87.0216 178.109 87.4997 178.152 88.1134L178.161 88.2743ZM177.234 87.7038C177.182 87.4387 177.066 87.2361 176.885 87.0961C176.705 86.9575 176.465 86.8875 176.168 86.8875C175.886 86.8875 175.665 86.956 175.502 87.0901C175.34 87.2257 175.235 87.4297 175.186 87.7038H177.234Z" fill="white"/>
<path d="M181.418 83.9471H182.273L182.69 89.9992H181.835L181.802 89.5196C181.663 89.7326 181.497 89.892 181.3 89.9962C181.104 90.1005 180.873 90.1526 180.612 90.1526C180.083 90.1526 179.655 89.9739 179.326 89.6164C178.997 89.2589 178.811 88.7688 178.77 88.1462C178.729 87.5548 178.851 87.0782 179.136 86.7147C179.421 86.3513 179.814 86.1695 180.312 86.1695C180.617 86.1695 180.882 86.2321 181.108 86.3587C181.335 86.4853 181.504 86.6671 181.622 86.9039L181.418 83.9471ZM181.73 88.1373C181.704 87.7544 181.593 87.4565 181.399 87.2435C181.204 87.0305 180.945 86.9233 180.62 86.9233C180.298 86.9233 180.051 87.0335 179.88 87.2539C179.71 87.4744 179.637 87.7798 179.664 88.17C179.691 88.5633 179.801 88.8671 179.994 89.0801C180.188 89.2932 180.448 89.4004 180.774 89.4004C181.083 89.4004 181.327 89.2857 181.503 89.0548C181.681 88.8225 181.757 88.5171 181.73 88.1373Z" fill="white"/>
<path d="M202.058 85.0717L202.398 89.9992H201.459L201.12 85.0717H199.586L199.531 84.2823H203.531L203.586 85.0717H202.058Z" fill="white"/>
<path d="M204.571 89.9992L204.153 83.9471H204.958L205.162 86.9024C205.315 86.6477 205.504 86.4615 205.727 86.3438C205.95 86.2261 206.227 86.168 206.559 86.168C206.837 86.168 207.078 86.2112 207.28 86.2991C207.483 86.387 207.645 86.5151 207.767 86.6879C207.84 86.7892 207.895 86.9084 207.934 87.0439C207.972 87.1795 208.002 87.4163 208.026 87.7544L208.181 89.9992H207.316L207.185 88.097C207.151 87.6099 207.069 87.2867 206.938 87.1273C206.807 86.9679 206.59 86.8875 206.285 86.8875C206.086 86.8875 205.91 86.9247 205.758 86.9962C205.607 87.0692 205.491 87.172 205.41 87.3046C205.354 87.3925 205.317 87.5072 205.302 87.6457C205.287 87.7857 205.29 88.0062 205.311 88.3115L205.427 89.9977H204.571V89.9992Z" fill="white"/>
<path d="M209.894 86.2976L210.039 88.383C210.064 88.742 210.156 88.9997 210.317 89.1561C210.478 89.3125 210.726 89.39 211.062 89.39C211.399 89.39 211.637 89.3125 211.776 89.1561C211.916 88.9997 211.973 88.742 211.948 88.383L211.803 86.2976H212.659L212.785 88.1283C212.834 88.8359 212.726 89.3498 212.461 89.67C212.196 89.9903 211.75 90.1497 211.122 90.1497C210.482 90.1497 210.009 89.9903 209.701 89.673C209.393 89.3557 209.213 88.8403 209.164 88.1268L209.037 86.2962H209.894V86.2976Z" fill="white"/>
<path d="M233.457 90.0003L233.062 84.2834H236.285L236.34 85.0728H234.056L234.154 86.4983H236.438L236.495 87.3146H234.211L234.397 90.0018H233.457V90.0003Z" fill="white"/>
<path d="M238.127 86.8875C238.201 86.6432 238.311 86.4615 238.454 86.3453C238.597 86.2276 238.78 86.1696 239.005 86.1696C239.125 86.1696 239.246 86.1844 239.365 86.2127C239.484 86.2411 239.601 86.2828 239.719 86.3379L239.461 87.0558C239.384 87.0037 239.302 86.965 239.214 86.9411C239.128 86.9158 239.031 86.9039 238.926 86.9039C238.642 86.9039 238.445 87.0171 238.338 87.242C238.229 87.467 238.194 87.8453 238.231 88.3756L238.343 90.0007H237.487L237.231 86.2917H238.087L238.127 86.8875Z" fill="white"/>
<path d="M240.019 84.6979C240.009 84.5549 240.055 84.4312 240.153 84.327C240.253 84.2227 240.376 84.1706 240.524 84.1706C240.677 84.1706 240.806 84.2212 240.915 84.321C241.024 84.4208 241.083 84.5474 241.093 84.6979C241.104 84.8483 241.062 84.9764 240.965 85.0792C240.87 85.182 240.747 85.2341 240.598 85.2341C240.451 85.2341 240.32 85.182 240.207 85.0762C240.091 84.969 240.028 84.8424 240.019 84.6979ZM240.498 89.9992L240.242 86.2977H241.098L241.354 89.9992H240.498Z" fill="white"/>
<path d="M265.972 88.8552L266.699 88.5111C266.786 88.7658 266.931 88.961 267.13 89.095C267.328 89.2291 267.575 89.2961 267.869 89.2961C268.148 89.2961 268.365 89.2187 268.518 89.0652C268.671 88.9118 268.74 88.7062 268.722 88.4486C268.698 88.1134 268.396 87.814 267.816 87.5503C267.734 87.5116 267.672 87.4833 267.628 87.464C266.971 87.1571 266.527 86.8786 266.298 86.6298C266.069 86.381 265.943 86.0772 265.917 85.7182C265.885 85.252 266.019 84.8751 266.319 84.5861C266.618 84.2971 267.027 84.1526 267.545 84.1526C267.971 84.1526 268.334 84.2346 268.631 84.3969C268.929 84.5593 269.143 84.7932 269.275 85.0985L268.567 85.4739C268.439 85.2937 268.302 85.1626 268.16 85.0792C268.015 84.9957 267.855 84.954 267.676 84.954C267.423 84.954 267.227 85.0196 267.088 85.1492C266.948 85.2788 266.886 85.453 266.901 85.672C266.925 86.0161 267.273 86.3363 267.945 86.6328C267.997 86.6566 268.037 86.6745 268.067 86.6879C268.656 86.9486 269.066 87.2033 269.295 87.452C269.525 87.7008 269.653 88.0106 269.679 88.383C269.716 88.9237 269.573 89.3542 269.25 89.673C268.927 89.9917 268.473 90.1511 267.887 90.1511C267.395 90.1511 266.984 90.0394 266.655 89.816C266.327 89.5925 266.099 89.2723 265.972 88.8552Z" fill="white"/>
<path d="M274.265 89.9992H273.41L273.377 89.5196C273.239 89.7326 273.072 89.892 272.876 89.9962C272.679 90.1005 272.449 90.1526 272.187 90.1526C271.659 90.1526 271.23 89.9739 270.901 89.6164C270.573 89.2589 270.387 88.7688 270.345 88.1462C270.305 87.5548 270.427 87.0782 270.711 86.7147C270.997 86.3513 271.39 86.1695 271.888 86.1695C272.193 86.1695 272.458 86.2321 272.684 86.3587C272.91 86.4853 273.081 86.6671 273.197 86.9039L273.156 86.2991H274.011L274.265 89.9992ZM273.304 88.1373C273.278 87.7544 273.167 87.4565 272.973 87.2435C272.778 87.0305 272.519 86.9233 272.194 86.9233C271.872 86.9233 271.625 87.0335 271.453 87.2539C271.284 87.4744 271.211 87.7798 271.238 88.17C271.265 88.5633 271.375 88.8671 271.568 89.0801C271.761 89.2932 272.022 89.4004 272.348 89.4004C272.656 89.4004 272.898 89.2842 273.075 89.0533C273.255 88.8195 273.33 88.5141 273.304 88.1373Z" fill="white"/>
<path d="M275.649 89.9992L275.445 87.0394H274.791L274.74 86.2976H275.395L275.298 84.8959H276.153L276.25 86.2976H276.905L276.955 87.0394H276.301L276.505 89.9992H275.649Z" fill="white"/>
<path d="M187.202 128.192C186.736 130.452 185.687 132.854 183.459 134.457C180.636 136.49 176.44 136.517 173.255 134.522L173.218 134.5C171.909 133.724 167.806 130.742 169.981 124.922L171.167 125.364C169.385 130.131 172.46 132.58 173.864 133.413C173.892 133.43 173.914 133.442 173.927 133.45C176.687 135.178 180.302 135.171 182.718 133.431C186.407 130.775 186.391 125.424 186.213 123.246C186.138 122.327 186 121.27 185.542 120.39C184.563 118.508 182.176 116.725 179.739 116.055C177.309 115.387 175.11 115.14 173.202 115.322C171.029 115.53 168.962 116.749 167.936 118.43C167.854 118.563 167.771 118.697 167.689 118.831C166.547 120.684 165.56 122.286 165.858 125.135L164.599 125.267C164.255 121.99 165.452 120.047 166.611 118.169C166.691 118.038 166.773 117.906 166.854 117.773C168.081 115.765 170.525 114.308 173.08 114.064C175.142 113.867 177.494 114.126 180.074 114.835C182.4 115.475 185.339 117.26 186.664 119.806C187.226 120.885 187.388 122.098 187.474 123.142C187.569 124.271 187.618 126.175 187.202 128.192Z" fill="#F3BE57"/>
<path d="M264.212 77.1636C266.305 77.1636 268 75.1369 268 72.6369C268 70.1368 266.305 68.1101 264.212 68.1101C262.12 68.1101 260.425 70.1368 260.425 72.6369C260.425 75.1369 262.12 77.1636 264.212 77.1636Z" fill="#34782A"/>
<path d="M248.173 38C237.145 38 228.174 47.8371 228.174 59.9294C228.174 61.62 228.352 63.266 228.685 64.8479H231.755C231.375 63.2779 231.169 61.6305 231.169 59.9294C231.169 49.4905 238.796 40.9985 248.174 40.9985C257.55 40.9985 265.18 49.4905 265.18 59.9294C265.18 65.259 263.19 70.0822 259.996 73.5246C259.426 74.1383 259.487 75.1021 260.12 75.6502C260.127 75.6562 260.134 75.6636 260.142 75.6696C260.743 76.1865 261.648 76.1403 262.188 75.5594C265.88 71.5778 268.173 66.0411 268.173 59.9279C268.172 47.8371 259.2 38 248.173 38Z" fill="#184655"/>
<path d="M260.424 72.7694C260.424 72.7694 260.607 75.3657 262.435 76.6333C264.262 77.901 259.899 78.5668 259.678 78.3449C259.456 78.1229 257.435 76.8151 257.385 75.5072C257.336 74.1994 257.755 73.1388 257.828 72.966C257.903 72.7932 258.469 71.7818 258.617 71.7818C258.766 71.7818 260.424 72.7694 260.424 72.7694Z" fill="#59A64E"/>
<path d="M212.825 77.1636C214.917 77.1636 216.613 75.1369 216.613 72.6369C216.613 70.1368 214.917 68.1101 212.825 68.1101C210.733 68.1101 209.037 70.1368 209.037 72.6369C209.037 75.1369 210.733 77.1636 212.825 77.1636Z" fill="#34782A"/>
<path d="M196.784 38C185.756 38 176.785 47.8371 176.785 59.9294C176.785 61.62 176.964 63.266 177.297 64.8479H180.366C179.985 63.2779 179.78 61.6305 179.78 59.9294C179.78 49.4905 187.408 40.9985 196.785 40.9985C206.163 40.9985 213.791 49.4905 213.791 59.9294C213.791 65.259 211.802 70.0822 208.608 73.5246C208.038 74.1383 208.099 75.1021 208.731 75.6502C208.738 75.6562 208.746 75.6636 208.753 75.6696C209.354 76.1865 210.259 76.1403 210.799 75.5594C214.492 71.5778 216.784 66.0411 216.784 59.9279C216.784 47.8371 207.812 38 196.784 38Z" fill="#184655"/>
<path d="M209.037 72.7694C209.037 72.7694 209.22 75.3657 211.047 76.6333C212.874 77.901 208.512 78.5668 208.291 78.3449C208.069 78.1229 206.048 76.8151 205.998 75.5072C205.949 74.1994 206.368 73.1388 206.441 72.966C206.516 72.7932 207.082 71.7818 207.23 71.7818C207.377 71.7818 209.037 72.7694 209.037 72.7694Z" fill="#59A64E"/>
<path d="M165.226 72.6369C165.226 75.1363 163.53 77.1636 161.438 77.1636C159.347 77.1636 157.651 75.1363 157.651 72.6369C157.651 70.1374 159.347 68.1101 161.438 68.1101C163.53 68.1086 165.226 70.1359 165.226 72.6369Z" fill="#34782A"/>
<path d="M145.397 38C134.369 38 125.398 47.8371 125.398 59.9294C125.398 61.62 125.577 63.266 125.91 64.8479H128.979C128.598 63.2779 128.393 61.6305 128.393 59.9294C128.393 49.4905 136.021 40.9985 145.399 40.9985C154.775 40.9985 162.404 49.4905 162.404 59.9294C162.404 65.259 160.415 70.0822 157.221 73.5246C156.651 74.1383 156.712 75.1021 157.344 75.6502C157.351 75.6562 157.359 75.6636 157.366 75.6696C157.967 76.1865 158.872 76.1403 159.412 75.5594C163.105 71.5778 165.397 66.0411 165.397 59.9279C165.396 47.8371 156.425 38 145.397 38Z" fill="#184655"/>
<path d="M157.649 72.7694C157.649 72.7694 157.832 75.3657 159.659 76.6333C161.486 77.901 157.124 78.5668 156.902 78.3449C156.68 78.1229 154.66 76.8151 154.609 75.5072C154.56 74.1994 154.978 73.1388 155.053 72.966C155.127 72.7932 155.694 71.7818 155.841 71.7818C155.99 71.7818 157.649 72.7694 157.649 72.7694Z" fill="#59A64E"/>
<path d="M110.05 77.1636C112.142 77.1636 113.838 75.1369 113.838 72.6369C113.838 70.1368 112.142 68.1101 110.05 68.1101C107.958 68.1101 106.262 70.1368 106.262 72.6369C106.262 75.1369 107.958 77.1636 110.05 77.1636Z" fill="#34782A"/>
<path d="M94.0101 38C82.9826 38 74.0112 47.8371 74.0112 59.9294C74.0112 61.62 74.1897 63.266 74.523 64.8479H77.5923C77.2114 63.2779 77.0061 61.6305 77.0061 59.9294C77.0061 49.4905 84.634 40.9985 94.0116 40.9985C103.388 40.9985 111.017 49.4905 111.017 59.9294C111.017 65.259 109.028 70.0822 105.834 73.5246C105.264 74.1383 105.325 75.1021 105.957 75.6502C105.965 75.6562 105.972 75.6636 105.979 75.6696C106.581 76.1865 107.485 76.1403 108.025 75.5594C111.718 71.5778 114.011 66.0411 114.011 59.9279C114.009 47.8371 105.038 38 94.0101 38Z" fill="#184655"/>
<path d="M106.262 72.7694C106.262 72.7694 106.445 75.3657 108.272 76.6333C110.099 77.901 105.737 78.5668 105.515 78.3449C105.294 78.1229 103.273 76.8151 103.223 75.5072C103.173 74.1994 103.591 73.1388 103.666 72.966C103.74 72.7932 104.307 71.7818 104.454 71.7818C104.603 71.7818 106.262 72.7694 106.262 72.7694Z" fill="#59A64E"/>
<path d="M297.317 248.102L297.078 237.66L285.681 239.888C285.681 239.888 251.745 243.835 251.597 243.835C251.45 243.835 218.832 253.409 218.832 253.409L214.757 254.1H291.567C294.818 254.1 297.393 251.414 297.317 248.102Z" fill="#F1FEFA"/>
<path d="M214.757 254.1C214.757 254.1 241.857 248.175 263.26 211.019C263.26 211.019 273.758 239.666 297.078 237.66C297.078 237.66 265.825 252.217 214.757 254.1Z" fill="#95B4AB"/>
</svg>
