<svg width="290" height="280" viewBox="0 0 290 280" fill="none" xmlns="http://www.w3.org/2000/svg">
<path d="M290 271.959C290 276.401 225.08 280 145.003 280C64.9196 280 0 276.401 0 271.959C0 267.518 64.9196 263.919 144.997 263.919C225.08 263.919 290 267.518 290 271.959Z" fill="#267961" fill-opacity="0.12"/>
<path d="M128.835 58.2818C117.356 16.6384 65.6528 3.2258 36.0235 34.343C35.5959 34.7912 35.175 35.2462 34.7474 35.708C-7.73135 81.9083 12.3337 195.762 100.991 224.618C189.648 253.474 281.861 200.781 287.041 153.677C292.22 106.574 251.323 91.7691 187.842 104.944C151.981 112.38 135.976 84.2037 128.835 58.2818Z" fill="#267961" fill-opacity="0.12"/>
<path d="M206.325 68.163C194.84 71.7148 193.035 82.5806 203.135 88.7063C206.475 90.73 211.036 92.163 217.274 92.326C241.046 92.9508 251.947 80.944 240.781 68.91C233.891 61.4737 217.709 64.6452 206.325 68.163Z" fill="#267961" fill-opacity="0.12"/>
<path d="M26.2557 177.514C17.1124 169.711 6.97123 174.003 7.20881 185.82C7.29026 189.725 8.51888 194.35 11.7228 199.708C23.9274 220.129 39.8994 222.913 44.0807 207.029C46.6602 197.222 35.3176 185.243 26.2557 177.514Z" fill="#267961" fill-opacity="0.12"/>
<path d="M268.238 198.479C264.871 203.233 267.491 208.883 273.275 209.093C275.189 209.161 277.395 208.625 279.859 207.036C289.26 200.978 289.824 192.367 281.821 189.623C276.879 187.939 271.578 193.766 268.238 198.479Z" fill="#267961" fill-opacity="0.12"/>
<path d="M90.0214 3.26654C85.7179 2.43802 82.6633 5.9898 84.3128 10.017C84.8558 11.348 85.9147 12.6927 87.7678 13.8947C94.8408 18.4584 100.916 16.163 100.305 9.82002C99.925 5.90831 94.2842 4.08828 90.0214 3.26654Z" fill="#267961" fill-opacity="0.12"/>
<path d="M258.728 185.012C254.818 194.255 245.315 192.89 244.65 200.672C243.992 208.455 238.459 213.8 231.916 211.633C225.372 209.46 220.682 207.497 216.765 214.879C212.849 222.255 202.674 225.032 199.497 218.506C198.703 216.883 197.847 215.124 197.012 213.399C196.782 212.93 196.558 212.455 196.334 211.993C196.279 211.885 196.232 211.783 196.178 211.674C192.818 204.733 195.125 196.285 201.676 192.217C204.33 190.567 207.364 189.813 210.561 191.158C220.573 195.362 218.007 184.523 224.666 180.801C232.337 176.516 237.794 182.941 243.143 179.158C250.583 173.895 262.631 175.769 258.728 185.012Z" fill="#59A64E"/>
<path d="M245.913 187.762L197.012 213.392C196.782 212.924 196.558 212.448 196.334 211.986L245.186 186.377C245.566 186.18 246.042 186.323 246.238 186.703C246.442 187.097 246.293 187.565 245.913 187.762Z" fill="#448D3A"/>
<path d="M241.853 145.915C242.98 155.219 234.645 158.533 237.719 165.141C240.794 171.749 238.799 178.649 232.493 179.932C226.187 181.216 221.476 181.806 221.727 189.603C221.978 197.399 215.028 204.373 209.427 200.564C208.029 199.62 206.522 198.587 205.042 197.582C204.642 197.304 204.235 197.032 203.841 196.761C203.746 196.699 203.658 196.638 203.563 196.57C197.617 192.509 195.567 184.598 198.981 178.255C200.366 175.688 202.47 173.664 205.687 173.27C215.747 172.02 208.64 164.435 212.306 158.329C216.528 151.294 223.933 153.963 226.506 148.414C230.097 140.7 240.727 136.618 241.853 145.915Z" fill="#479781"/>
<path d="M232.751 154.105L205.049 197.582C204.649 197.304 204.241 197.032 203.848 196.761L231.529 153.317C231.746 152.978 232.194 152.876 232.534 153.093C232.873 153.311 232.968 153.766 232.751 154.105Z" fill="#267961"/>
<path d="M255.361 16.4346C266.229 11.9049 275.677 5.6163 270.437 1.84719C265.19 -1.9287 249.123 9.20882 241.69 22.3226L238.093 26.18C243.679 16.7131 245.315 3.04244 240.482 0.448213C235.683 -2.13243 235.418 7.06961 236.579 15.511C237.462 21.9355 236.572 26.3497 235.894 28.5365L218.91 46.7504C227.714 31.7351 230.266 10.1528 222.623 6.04414C215.007 1.94906 214.593 16.5501 216.433 29.9491C217.824 40.0747 216.439 47.0492 215.367 50.5535L211.98 54.1868C212.516 54.8727 213.059 55.5586 213.602 56.2377L233.803 34.5671C236.219 33.9559 239.715 33.4533 244.263 33.7589C252.761 34.3294 261.918 33.4261 259.013 28.8149C256.488 24.8149 246.089 26.18 237.468 30.635L244.453 23.1375C247.026 21.1749 250.671 18.3837 255.361 16.4346Z" fill="#59A64E"/>
<path d="M35.6773 171.593C24.3958 168.224 14.3361 162.961 19.1623 158.662C23.9885 154.357 41.128 163.749 49.8912 176.014L53.8689 179.47C47.3253 170.642 44.2708 157.216 48.7983 154.126C53.3055 151.056 54.5273 160.177 54.2558 168.699C54.0521 175.185 55.3962 179.477 56.2989 181.582L75.0947 197.922C64.7703 183.912 59.9712 162.716 67.1392 157.827C74.2869 152.958 76.2283 167.43 75.7938 180.951C75.468 191.165 77.5791 197.956 79.0045 201.324L82.7514 204.584C82.2899 205.324 81.8215 206.058 81.3531 206.791L58.9937 187.355C56.5229 187.002 53 186.866 48.5064 187.647C40.1098 189.107 30.9122 189.168 33.3219 184.278C35.4125 180.034 45.8999 180.306 54.9346 183.83L47.2031 177.107C44.4608 175.436 40.5442 173.046 35.6773 171.593Z" fill="#59A64E"/>
<path d="M213.806 34.4992V259.063C213.806 266.105 208.104 271.81 201.065 271.81H89.295C85.7585 271.81 82.5614 270.37 80.2535 268.048C77.966 265.745 76.5541 262.567 76.5541 259.07V34.4992C76.5541 27.4567 82.2559 21.7521 89.295 21.7521H201.065C203.142 21.7521 205.11 22.2479 206.841 23.1375C210.982 25.2496 213.806 29.5416 213.806 34.4992Z" fill="#133643"/>
<path d="M213.806 34.4991V259.063C213.806 266.105 208.104 271.81 201.065 271.81H89.295C85.7585 271.81 82.5614 270.37 80.2535 268.048L206.848 23.1375C210.982 25.2496 213.806 29.5416 213.806 34.4991Z" fill="#000B17"/>
<path d="M76.1603 112.081H75.8752C73.6827 112.081 71.9043 110.302 71.9043 108.109V86.3905C71.9043 84.1969 73.6827 82.4176 75.8752 82.4176H76.1603C76.3843 82.4176 76.5608 82.5942 76.5608 82.8183V111.688C76.5608 111.905 76.3775 112.081 76.1603 112.081Z" fill="#000B17"/>
<path d="M214.104 112.081H214.389C216.582 112.081 218.36 110.302 218.36 108.109V86.3905C218.36 84.1969 216.582 82.4176 214.389 82.4176H214.104C213.88 82.4176 213.704 82.5942 213.704 82.8183V111.688C213.711 111.905 213.887 112.081 214.104 112.081Z" fill="#000B17"/>
<path d="M76.1603 145.772H75.8752C73.6827 145.772 71.9043 143.993 71.9043 141.8V120.081C71.9043 117.888 73.6827 116.109 75.8752 116.109H76.1603C76.3843 116.109 76.5608 116.285 76.5608 116.509V145.379C76.5608 145.596 76.3775 145.772 76.1603 145.772Z" fill="#000B17"/>
<path d="M207.452 35.056V258.513C207.452 262.343 204.343 265.453 200.515 265.453H89.8448C87.1161 265.453 84.7539 263.871 83.6203 261.576C83.6203 261.569 83.6135 261.562 83.6135 261.555C83.1587 260.638 82.9076 259.606 82.9076 258.513V35.056C82.9076 31.2258 86.0165 28.1154 89.8448 28.1154H200.515C201.716 28.1154 202.85 28.421 203.834 28.9576C203.841 28.9576 203.841 28.9643 203.848 28.9643C205.993 30.146 207.452 32.4346 207.452 35.056Z" fill="white"/>
<path d="M194.806 102.132H95.7094C91.5145 102.132 88.1138 98.73 88.1138 94.5331V93.5348C88.1138 89.3379 91.5145 85.9355 95.7094 85.9355H194.813C199.008 85.9355 202.409 89.3379 202.409 93.5348V94.5331C202.402 98.73 199.001 102.132 194.806 102.132Z" fill="#E1EBE8"/>
<path d="M198.872 182.214H91.6436C89.6955 182.214 88.1139 180.632 88.1139 178.682C88.1139 176.733 89.6955 175.151 91.6436 175.151H198.879C200.827 175.151 202.409 176.733 202.409 178.682C202.402 180.632 200.82 182.214 198.872 182.214Z" fill="#E1EBE8"/>
<path d="M198.872 197.508H91.6436C89.6955 197.508 88.1139 195.925 88.1139 193.976C88.1139 192.027 89.6955 190.445 91.6436 190.445H198.879C200.827 190.445 202.409 192.027 202.409 193.976C202.402 195.925 200.82 197.508 198.872 197.508Z" fill="#E1EBE8"/>
<path d="M198.872 212.795H91.6436C89.6955 212.795 88.1139 211.212 88.1139 209.263C88.1139 207.314 89.6955 205.732 91.6436 205.732H198.879C200.827 205.732 202.409 207.314 202.409 209.263C202.402 211.219 200.82 212.795 198.872 212.795Z" fill="#E1EBE8"/>
<path d="M175.019 217.725H170.329C169.99 217.725 169.691 217.949 169.603 218.282L168.917 220.795H125.794C125.576 220.795 125.373 220.89 125.23 221.053C125.088 221.216 125.027 221.433 125.054 221.643L125.746 226.601C125.732 226.662 125.719 226.723 125.719 226.784C125.719 226.92 125.753 227.049 125.821 227.158L126.696 233.433L126.9 234.92L127.721 240.829L127.925 242.316L128.651 247.545C128.699 247.912 129.018 248.19 129.384 248.19H161.294L160.256 251.925C159.767 253.671 158.165 254.893 156.346 254.893H133.634C133.247 254.893 132.9 255.178 132.86 255.565C132.819 256.007 133.165 256.38 133.6 256.38H136.43C135.622 256.903 135.086 257.806 135.086 258.839C135.086 260.455 136.396 261.766 138.012 261.766C139.627 261.766 140.937 260.455 140.937 258.839C140.937 257.806 140.401 256.896 139.593 256.38H152.402C151.594 256.903 151.058 257.806 151.058 258.839C151.058 260.455 152.368 261.766 153.984 261.766C155.599 261.766 156.909 260.455 156.909 258.839C156.909 257.806 156.373 256.896 155.565 256.38H156.359C158.837 256.38 161.036 254.71 161.702 252.326L162.978 247.742C162.991 247.715 163.005 247.681 163.012 247.647L164.491 242.323L164.905 240.835L166.548 234.927L166.962 233.44L168.659 227.334L168.87 226.587L170.22 221.739C170.227 221.718 170.234 221.691 170.234 221.671L170.899 219.233H175.019C175.434 219.233 175.773 218.893 175.773 218.479C175.773 218.064 175.434 217.725 175.019 217.725ZM162.774 242.941C162.76 242.975 162.747 243.009 162.74 243.042L161.722 246.703H130.05L129.439 242.323H162.951L162.774 242.941ZM163.365 240.829H129.235L128.414 234.92H165.014L163.365 240.829ZM165.421 233.433H128.196L127.375 227.525H167.064L165.421 233.433ZM167.478 226.037H127.171L126.649 222.275H168.53L167.478 226.037Z" fill="#E1EBE8"/>
<path d="M175.99 163.749H172.746C159.136 163.749 148.004 152.611 148.004 138.995V135.749C148.004 122.139 159.136 110.995 172.746 110.995H175.99C189.6 110.995 200.732 122.132 200.732 135.749V138.995C200.732 152.611 189.6 163.749 175.99 163.749Z" fill="#EF6161" fill-opacity="0.1"/>
<path d="M190.184 153.834C188.656 151.905 183.701 145.256 183.029 139.565C182.778 137.392 182.812 135.239 183.321 133.399C184.414 129.453 185.636 126.703 185.69 126.581C185.69 126.581 183.246 122.594 183.375 114.832L182.846 114.642C182.031 114.35 181.142 114.818 180.918 115.654C180.328 117.868 178.712 120.577 175.834 120.577C172.732 120.577 171.157 117.874 170.336 115.552C170.037 114.696 168.978 114.397 168.259 114.941L167.227 115.722C167.661 118.01 168.408 123.823 165.72 127.368C165.72 127.368 169.908 134.934 168.401 139.579C166.908 144.217 159.889 154.044 159.889 154.044C159.889 154.044 165.537 160.367 175.257 160.367C186.009 160.367 190.625 154.39 190.625 154.39C190.625 154.39 190.462 154.18 190.184 153.834Z" fill="#EF6161"/>
<path d="M116.094 163.749H112.849C99.246 163.749 88.1071 152.611 88.1071 138.995V135.749C88.1071 122.139 99.2392 110.995 112.849 110.995H116.094C129.703 110.995 140.836 122.132 140.836 135.749V138.995C140.836 152.611 129.703 163.749 116.094 163.749Z" fill="#F3BE57" fill-opacity="0.1"/>
<path d="M123.459 134.506C123.723 142.92 123.778 153.256 123.75 155.796C117.125 157.508 110.507 157.514 103.896 155.796C103.862 153.209 103.828 142.71 104.032 134.295C104.032 134.214 104.038 134.132 104.038 134.058C102.626 134.024 101.452 133.372 100.672 132.788C100.013 132.299 99.6398 131.851 99.6398 131.851C101.058 128.183 104.181 124 104.853 123.165C104.853 123.165 104.853 123.165 104.853 123.158C105.287 122.54 106.889 121.521 108.566 120.55C108.865 120.374 109.19 120.238 109.516 120.149C109.849 120.061 110.195 120.014 110.541 120.014C110.731 120.014 110.887 120.17 110.887 120.36V120.374C110.887 122.132 112.347 123.552 114.118 123.491C115.809 123.43 117.125 121.99 117.125 120.299C117.125 120.143 117.254 120.014 117.411 120.014C117.954 120.014 118.49 120.156 118.958 120.441C120.547 121.379 122.081 122.37 122.529 123.002C123.16 123.783 126.35 128.272 127.844 131.837C127.063 132.924 124.728 134.2 123.459 134.506Z" fill="#F3BE57"/>
<path d="M223.662 63.6333V79.9185H66.8541V63.6333C85.7517 60.1969 91.7861 28.1154 91.7861 28.1154H198.73C198.723 28.1154 204.757 60.2037 223.662 63.6333Z" fill="white"/>
<path d="M223.662 63.6333H66.8541V79.9185H223.662V63.6333Z" fill="#E1EBE8"/>
<path d="M111.695 28.1154C111.695 28.1154 105.661 60.2037 86.7631 63.6333V79.9185H66.8541V63.6333C85.7585 60.2037 91.7861 28.1154 91.7861 28.1154H111.695Z" fill="#59A64E"/>
<path d="M223.662 63.6333V79.9185H203.746V63.6333C184.842 60.2037 178.814 28.1154 178.814 28.1154H198.73C198.73 28.1154 204.757 60.2037 223.662 63.6333Z" fill="#59A64E"/>
<path d="M131.271 63.7487V79.9253H112.611L112.143 63.6401C124.015 54.5331 124.945 28.1222 124.945 28.1222H137.245C137.815 47.2054 131.271 63.7487 131.271 63.7487Z" fill="#59A64E"/>
<path d="M176.139 63.6333L175.671 79.9185H157.011V63.7487C157.011 63.7487 150.468 47.2122 151.038 28.1154H163.337C163.337 28.1154 164.267 54.5263 176.139 63.6333Z" fill="#59A64E"/>
<path d="M86.7631 63.6333H66.8541V79.9185H86.7631V63.6333Z" fill="#3F8435"/>
<path d="M223.662 63.6333V79.9185H203.753V63.6333H223.662Z" fill="#3F8435"/>
<path d="M131.312 63.6333C131.285 63.708 131.271 63.7487 131.271 63.7487V79.9253H112.611L112.143 63.6401H131.312V63.6333Z" fill="#3F8435"/>
<path d="M176.14 63.6333L175.671 79.9185H157.011V63.7487C157.011 63.7487 156.998 63.708 156.97 63.6333H176.14Z" fill="#3F8435"/>
<path d="M177.64 39.348H112.72C109.387 39.348 106.658 36.618 106.658 33.2835V32.489C106.658 29.1545 109.387 26.4244 112.72 26.4244H177.64C180.973 26.4244 183.701 29.1545 183.701 32.489V33.2767C183.701 36.618 180.973 39.348 177.64 39.348Z" fill="#133643"/>
<path d="M163.575 33.6231H120.384C119.562 33.6231 118.89 32.9508 118.89 32.129V31.9321C118.89 31.1103 119.562 30.438 120.384 30.438H163.575C164.396 30.438 165.068 31.1103 165.068 31.9321V32.129C165.068 32.9508 164.396 33.6231 163.575 33.6231Z" fill="#000B17"/>
<path d="M176.316 31.9253C176.316 32.9779 175.461 33.8336 174.409 33.8336C173.356 33.8336 172.501 32.9779 172.501 31.9253C172.501 30.8727 173.356 30.017 174.409 30.017C175.461 30.017 176.316 30.8727 176.316 31.9253Z" fill="#335464"/>
<path d="M240.903 69.5348C240.903 67.4092 242.627 65.6842 244.752 65.6842C246.876 65.6842 248.6 67.4092 248.6 69.5348C248.6 71.6604 246.876 73.3854 244.752 73.3854C242.634 73.3854 240.903 71.6604 240.903 69.5348ZM242.111 69.5348C242.111 70.9949 243.299 72.1766 244.752 72.1766C246.211 72.1766 247.392 70.9881 247.392 69.5348C247.392 68.0747 246.204 66.893 244.752 66.893C243.299 66.893 242.111 68.0747 242.111 69.5348Z" fill="#59A64E"/>
<path d="M247.738 53.1817C247.738 51.056 249.463 49.3311 251.587 49.3311C253.712 49.3311 255.436 51.056 255.436 53.1817C255.436 55.3073 253.712 57.0323 251.587 57.0323C249.463 57.0323 247.738 55.3073 247.738 53.1817ZM248.947 53.1817C248.947 54.6418 250.135 55.8234 251.587 55.8234C253.047 55.8234 254.228 54.635 254.228 53.1817C254.228 51.7216 253.04 50.5399 251.587 50.5399C250.128 50.5399 248.947 51.7284 248.947 53.1817Z" fill="#59A64E"/>
<path d="M236.491 84.8489C236.823 84.8489 237.095 84.5773 237.095 84.2445V81.5823C237.095 81.2496 236.823 80.9779 236.491 80.9779C236.158 80.9779 235.887 81.2496 235.887 81.5823V84.2445C235.887 84.5773 236.158 84.8489 236.491 84.8489Z" fill="#59A64E"/>
<path d="M236.491 89.5077C236.823 89.5077 237.095 89.236 237.095 88.9032V86.2411C237.095 85.9083 236.823 85.6367 236.491 85.6367C236.158 85.6367 235.887 85.9083 235.887 86.2411V88.9032C235.887 89.2428 236.158 89.5077 236.491 89.5077Z" fill="#59A64E"/>
<path d="M232.757 85.8472H235.147C235.479 85.8472 235.751 85.5756 235.751 85.2428C235.751 84.91 235.479 84.6384 235.147 84.6384H232.757C232.425 84.6384 232.153 84.91 232.153 85.2428C232.153 85.5756 232.425 85.8472 232.757 85.8472Z" fill="#59A64E"/>
<path d="M237.835 85.8472H240.224C240.557 85.8472 240.828 85.5756 240.828 85.2428C240.828 84.91 240.557 84.6384 240.224 84.6384H237.835C237.502 84.6384 237.231 84.91 237.231 85.2428C237.231 85.5756 237.502 85.8472 237.835 85.8472Z" fill="#59A64E"/>
<path d="M264.206 65.7589C264.538 65.7589 264.81 65.4873 264.81 65.1545V62.4924C264.81 62.1596 264.538 61.8879 264.206 61.8879C263.873 61.8879 263.602 62.1596 263.602 62.4924V65.1545C263.602 65.4873 263.873 65.7589 264.206 65.7589Z" fill="#59A64E"/>
<path d="M264.206 70.4176C264.538 70.4176 264.81 70.146 264.81 69.8132V67.1511C264.81 66.8183 264.538 66.5467 264.206 66.5467C263.873 66.5467 263.602 66.8183 263.602 67.1511V69.8132C263.602 70.1528 263.873 70.4176 264.206 70.4176Z" fill="#59A64E"/>
<path d="M260.466 66.7572H262.855C263.188 66.7572 263.459 66.4856 263.459 66.1528C263.459 65.82 263.188 65.5484 262.855 65.5484H260.466C260.133 65.5484 259.862 65.82 259.862 66.1528C259.862 66.4856 260.133 66.7572 260.466 66.7572Z" fill="#59A64E"/>
<path d="M265.55 66.7572H267.939C268.272 66.7572 268.543 66.4856 268.543 66.1528C268.543 65.82 268.272 65.5484 267.939 65.5484H265.55C265.217 65.5484 264.946 65.82 264.946 66.1528C264.946 66.4856 265.217 66.7572 265.55 66.7572Z" fill="#59A64E"/>
<path d="M23.6898 73.8336C23.6898 71.708 25.4139 69.983 27.5386 69.983C29.6632 69.983 31.3873 71.708 31.3873 73.8336C31.3873 75.9593 29.6632 77.6842 27.5386 77.6842C25.4139 77.6842 23.6898 75.9525 23.6898 73.8336ZM24.8981 73.8336C24.8981 75.2937 26.086 76.4754 27.5386 76.4754C28.998 76.4754 30.1791 75.2869 30.1791 73.8336C30.1791 72.3735 28.9912 71.1919 27.5386 71.1919C26.086 71.1919 24.8981 72.3735 24.8981 73.8336Z" fill="#59A64E"/>
<path d="M9.69312 102.499C9.69312 100.374 11.4172 98.6486 13.5419 98.6486C15.6665 98.6486 17.3906 100.374 17.3906 102.499C17.3906 104.625 15.6665 106.35 13.5419 106.35C11.4172 106.35 9.69312 104.618 9.69312 102.499ZM10.9014 102.499C10.9014 103.959 12.0892 105.141 13.5419 105.141C15.0013 105.141 16.1824 103.952 16.1824 102.499C16.1824 101.039 14.9945 99.8574 13.5419 99.8574C12.0892 99.8574 10.9014 101.039 10.9014 102.499Z" fill="#59A64E"/>
<path d="M23.6898 90.6757C24.0224 90.6757 24.2939 90.4041 24.2939 90.0713V87.4092C24.2939 87.0764 24.0224 86.8048 23.6898 86.8048C23.3572 86.8048 23.0857 87.0764 23.0857 87.4092V90.0713C23.0857 90.4041 23.3572 90.6757 23.6898 90.6757Z" fill="#59A64E"/>
<path d="M23.6898 95.3345C24.0224 95.3345 24.2939 95.0628 24.2939 94.7301V92.0679C24.2939 91.7352 24.0224 91.4635 23.6898 91.4635C23.3572 91.4635 23.0857 91.7352 23.0857 92.0679V94.7301C23.0857 95.0628 23.3572 95.3345 23.6898 95.3345Z" fill="#59A64E"/>
<path d="M19.9564 91.674H22.3458C22.6784 91.674 22.9499 91.4024 22.9499 91.0696C22.9499 90.7369 22.6784 90.4652 22.3458 90.4652H19.9564C19.6238 90.4652 19.3523 90.7369 19.3523 91.0696C19.3523 91.4024 19.617 91.674 19.9564 91.674Z" fill="#59A64E"/>
<path d="M25.0338 91.674H27.4232C27.7558 91.674 28.0273 91.4024 28.0273 91.0696C28.0273 90.7369 27.7558 90.4652 27.4232 90.4652H25.0338C24.7012 90.4652 24.4297 90.7369 24.4297 91.0696C24.4297 91.4024 24.7012 91.674 25.0338 91.674Z" fill="#59A64E"/>
<path d="M16.6915 63.8166C17.0241 63.8166 17.2956 63.545 17.2956 63.2122V60.5501C17.2956 60.2173 17.0241 59.9457 16.6915 59.9457C16.3589 59.9457 16.0874 60.2173 16.0874 60.5501V63.2122C16.0874 63.545 16.3589 63.8166 16.6915 63.8166Z" fill="#59A64E"/>
<path d="M16.6915 68.4754C17.0241 68.4754 17.2956 68.2037 17.2956 67.871V65.2088C17.2956 64.8761 17.0241 64.6044 16.6915 64.6044C16.3589 64.6044 16.0874 64.8761 16.0874 65.2088V67.871C16.0874 68.2037 16.3589 68.4754 16.6915 68.4754Z" fill="#59A64E"/>
<path d="M12.9581 64.8149H15.3475C15.6801 64.8149 15.9516 64.5433 15.9516 64.2105C15.9516 63.8778 15.6801 63.6061 15.3475 63.6061H12.9581C12.6255 63.6061 12.354 63.8778 12.354 64.2105C12.354 64.5433 12.6255 64.8149 12.9581 64.8149Z" fill="#59A64E"/>
<path d="M18.0355 64.8149H20.4249C20.7575 64.8149 21.029 64.5433 21.029 64.2105C21.029 63.8778 20.7575 63.6061 20.4249 63.6061H18.0355C17.7029 63.6061 17.4314 63.8778 17.4314 64.2105C17.4314 64.5433 17.7029 64.8149 18.0355 64.8149Z" fill="#59A64E"/>
<path d="M271.693 270.078H217.206L224.714 209.413H264.186L271.693 270.078Z" fill="#38832D"/>
<path d="M237.645 212.455C237.645 213.48 236.81 214.316 235.785 214.316C234.76 214.316 233.925 213.48 233.925 212.455C233.925 211.43 234.76 210.594 235.785 210.594C236.81 210.594 237.645 211.423 237.645 212.455Z" fill="#26641D"/>
<path d="M256.685 212.455C256.685 213.48 255.85 214.316 254.825 214.316C253.8 214.316 252.965 213.48 252.965 212.455C252.965 211.43 253.8 210.594 254.825 210.594C255.85 210.594 256.685 211.423 256.685 212.455Z" fill="#26641D"/>
<path d="M235.826 212.238C235.391 212.224 235.052 211.857 235.072 211.423C235.167 209.535 235.5 204.543 236.525 199.606C238.33 190.92 241.358 186.52 245.512 186.52C249.673 186.52 252.619 190.927 254.268 199.62C255.205 204.557 255.443 209.542 255.504 211.436C255.517 211.871 255.171 212.231 254.737 212.238C254.309 212.244 253.963 211.905 253.956 211.484C253.78 204.299 252.022 188.081 245.519 188.081C239.002 188.081 236.939 204.306 236.633 211.497C236.606 211.919 236.253 212.251 235.826 212.238Z" fill="white"/>
<path d="M267.505 274.757H184.38L192.03 235.823H259.855L267.505 274.757Z" fill="#479781"/>
<path d="M211.369 239.362C211.369 240.387 210.534 241.222 209.509 241.222C208.484 241.222 207.649 240.387 207.649 239.362C207.649 238.336 208.484 237.501 209.509 237.501C210.534 237.494 211.369 238.329 211.369 239.362Z" fill="#267961"/>
<path d="M243.822 239.362C243.822 240.387 242.987 241.222 241.962 241.222C240.937 241.222 240.102 240.387 240.102 239.362C240.102 238.336 240.937 237.501 241.962 237.501C242.987 237.494 243.822 238.329 243.822 239.362Z" fill="#267961"/>
<path d="M209.495 239.138C208.993 239.124 208.613 238.696 208.654 238.2C208.803 236.557 209.292 232.951 210.934 229.304C213.874 222.764 219.073 219.314 225.976 219.314C232.886 219.314 237.998 222.778 240.76 229.324C242.301 232.971 242.688 236.577 242.79 238.228C242.817 238.723 242.423 239.144 241.921 239.144C241.466 239.144 241.086 238.784 241.059 238.329C240.964 236.801 240.584 233.351 239.145 229.956C236.64 224.048 232.208 221.046 225.976 221.046C219.718 221.046 215.19 224.068 212.509 230.017C210.982 233.413 210.513 236.835 210.378 238.357C210.337 238.805 209.95 239.151 209.495 239.138Z" fill="white"/>
<path d="M122.026 240.896H75.7734V276.048H122.026V240.896Z" fill="#479781"/>
<path d="M123.567 239.138H74.2462V244.985H123.567V239.138Z" fill="#479780"/>
<path d="M122.026 244.985H75.7734V248.204H122.026V244.985Z" fill="#267961"/>
<path d="M100.929 239.138H96.8771V276.075H100.929V239.138Z" fill="white"/>
<path d="M100.929 247.993H96.8771V276.082H100.929V247.993Z" fill="#F1F1F1"/>
<path d="M100.929 244.985H96.8771V248.204H100.929V244.985Z" fill="#D8D8D8"/>
</svg>
