<svg width="100" height="78" viewBox="0 0 100 78" fill="none" xmlns="http://www.w3.org/2000/svg">
<path d="M28.7753 29.798C29.7096 30.6647 30.1641 32.1304 30.1641 34.2078C30.1641 35.3039 29.9874 36.2598 29.6212 37.0882C29.2551 37.9166 28.7374 38.5794 28.0682 39.0382C27.399 39.497 26.6035 39.7392 25.6944 39.7392C25.202 39.7392 24.7475 39.7137 24.3182 39.6627C23.8889 39.6117 23.4722 39.4588 23.0682 39.1912V42.8363H19.4192V31.251C19.4192 30.3715 19.899 29.6833 20.8586 29.199C21.8182 28.7147 23.0934 28.4725 24.6843 28.4725C26.4899 28.4853 27.8409 28.9186 28.7753 29.798ZM25.5682 36.5784C25.8586 36.4255 26.0859 36.1451 26.25 35.75C26.4015 35.3549 26.4899 34.7814 26.4899 34.0549C26.4899 33.1882 26.3384 32.5637 26.0354 32.1686C25.7323 31.7863 25.2399 31.5951 24.5328 31.5951C23.9646 31.5951 23.5732 31.6461 23.3712 31.748C23.1692 31.85 23.0682 32.0029 23.0682 32.1941V36.5019C23.2449 36.6039 23.4596 36.6804 23.7121 36.7314C23.9646 36.7823 24.1919 36.8078 24.3939 36.8078C24.8864 36.8078 25.2778 36.7314 25.5682 36.5784Z" fill="white"/>
<path d="M32.0202 30.1294C32.2348 29.9255 32.601 29.6961 33.1061 29.4412C33.6111 29.199 34.1793 28.9824 34.8232 28.8039C35.4545 28.6255 36.0606 28.549 36.6162 28.549C38.1439 28.549 39.1793 28.7657 39.7096 29.2118V31.8755C39.4318 31.799 38.9773 31.7225 38.346 31.6716C37.7146 31.6206 37.1212 31.5951 36.5909 31.5951C36.149 31.5951 35.8712 31.6078 35.7449 31.6333V39.4333H32.0202V30.1294V30.1294Z" fill="white"/>
<path d="M41.2374 24.9549H45.0505V27.6569H41.2374V24.9549ZM41.2752 29.1098H45L45.0379 39.4333H41.2626V29.1098H41.2752Z" fill="white"/>
<path d="M34.9495 45.0666C35.6692 45.6019 36.0354 46.5578 36.0354 47.947V55.1225H32.3106V48.8519C32.3106 48.3166 32.1717 47.9215 31.8813 47.6794C31.5909 47.4372 31.1742 47.3225 30.6061 47.3225C30.3662 47.3225 30.1389 47.3608 29.9495 47.4245C29.7601 47.4882 29.6465 47.5647 29.596 47.6539V47.947V55.1225H25.8586V48.8519C25.8586 48.3166 25.7197 47.9215 25.4293 47.6794C25.1389 47.4372 24.7222 47.3225 24.154 47.3225C23.9141 47.3225 23.6869 47.3608 23.4975 47.4245C23.3081 47.4882 23.1944 47.5647 23.1439 47.6539V55.1225H19.4192V45.5C19.899 45.2323 20.7702 44.9647 22.0202 44.6843C23.2828 44.4039 24.3561 44.2637 25.2399 44.2637C26.6288 44.2637 27.6641 44.4931 28.3333 44.9519C29.5455 44.4931 30.6692 44.2637 31.6793 44.2637C33.1313 44.2637 34.2172 44.5313 34.9495 45.0666Z" fill="white"/>
<path d="M47.1086 45.8441C47.904 46.953 48.2955 48.6353 48.2828 50.9039H41.7929C42.1212 51.8726 42.9924 52.3569 44.3939 52.3569C44.9495 52.3569 45.7323 52.1657 46.7045 51.7961L47.2222 51.6304V54.753C46.048 55.2118 44.7727 55.4412 43.3838 55.4412C42.298 55.4412 41.351 55.2245 40.5177 54.7784C39.6843 54.3324 39.0404 53.7079 38.5732 52.8922C38.1061 52.0765 37.8788 51.1461 37.8788 50.0755C37.8788 48.2147 38.346 46.7618 39.2929 45.7294C40.2399 44.6971 41.5909 44.1745 43.346 44.1745C45.0631 44.1745 46.3131 44.7353 47.1086 45.8441ZM42.2096 47.3735C41.9318 47.6539 41.7424 48.1 41.6414 48.6863H44.6086C44.5328 48.049 44.3687 47.603 44.1414 47.3353C43.9141 47.0677 43.5859 46.9402 43.1439 46.9402C42.8157 46.953 42.4874 47.0931 42.2096 47.3735Z" fill="white"/>
<path d="M55.5555 63.7892H35.8965V58.7422H50.5682V43.9451H55.5555V63.7892ZM29.9621 63.7892H10.2904V43.9451H15.2904V58.7549H29.9621V63.7892ZM55.5555 38.0314H50.5555V23.1451H35.8965V18.098H55.5555V38.0314ZM15.2904 38.0314H10.2904V18.098H29.9621V23.1451H15.2904V38.0314Z" fill="white"/>
<path d="M29.9621 23.1196L5.82071 15.052L10.6313 13.7775L8.18182 10.5275L29.9621 18.098V23.1196Z" fill="white"/>
<path d="M57.6641 10.5275L55.2147 13.7775L60.0253 15.052L35.8839 23.1196V18.098L57.6641 10.5275Z" fill="white"/>
<path d="M32.9924 6.37255C35.6692 6.37255 37.8283 8.56471 37.8283 11.2539C37.8283 13.9559 35.6566 16.1353 32.9924 16.1353C30.3157 16.1353 28.1566 13.9431 28.1566 11.2539C28.1566 8.55196 30.3157 6.37255 32.9924 6.37255Z" fill="white"/>
<path d="M15.8712 68.1098C15.8712 68.1735 15.8838 68.2373 15.9217 68.2882C15.9596 68.3392 15.9975 68.3902 16.0606 68.4412C16.1111 68.4922 16.1869 68.5431 16.2879 68.6069C16.4141 68.6961 16.5278 68.7853 16.6162 68.8618C16.7045 68.9382 16.7677 69.0275 16.8308 69.1294C16.8939 69.2314 16.9192 69.3588 16.9192 69.499C16.9192 69.6902 16.8561 69.8304 16.7172 69.9324C16.5783 70.0216 16.4015 70.0725 16.1995 70.0725C16.0606 70.0725 15.9217 70.0471 15.7702 70.0088C15.6187 69.9706 15.4924 69.9069 15.3914 69.8176C15.2904 69.7284 15.2399 69.6265 15.2399 69.499C15.2399 69.3588 15.3157 69.2951 15.4798 69.2951C15.4798 69.2951 15.5051 69.3333 15.5556 69.4098C15.6061 69.4863 15.6818 69.5755 15.8081 69.6647C15.9343 69.7667 16.1111 69.8177 16.3384 69.8304C16.4141 69.8304 16.4646 69.8049 16.5025 69.7667C16.5404 69.7157 16.5657 69.6392 16.5657 69.5373C16.5657 69.448 16.5404 69.3716 16.5025 69.2951C16.4646 69.2186 16.4015 69.1549 16.351 69.1039C16.2879 69.0529 16.1995 68.9892 16.0985 68.9127C15.9848 68.8235 15.8838 68.7598 15.8207 68.6961C15.745 68.6324 15.6944 68.5559 15.6439 68.4667C15.5934 68.3775 15.5682 68.2755 15.5682 68.1608C15.5682 68.0333 15.6061 67.9314 15.6818 67.8549C15.7576 67.7784 15.846 67.7147 15.9596 67.6765C16.0732 67.6382 16.1869 67.6255 16.3005 67.6255C16.4268 67.6255 16.5404 67.651 16.6667 67.702C16.7929 67.7529 16.8939 67.8167 16.9823 67.9059C17.0707 67.9951 17.1086 68.1098 17.1086 68.2373C17.1086 68.2755 17.096 68.301 17.0707 68.3265C17.0455 68.352 17.0076 68.3647 16.9697 68.3647C16.9318 68.3647 16.8939 68.352 16.8561 68.3265C16.8182 68.301 16.7677 68.25 16.7045 68.1863C16.6414 68.1226 16.5909 68.0588 16.5404 68.0206C16.4899 67.9696 16.4268 67.9314 16.3636 67.9059C16.2879 67.8676 16.2121 67.8549 16.1237 67.8549C15.947 67.8167 15.8712 67.9186 15.8712 68.1098Z" fill="white"/>
<path d="M17.8409 69.2696L17.8788 69.2823C17.9293 69.2059 17.9546 69.1549 17.9798 69.1039C18.1439 68.8362 18.2955 68.5941 18.4344 68.3902C18.5732 68.1862 18.7374 68.0078 18.9141 67.8421C19.0909 67.6764 19.2677 67.6 19.4445 67.6C19.596 67.6 19.7096 67.6382 19.7854 67.7274C19.8611 67.8166 19.899 67.9186 19.899 68.0333C19.899 68.148 19.8737 68.2755 19.8359 68.4029C19.798 68.5304 19.7475 68.6833 19.6717 68.8745C19.6086 69.0529 19.5581 69.1931 19.5202 69.2951C19.495 69.397 19.4697 69.499 19.4697 69.5882C19.4697 69.7029 19.5076 69.7666 19.5833 69.7666C19.6338 69.7666 19.697 69.7412 19.7475 69.7029C19.798 69.6647 19.8611 69.6009 19.9116 69.5372C19.9621 69.4735 20.0379 69.3715 20.1136 69.2441L20.1515 69.1931C20.202 69.2441 20.2525 69.2823 20.303 69.3206L20.2399 69.397C20.1263 69.55 20.0253 69.6774 19.9369 69.7666C19.8485 69.8559 19.7601 69.9323 19.6717 69.9706C19.5833 70.0215 19.4823 70.047 19.3687 70.047C19.2551 70.047 19.1667 70.0088 19.1035 69.9323C19.0404 69.8559 19.0152 69.7539 19.0152 69.6264C19.0152 69.4735 19.0404 69.3078 19.0909 69.1421C19.1414 68.9764 19.2172 68.7853 19.3056 68.5686C19.3561 68.4284 19.4066 68.3264 19.4318 68.25C19.4571 68.1735 19.4697 68.1098 19.4697 68.0588C19.4697 68.0206 19.4571 67.9823 19.4318 67.9568C19.4066 67.9313 19.3813 67.9186 19.3308 67.9186C19.1919 67.9186 19.0404 68.0333 18.851 68.2755C18.6616 68.5176 18.4722 68.7853 18.2955 69.0784L18.2702 69.1294C18.2071 69.2313 18.0429 69.4862 17.7652 69.9068C17.7273 69.9578 17.6894 69.9961 17.6389 70.0215C17.5884 70.047 17.5379 70.0598 17.4874 70.0598C17.4243 70.0598 17.3737 70.0343 17.3359 69.9961C17.298 69.9451 17.2727 69.8813 17.2727 69.7921C17.2727 69.7539 17.2727 69.7157 17.2854 69.6774C17.298 69.6392 17.3106 69.5882 17.3232 69.5245L18.1313 66.5166H17.6515C17.6136 66.5166 17.601 66.5166 17.5884 66.5039C17.5758 66.4912 17.5758 66.4912 17.5758 66.4784C17.5758 66.4529 17.5884 66.4147 17.601 66.3637C17.6136 66.3127 17.6389 66.2872 17.6515 66.2872L18.447 66.1853C18.4596 66.1853 18.4722 66.1853 18.4975 66.1853C18.5354 66.1853 18.5606 66.1853 18.5732 66.198C18.5859 66.2108 18.5859 66.2363 18.5859 66.2745C18.5859 66.3255 18.5732 66.4019 18.548 66.4912L17.8409 69.2696Z" fill="white"/>
<path d="M22.7778 68.6324C22.7778 68.8745 22.7273 69.1167 22.6136 69.3333C22.5 69.55 22.3611 69.7284 22.1591 69.8686C21.9697 70.0088 21.7424 70.0725 21.5025 70.0725C21.3258 70.0725 21.1742 70.0343 21.0227 69.9578C20.8712 69.8814 20.7576 69.7667 20.6566 69.6137C20.5682 69.4608 20.5177 69.2696 20.5177 69.0402C20.5177 68.7598 20.5808 68.5049 20.7071 68.301C20.8333 68.0843 20.9848 67.9186 21.1869 67.8039C21.3763 67.6892 21.5909 67.6255 21.7929 67.6255C21.9571 67.6255 22.1212 67.6637 22.2727 67.7402C22.4242 67.8167 22.5379 67.9314 22.6389 68.0843C22.7273 68.2118 22.7778 68.4029 22.7778 68.6324ZM21.4899 69.8049C21.6162 69.8049 21.755 69.7539 21.8813 69.6647C22.0076 69.5755 22.1086 69.4353 22.197 69.2569C22.2853 69.0784 22.3232 68.849 22.3232 68.5814C22.3232 68.3392 22.2727 68.1608 22.1843 68.0333C22.096 67.9059 21.9823 67.8549 21.8434 67.8549C21.7172 67.8549 21.5783 67.9059 21.4394 67.9951C21.3005 68.0971 21.1995 68.2245 21.1111 68.4029C21.0227 68.5814 20.9848 68.7853 20.9848 69.0147C20.9848 69.1804 21.0101 69.3206 21.048 69.448C21.0985 69.5627 21.149 69.652 21.2374 69.7029C21.3131 69.7794 21.4015 69.8049 21.4899 69.8049Z" fill="white"/>
<path d="M25.9217 70.0725C25.7828 70.0725 25.6565 70.0343 25.5555 69.9706C25.4419 69.9068 25.3661 69.8431 25.3156 69.7794C25.2651 69.7157 25.2146 69.6519 25.1641 69.5882C25.0379 69.7157 24.899 69.8304 24.7475 69.9323C24.5959 70.0343 24.4444 70.0853 24.2929 70.0853C24.154 70.0853 24.0278 70.047 23.9141 69.9833C23.8005 69.9196 23.7121 69.8176 23.6363 69.7029C23.5732 69.5755 23.5353 69.448 23.5353 69.2823C23.5353 69.0784 23.5732 68.8872 23.649 68.696C23.7247 68.5049 23.8131 68.3137 23.9267 68.1225C23.9772 68.0333 24.0025 67.9823 24.0025 67.9696C24.0025 67.9568 23.9899 67.9441 23.9646 67.9441H23.3207C23.2954 67.9441 23.2702 67.9568 23.2576 67.9696C23.2323 67.9823 23.2197 68.0078 23.2197 68.0333C23.2197 68.0843 23.2323 68.1353 23.2702 68.1862C23.2954 68.2245 23.2954 68.25 23.2954 68.2755C23.2954 68.3137 23.2828 68.3519 23.2702 68.3647C23.2449 68.3902 23.2197 68.4029 23.1818 68.4029C23.1439 68.4029 23.0934 68.3902 23.0682 68.3647C23.0303 68.3392 23.005 68.301 22.9798 68.25C22.9545 68.2117 22.9419 68.1608 22.9419 68.1225C22.9419 68.0461 22.9671 67.9696 23.005 67.8931C23.0555 67.8294 23.106 67.7657 23.1818 67.7274C23.2576 67.6892 23.3333 67.6637 23.4091 67.6637H24.2045C24.2803 67.6637 24.3182 67.6892 24.3182 67.7402C24.3182 67.7657 24.3182 67.7911 24.3055 67.8166C24.2929 67.8421 24.2929 67.8676 24.2803 67.8804C24.255 67.9568 24.2171 68.097 24.1414 68.2882C24.0783 68.4539 24.0278 68.6068 23.9899 68.7343C23.952 68.8617 23.9394 68.9892 23.9394 69.1039C23.9394 69.1931 23.952 69.2823 23.9899 69.3843C24.0151 69.4862 24.0656 69.5627 24.1414 69.6264C24.2171 69.6902 24.3055 69.7284 24.4065 69.7284C24.4823 69.7284 24.5707 69.7029 24.6591 69.6519C24.7475 69.601 24.8358 69.5372 24.899 69.4608C24.9747 69.3843 25.0126 69.3333 25.0126 69.3078C25 69.2823 24.9874 69.2186 24.9495 69.1294C24.9242 69.0402 24.8863 68.9382 24.8611 68.8235C24.8358 68.7088 24.8232 68.6196 24.8232 68.5431C24.8232 68.3774 24.8485 68.2117 24.8863 68.0715C24.9242 67.9313 24.9874 67.8166 25.0757 67.7274C25.1641 67.6382 25.2651 67.6 25.3914 67.6C25.4924 67.6 25.5808 67.6382 25.6439 67.7019C25.707 67.7784 25.7449 67.8549 25.7702 67.9568C25.7954 68.0588 25.8081 68.148 25.8081 68.25C25.8081 68.4029 25.7828 68.5559 25.7197 68.7088C25.6565 68.8617 25.5934 69.0019 25.5177 69.1294C25.4419 69.2568 25.404 69.3078 25.404 69.3078C25.4545 69.4353 25.5177 69.5372 25.606 69.6009C25.6944 69.6774 25.8081 69.7029 25.9596 69.7029C26.0858 69.7029 26.2121 69.6647 26.3005 69.5882C26.4015 69.5117 26.4773 69.4098 26.5278 69.2696C26.5783 69.1421 26.6035 69.0019 26.6035 68.849C26.6035 68.7343 26.5909 68.6323 26.553 68.5431C26.5151 68.4539 26.4772 68.3647 26.4141 68.25C26.3636 68.1608 26.3257 68.0843 26.3005 68.0206C26.2752 67.9568 26.2626 67.8931 26.2626 67.8294C26.2626 67.7529 26.2752 67.7019 26.3131 67.651C26.351 67.6127 26.4015 67.5872 26.4646 67.5872C26.5783 67.5872 26.6666 67.651 26.7298 67.7657C26.7929 67.8804 26.8434 68.0078 26.8687 68.1608C26.8939 68.301 26.9065 68.4157 26.9065 68.4921C26.9065 68.7343 26.8687 68.9764 26.7803 69.2186C26.6919 69.4608 26.5783 69.6647 26.4141 69.8176C26.3005 69.996 26.1237 70.0725 25.9217 70.0725ZM25.3156 69.1039C25.404 69.0019 25.4798 68.8617 25.5429 68.7088C25.606 68.5559 25.6313 68.4029 25.6313 68.2372C25.6313 67.9951 25.5555 67.8804 25.4166 67.8804C25.3283 67.8804 25.2651 67.9186 25.2146 68.0078C25.1767 68.097 25.1515 68.199 25.1515 68.3264C25.1641 68.5686 25.2146 68.8235 25.3156 69.1039Z" fill="white"/>
<path d="M30.5051 67.6C30.6061 67.6 30.6818 67.6382 30.745 67.7147C30.8081 67.7912 30.846 67.8804 30.8838 67.9824C30.9091 68.0843 30.9217 68.1863 30.9217 68.2627C30.9217 68.5941 30.7955 68.9892 30.5556 69.448C30.3157 69.8941 30.0126 70.2892 29.6465 70.6078C29.2929 70.9265 28.952 71.0922 28.649 71.0922C28.5732 71.0922 28.4975 71.0794 28.4091 71.0539C28.3333 71.0284 28.2576 70.9902 28.2071 70.9265C28.1566 70.8755 28.1187 70.8118 28.1187 70.7353C28.1187 70.6716 28.1439 70.6333 28.2071 70.5951C28.2702 70.5696 28.3333 70.5441 28.4217 70.5441C28.4722 70.5441 28.548 70.5569 28.649 70.5951C28.7121 70.6078 28.75 70.6206 28.7879 70.6333C28.8258 70.6461 28.8636 70.6461 28.9015 70.6461C28.9773 70.6461 29.0404 70.6333 29.0909 70.6078C29.154 70.5824 29.2172 70.5314 29.3056 70.4549C29.3939 70.3784 29.5076 70.251 29.6717 70.0853C29.6465 69.9833 29.5833 69.7794 29.4823 69.4608C29.3813 69.1422 29.3056 68.8745 29.2424 68.6578C29.1793 68.4284 29.1162 68.25 29.0657 68.1353C29.0151 68.0206 28.9646 67.9696 28.9141 67.9696C28.851 67.9696 28.7752 68.0078 28.7121 68.0843C28.649 68.1608 28.5859 68.2627 28.5101 68.3775C28.4848 68.4284 28.4722 68.4539 28.4596 68.4667L28.3207 68.352C28.4217 68.1863 28.4975 68.0461 28.5732 67.9569C28.6364 67.8549 28.7247 67.7784 28.8005 67.7147C28.8889 67.651 28.9773 67.6127 29.0783 67.6127C29.1667 67.6127 29.2298 67.651 29.2929 67.7147C29.3561 67.7912 29.4066 67.8804 29.4318 67.9824L29.7096 68.9C29.8485 69.3716 29.9369 69.6647 29.9621 69.7667C30.0126 69.6902 30.0884 69.5755 30.1768 69.4353C30.2652 69.2951 30.3409 69.1422 30.4167 69.002C30.4924 68.849 30.5177 68.7343 30.5177 68.6578C30.5177 68.5814 30.5051 68.5049 30.4924 68.4412C30.4672 68.3775 30.4419 68.2882 30.404 68.1863C30.3662 68.0971 30.3409 68.0333 30.3283 67.9696C30.3157 67.9186 30.303 67.8549 30.303 67.8039C30.3157 67.6765 30.3788 67.6 30.5051 67.6Z" fill="white"/>
<path d="M33.5858 68.6324C33.5858 68.8745 33.5353 69.1167 33.4217 69.3333C33.3207 69.55 33.1692 69.7284 32.9672 69.8686C32.7778 70.0088 32.5505 70.0725 32.3106 70.0725C32.1338 70.0725 31.9823 70.0343 31.8308 69.9578C31.6793 69.8814 31.5656 69.7667 31.4646 69.6137C31.3762 69.4608 31.3257 69.2696 31.3257 69.0402C31.3257 68.7598 31.3889 68.5049 31.5151 68.301C31.6414 68.0843 31.7929 67.9186 31.9949 67.8039C32.1843 67.6892 32.399 67.6255 32.601 67.6255C32.7651 67.6255 32.9293 67.6637 33.0808 67.7402C33.2323 67.8167 33.3459 67.9314 33.447 68.0843C33.5353 68.2118 33.5858 68.4029 33.5858 68.6324ZM32.298 69.8049C32.4242 69.8049 32.5631 69.7539 32.6894 69.6647C32.8156 69.5755 32.9167 69.4353 33.005 69.2569C33.0808 69.0784 33.1313 68.849 33.1313 68.5814C33.1313 68.3392 33.0808 68.1608 32.9924 68.0333C32.904 67.9059 32.7904 67.8549 32.6515 67.8549C32.5252 67.8549 32.3863 67.9059 32.2475 67.9951C32.1086 68.0971 32.0076 68.2245 31.9192 68.4029C31.8308 68.5814 31.7929 68.7853 31.7929 69.0147C31.7929 69.1804 31.8182 69.3206 31.856 69.448C31.9066 69.5627 31.9571 69.652 32.0454 69.7029C32.1212 69.7794 32.2096 69.8049 32.298 69.8049Z" fill="white"/>
<path d="M35.0631 67.9314C35.0631 68.0333 35.0379 68.148 35 68.2882C34.9621 68.4284 34.899 68.5941 34.8232 68.798C34.7475 68.9892 34.697 69.1422 34.6591 69.2569C34.6212 69.3716 34.6086 69.4735 34.6086 69.5627C34.6086 69.6137 34.6212 69.652 34.6465 69.6902C34.6717 69.7284 34.7096 69.7412 34.7475 69.7412C34.8359 69.7412 34.9621 69.6265 35.1389 69.3971C35.303 69.1676 35.5051 68.8618 35.745 68.4922C35.8333 68.3392 35.8965 68.25 35.9343 68.199L35.9975 68.0971C36.0985 67.9441 36.1869 67.8294 36.2626 67.7402C36.3384 67.651 36.4268 67.6127 36.5152 67.6127C36.5657 67.6127 36.6162 67.6382 36.6414 67.6892C36.6667 67.7402 36.6919 67.8039 36.6919 67.8804C36.6919 67.9314 36.6793 67.9824 36.6667 68.0461L36.2753 69.3716C36.25 69.4735 36.2374 69.5627 36.2374 69.6137C36.2374 69.7157 36.2753 69.7794 36.351 69.7794C36.4141 69.7794 36.4773 69.7539 36.5404 69.7029C36.6035 69.652 36.6793 69.55 36.7803 69.4098L36.9318 69.1931L37.0833 69.3206L36.9318 69.5373C36.8561 69.6647 36.7803 69.7539 36.7045 69.8431C36.6288 69.9196 36.553 69.9833 36.4773 70.0216C36.3889 70.0726 36.3005 70.0853 36.1995 70.0853C36.0859 70.0853 35.9975 70.0471 35.9343 69.9706C35.8712 69.8941 35.846 69.7922 35.846 69.6775C35.846 69.5245 35.8712 69.3461 35.9217 69.1676C35.9722 68.9892 36.048 68.7726 36.1364 68.5304L36.1616 68.4539L36.2247 68.2755L36.1869 68.25C36.1364 68.3265 36.0859 68.4157 36.0227 68.5304C35.8586 68.8235 35.7071 69.0784 35.5682 69.2824C35.4293 69.4863 35.2778 69.6775 35.1136 69.8304C34.9495 69.9961 34.7854 70.0725 34.6212 70.0725C34.3308 70.0725 34.1793 69.9196 34.1793 69.6265C34.1793 69.4863 34.2045 69.3206 34.2677 69.1422C34.3182 68.9637 34.3939 68.7471 34.495 68.5176C34.5455 68.3774 34.5833 68.2755 34.6086 68.2118C34.6338 68.148 34.6465 68.0971 34.6465 68.0588C34.6465 68.0206 34.6338 67.9824 34.6086 67.9569C34.5833 67.9314 34.5581 67.9186 34.5076 67.9186C34.4318 67.9186 34.3434 67.9696 34.2677 68.0716C34.1919 68.1735 34.1035 68.301 34.0152 68.4539C34.0025 68.4667 33.9899 68.4922 33.9773 68.5049C33.9646 68.5304 33.952 68.5431 33.9394 68.5559L33.8005 68.4284C33.9015 68.2118 34.0404 68.0206 34.2045 67.8549C34.3687 67.6892 34.5328 67.6 34.7222 67.6C34.8485 67.6 34.9369 67.6255 34.9874 67.6892C35.0379 67.7529 35.0631 67.8294 35.0631 67.9314Z" fill="white"/>
<path d="M37.9798 67.651C38.0808 67.651 38.1566 67.6892 38.2071 67.7529C38.2576 67.8167 38.2828 67.9059 38.2828 68.0078C38.2828 68.1225 38.2576 68.2755 38.2071 68.4412C38.1566 68.6196 38.0808 68.849 37.9798 69.1549L37.9293 69.3078L37.9798 69.3333L38.2323 68.8873C38.2702 68.8363 38.3081 68.7598 38.346 68.6833C38.4596 68.4794 38.5606 68.301 38.6616 68.1608C38.75 68.0206 38.8636 67.8931 38.9773 67.7784C39.1035 67.6637 39.2172 67.6127 39.3434 67.6127C39.4066 67.6127 39.4571 67.6382 39.5202 67.6892C39.5707 67.7402 39.596 67.7912 39.596 67.8549C39.596 67.9059 39.5707 67.9569 39.5328 67.9951C39.495 68.0333 39.4444 68.0716 39.3939 68.0971C39.3434 68.1225 39.2677 68.148 39.1793 68.1863C39.154 68.199 39.1288 68.2118 39.0909 68.2245C39.053 68.2373 39.0278 68.25 39.0025 68.2627C38.9015 68.3137 38.7879 68.4284 38.6616 68.6069C38.5227 68.7853 38.3965 68.9765 38.2702 69.1931C38.1439 69.4098 38.0429 69.5882 37.9798 69.7412C37.9167 69.8559 37.8662 69.9324 37.803 69.9833C37.7525 70.0343 37.6894 70.0598 37.6136 70.0598C37.5631 70.0598 37.5253 70.0343 37.5 69.9961C37.4748 69.9578 37.4495 69.8941 37.4495 69.8049C37.4495 69.7539 37.4621 69.6902 37.4747 69.6265C37.4874 69.5627 37.5253 69.4863 37.5505 69.3843L37.5884 69.2824C37.702 68.951 37.7778 68.6833 37.8157 68.5049C37.8535 68.3137 37.8788 68.1735 37.8788 68.0971C37.8788 68.0716 37.8662 68.0461 37.8535 68.0078C37.8409 67.9824 37.803 67.9569 37.7652 67.9569C37.702 67.9569 37.6515 67.9824 37.5884 68.0461C37.5253 68.0971 37.4748 68.1608 37.4369 68.2245C37.399 68.2882 37.3359 68.3647 37.2727 68.4794L37.1212 68.3137C37.2601 68.1098 37.3864 67.9569 37.5253 67.8294C37.6641 67.7147 37.8157 67.651 37.9798 67.651Z" fill="white"/>
<path d="M40.9722 68.9765L41.5909 66.6951L41.1616 66.6696C41.1237 66.6569 41.0985 66.6314 41.0985 66.5931C41.0985 66.5549 41.1237 66.5294 41.1742 66.5167C41.2248 66.5039 41.2879 66.4784 41.3763 66.4657C41.4647 66.4529 41.6035 66.4274 41.7929 66.4147L41.9445 66.402C41.9697 66.402 41.9823 66.402 41.995 66.402C42.0202 66.402 42.0455 66.4147 42.0581 66.4275C42.0707 66.4402 42.0833 66.4657 42.0833 66.5039C42.0833 66.5294 42.0833 66.5676 42.0707 66.6314C42.0581 66.6824 42.0455 66.7206 42.0455 66.7333L41.351 69.3588C41.3258 69.4608 41.3131 69.5372 41.3131 69.601C41.3131 69.6647 41.3258 69.7157 41.351 69.7539C41.3763 69.7922 41.4141 69.8176 41.4646 69.8176C41.5657 69.8176 41.6919 69.7157 41.8434 69.499L41.995 69.2696L42.1717 69.3971L42.0076 69.6392C41.9066 69.7794 41.8056 69.9069 41.6793 69.9961C41.5657 70.0853 41.4268 70.1363 41.2879 70.1363C41.1616 70.1363 41.0606 70.0853 40.9849 69.9961C40.9091 69.9069 40.8712 69.7794 40.8712 69.6392C40.8712 69.5755 40.8712 69.499 40.8965 69.4353C40.9091 69.3716 40.9343 69.2824 40.9722 69.1676V68.9765Z" fill="white"/>
<path d="M44.6338 68.6324C44.6338 68.8745 44.5833 69.1167 44.4697 69.3333C44.3561 69.55 44.2172 69.7284 44.0152 69.8686C43.8258 70.0088 43.5985 70.0725 43.3586 70.0725C43.1818 70.0725 43.0303 70.0343 42.8788 69.9578C42.7273 69.8814 42.6136 69.7667 42.5126 69.6137C42.4243 69.4608 42.3737 69.2696 42.3737 69.0402C42.3737 68.7598 42.4369 68.5049 42.5631 68.301C42.6894 68.0843 42.8409 67.9186 43.0429 67.8039C43.2323 67.6892 43.447 67.6255 43.649 67.6255C43.8131 67.6255 43.9773 67.6637 44.1288 67.7402C44.2803 67.8167 44.394 67.9314 44.495 68.0843C44.5833 68.2118 44.6338 68.4029 44.6338 68.6324ZM43.346 69.8049C43.4722 69.8049 43.6111 69.7539 43.7374 69.6647C43.8636 69.5755 43.9647 69.4353 44.053 69.2569C44.1288 69.0784 44.1793 68.849 44.1793 68.5814C44.1793 68.3392 44.1288 68.1608 44.0404 68.0333C43.952 67.9059 43.8384 67.8549 43.6995 67.8549C43.5732 67.8549 43.4344 67.9059 43.2955 67.9951C43.1566 68.0971 43.0556 68.2245 42.9672 68.4029C42.8788 68.5814 42.8409 68.7853 42.8409 69.0147C42.8409 69.1804 42.8662 69.3206 42.904 69.448C42.9546 69.5627 43.0051 69.652 43.0934 69.7029C43.1566 69.7794 43.245 69.8049 43.346 69.8049Z" fill="white"/>
<path d="M46.7929 67.8167C46.7929 67.7529 46.8182 67.702 46.8561 67.6637C46.894 67.6255 46.9571 67.6127 47.0202 67.6127C47.1339 67.6127 47.2096 67.6765 47.2854 67.7912C47.3485 67.9186 47.399 68.0461 47.4243 68.1863C47.4495 68.3265 47.4621 68.4284 47.4621 68.5049C47.4621 68.7725 47.4116 69.0147 47.3106 69.2696C47.2096 69.5118 47.0581 69.7029 46.8813 69.8559C46.6919 70.0088 46.4773 70.0853 46.2374 70.0853C46.1111 70.0853 45.9722 70.0471 45.8333 69.9833C45.6945 69.9196 45.5808 69.8176 45.4924 69.7029C45.4041 69.5755 45.3536 69.448 45.3536 69.2951C45.3536 69.2186 45.3662 69.1422 45.3914 69.0657C45.4167 68.9892 45.4419 68.9255 45.4798 68.8618C45.5177 68.798 45.5682 68.7088 45.644 68.5941C45.7071 68.4922 45.7702 68.3902 45.8207 68.301C45.8712 68.2118 45.9217 68.1098 45.9722 68.0078C45.9849 67.9824 45.9849 67.9696 45.9849 67.9696C45.9849 67.9569 45.9722 67.9441 45.947 67.9441H45.303C45.2778 67.9441 45.2525 67.9569 45.2399 67.9696C45.2147 67.9824 45.202 68.0078 45.202 68.0333C45.202 68.0843 45.2147 68.1353 45.2525 68.1863C45.2778 68.2245 45.2778 68.25 45.2778 68.2755C45.2778 68.3137 45.2652 68.352 45.2525 68.3647C45.2273 68.3902 45.202 68.4029 45.1642 68.4029C45.1263 68.4029 45.0758 68.3902 45.0505 68.3647C45.0126 68.3392 44.9874 68.301 44.9621 68.25C44.9369 68.2118 44.9243 68.1608 44.9243 68.1098C44.9243 68.0333 44.9495 67.9569 44.9874 67.8804C45.0379 67.8167 45.0884 67.7529 45.1642 67.7147C45.2399 67.6765 45.3157 67.651 45.3914 67.651H46.149C46.2248 67.651 46.2626 67.6765 46.2626 67.7402C46.2626 67.8039 46.2374 67.9059 46.1743 68.0461L46.1364 68.1353C46.1238 68.1735 46.0985 68.2245 46.0732 68.2755C46.048 68.3265 46.0227 68.3775 45.9849 68.4284C45.9091 68.5686 45.846 68.6961 45.8081 68.798C45.7702 68.9 45.745 69.002 45.745 69.1167C45.745 69.2441 45.7702 69.3588 45.8207 69.448C45.8712 69.5373 45.947 69.601 46.0227 69.6392C46.1111 69.6775 46.1995 69.7029 46.3131 69.7029C46.4647 69.7029 46.6036 69.6647 46.7298 69.5882C46.8561 69.5118 46.9571 69.4098 47.0202 69.2696C47.096 69.1422 47.1212 68.9892 47.1212 68.8363C47.1212 68.7343 47.1086 68.6451 47.0707 68.5559C47.0328 68.4667 46.9823 68.3647 46.9192 68.2627C46.8561 68.1608 46.8182 68.0843 46.7929 68.0206C46.8056 67.9441 46.7929 67.8804 46.7929 67.8167Z" fill="white"/>
<path d="M49.1035 67.6C49.2172 67.6 49.3434 67.6255 49.4571 67.6765C49.5707 67.7275 49.6717 67.8039 49.7475 67.9059C49.8232 68.0078 49.8611 68.1353 49.8611 68.2755C49.8611 68.4794 49.7727 68.6324 49.596 68.7471C49.4192 68.8618 49.2172 68.9382 49.0025 68.9765C48.7879 69.0147 48.5606 69.0402 48.3207 69.0657V69.1677C48.3207 69.2696 48.3459 69.3716 48.3965 69.4608C48.447 69.5627 48.5227 69.6392 48.6111 69.6902C48.6995 69.7539 48.8005 69.7794 48.9015 69.7794C49.0278 69.7794 49.1414 69.7539 49.2424 69.7029C49.3434 69.652 49.4318 69.5882 49.5076 69.5118C49.5833 69.4353 49.6717 69.3461 49.7601 69.2314L49.9495 69.3588C49.8106 69.5627 49.6465 69.7284 49.4571 69.8559C49.2677 69.9833 49.0783 70.0471 48.8763 70.0471C48.6995 70.0471 48.5227 69.9961 48.3712 69.8941C48.2197 69.7922 48.0934 69.652 48.005 69.4863C47.9167 69.3078 47.8661 69.1294 47.8661 68.9255C47.8661 68.6833 47.9293 68.4667 48.0429 68.25C48.1566 68.0461 48.3207 67.8804 48.5101 67.7657C48.6742 67.6637 48.8763 67.6 49.1035 67.6ZM49.1035 67.8039C48.952 67.8039 48.8131 67.8549 48.6995 67.9696C48.5858 68.0843 48.4975 68.2245 48.4217 68.3902C48.3586 68.5559 48.3207 68.7216 48.3081 68.8745C48.3586 68.8745 48.3965 68.8745 48.4091 68.8745C48.5353 68.8745 48.6742 68.849 48.8384 68.798C49.0025 68.7471 49.154 68.6706 49.2803 68.5686C49.4066 68.4667 49.4697 68.352 49.4697 68.199C49.4697 68.1225 49.4571 68.0588 49.4192 67.9951C49.3813 67.9314 49.3308 67.8804 49.2803 67.8549C49.2298 67.8167 49.1667 67.8039 49.1035 67.8039Z" fill="white"/>
<path d="M66.5783 47.7049C67.1212 48.4568 67.3737 49.5784 67.3737 51.1078H63.0051C63.2197 51.7578 63.8131 52.0765 64.7601 52.0765C65.1389 52.0765 65.6566 51.949 66.3131 51.7069L66.6541 51.5921V53.6951C65.8586 54.001 65 54.1539 64.0783 54.1539C63.3586 54.1539 62.7147 54.001 62.1465 53.7078C61.5909 53.4147 61.149 52.9941 60.8333 52.4461C60.5177 51.898 60.3662 51.2735 60.3662 50.5598C60.3662 49.3108 60.6818 48.3294 61.3131 47.6412C61.9445 46.9402 62.8536 46.5961 64.0404 46.5961C65.202 46.5833 66.048 46.9529 66.5783 47.7049ZM63.2955 48.7372C63.1061 48.9284 62.9798 49.2216 62.9167 49.6167H64.9116C64.8611 49.1961 64.7475 48.8902 64.596 48.7118C64.4445 48.5333 64.2172 48.4441 63.9268 48.4441C63.6869 48.4441 63.4849 48.5461 63.2955 48.7372Z" fill="white"/>
<path d="M73.0808 48.8265H68.8763V50.4579H73.0808V48.8265Z" fill="white"/>
<path d="M81.0101 47.1568C81.5278 47.5137 81.7929 47.9853 81.7929 48.597V53.9372C81.7929 55.0461 81.452 55.8617 80.7702 56.3843C80.0884 56.9068 79.1667 57.1745 77.9924 57.1745C77.298 57.1745 76.7172 57.1363 76.2248 57.047C75.7323 56.9578 75.3788 56.8304 75.1515 56.6774V54.4725C75.404 54.6127 75.7955 54.7529 76.351 54.9059C76.9066 55.0588 77.4242 55.1225 77.9167 55.1225C78.4091 55.1225 78.7753 55.0078 79.0025 54.7912C79.2298 54.5745 79.3434 54.2431 79.3434 53.8098V53.5294C79.154 53.7333 78.9141 53.8863 78.6364 54.001C78.3586 54.1029 78.0177 54.1667 77.6136 54.1667C75.5934 54.0137 74.5833 52.8412 74.5833 50.649C74.5833 49.6421 74.7349 48.8392 75.0505 48.2529C75.3662 47.6666 75.8207 47.2588 76.4394 47.0039C77.0455 46.7617 77.8283 46.6343 78.7879 46.6343C79.7475 46.6215 80.4924 46.8 81.0101 47.1568ZM79.3434 52.0892V49.1961C79.3434 48.7882 79.0404 48.5843 78.4344 48.5843C77.9798 48.5843 77.6389 48.75 77.4116 49.0686C77.1843 49.3872 77.0707 49.8588 77.0707 50.4578C77.0707 51.0186 77.197 51.4774 77.4621 51.8088C77.7147 52.1529 78.0303 52.3186 78.3838 52.3186C78.7626 52.3314 79.0783 52.2549 79.3434 52.0892Z" fill="white"/>
<path d="M83.3207 44.2127H85.8838V46.0353H83.3207V44.2127ZM83.346 47.0039H85.8586L85.8838 53.9372H83.346V47.0039Z" fill="white"/>
<path d="M88.005 48.7373H87.0581V46.8637H88.0303V46.8C88.0429 45.7294 88.2828 44.9775 88.75 44.5314C89.2172 44.0853 89.9242 43.8559 90.8838 43.8559C91.0353 43.8559 91.2247 43.8686 91.4268 43.9069C91.6288 43.9451 91.7929 43.9706 91.9066 44.0088V46.252C91.7803 46.099 91.6667 45.9971 91.553 45.9206C91.452 45.8569 91.3005 45.8186 91.1237 45.8186C90.9343 45.8186 90.7828 45.8824 90.6944 45.9971C90.5934 46.1118 90.5556 46.2647 90.5556 46.4431V46.8765H91.9192V48.75H90.5303V53.95H88.005V48.7373Z" fill="white"/>
<path d="M93.5227 51.8981V48.7373H92.5884V46.8637H93.5227V44.9392H96.1742V46.8637H97.601V48.7373H96.1742V51.6559C96.1742 52 96.3636 52.1657 96.7424 52.1657C96.8687 52.1657 97.0202 52.1275 97.1843 52.0637C97.3485 52 97.4874 51.9108 97.6136 51.8088V53.9373C97.2222 54.1539 96.7551 54.2686 96.2374 54.2686C94.4192 54.2941 93.5227 53.4912 93.5227 51.8981Z" fill="white"/>
</svg>
