<svg width="193" height="183" viewBox="0 0 193 183" fill="none" xmlns="http://www.w3.org/2000/svg">
    <path d="M5.03242 71.0339C5.03242 71.0339 -0.00500164 76.6501 13.7805 86.4661C27.5615 96.2754 35.7317 100.436 35.7317 100.436C35.7317 100.436 38.5572 102.91 36.1986 104.748C33.8443 106.591 27.6174 108.669 28.1255 112.472C28.6504 116.419 32.6856 118.291 38.9937 118.489C45.3017 118.686 59.0977 119.635 60.3496 119.727C61.5726 119.819 63.2557 120.772 61.8508 122.291C60.4481 123.799 48.2318 131.887 52.4191 137.46C56.6064 143.033 74.2658 140.704 76.1972 140.484C78.1287 140.265 78.8699 140.75 79.2069 141.703C79.5373 142.659 75.1741 144.985 71.7908 147.428C68.4075 149.87 64.9198 153.295 67.606 156.304C70.2921 159.312 82.8822 162.024 105.31 152.995L115.432 148.129L116.454 136.894C117.184 112.7 110.294 101.811 106.544 100.328C102.794 98.8458 100.786 103.31 99.661 107.32C98.5408 111.336 97.8583 116.238 96.8508 116.255C95.8434 116.272 95.1336 115.747 94.6667 113.85C94.2042 111.96 90.2894 94.5672 83.6186 92.5585C76.9479 90.5498 73.5818 104.815 72.645 106.652C71.7126 108.495 70.2297 107.246 69.7244 106.125C69.2058 104.984 63.5598 92.345 61.1952 86.4894C58.8305 80.6338 55.6794 77.4881 51.8026 78.3593C48.0664 79.1959 48.2647 85.7618 47.3459 88.6067C46.4316 91.4583 43.1426 89.6538 43.1426 89.6538C43.1426 89.6538 36.4234 83.4148 22.4691 73.854C8.51482 64.2931 4.92692 71.1512 4.92692 71.1512" fill="#59A64E"/>
    <path d="M117.169 150.203C106.947 143.136 88.9889 130.287 73.5125 119.33C58.0406 108.38 44.0239 98.4748 33.8403 91.3643C28.7529 87.8157 24.6328 84.9502 21.7663 82.955C20.3508 81.9697 19.2459 81.1943 18.4849 80.6645C18.1211 80.403 17.8371 80.2046 17.6352 80.0581C17.4489 79.9207 17.3491 79.8419 17.3491 79.8419C17.3491 79.8419 17.4535 79.8984 17.6533 80.0271C17.8574 80.1624 18.1481 80.3564 18.5209 80.6023C19.2954 81.1233 20.4048 81.8765 21.8428 82.8374C24.7253 84.7837 28.8678 87.6249 33.9753 91.1602C44.1971 98.2264 58.2386 108.096 73.7038 119.05C89.1801 130.008 107.113 142.892 117.297 150.003" fill="#E0E0E0"/>
    <path d="M36.9409 109.917C36.9344 109.893 37.2244 109.837 37.7354 109.752C38.253 109.662 39.0003 109.556 39.9237 109.441C41.7728 109.198 44.3397 108.937 47.1761 108.691C49.9746 108.461 52.501 108.255 54.4365 108.1C55.3106 108.026 56.0443 107.958 56.6352 107.907C57.1503 107.858 57.4424 107.849 57.4445 107.867C57.451 107.891 57.1653 107.954 56.6477 108.043C56.1301 108.133 55.3828 108.239 54.455 108.348C52.5993 108.565 50.0326 108.798 47.1962 109.044C44.3998 109.292 41.8755 109.516 39.9422 109.688C39.0725 109.769 38.3388 109.837 37.7411 109.892C37.235 109.926 36.943 109.935 36.9409 109.917Z" fill="#E0E0E0"/>
    <path d="M57.7892 106.87C57.6932 106.885 56.9071 101.619 56.0354 95.1105C55.1638 88.6018 54.5271 83.3146 54.623 83.2997C54.719 83.2849 55.5051 88.5509 56.3768 95.0596C57.2596 101.571 57.8851 106.855 57.7892 106.87Z" fill="#E0E0E0"/>
    <path d="M80.7981 124.764C80.7758 124.759 80.8023 124.463 80.8814 123.94C80.97 123.343 81.084 122.594 81.2145 121.71C81.4986 119.83 81.8742 117.227 82.1871 114.337C82.5043 111.454 82.704 108.831 82.83 106.93C82.887 106.036 82.9387 105.281 82.9871 104.681C83.0218 104.149 83.0594 103.855 83.0816 103.859C83.1039 103.864 83.1198 104.152 83.1186 104.691C83.124 105.227 83.1102 105.996 83.075 106.952C83.0114 108.86 82.8518 111.486 82.5366 114.386C82.2238 117.276 81.8057 119.888 81.4661 121.757C81.2906 122.689 81.1386 123.453 81.0194 123.974C80.8913 124.481 80.8203 124.769 80.7981 124.764Z" fill="#E0E0E0"/>
    <path d="M62.5458 131.677C62.5393 131.653 62.7785 131.534 63.2322 131.332C63.7529 131.116 64.3966 130.837 65.1475 130.518C66.772 129.845 69.0267 128.933 71.5269 127.955C74.0226 126.971 76.297 126.103 77.9391 125.487C78.7097 125.212 79.3687 124.971 79.896 124.779C80.3583 124.62 80.624 124.542 80.6306 124.566C80.6371 124.591 80.3979 124.71 79.9441 124.911C79.4235 125.128 78.7798 125.406 78.0289 125.726C76.4043 126.398 74.1497 127.311 71.6495 128.288C69.1537 129.273 66.8793 130.141 65.2373 130.757C64.4666 131.032 63.8076 131.272 63.2804 131.464C62.8136 131.617 62.559 131.697 62.5458 131.677Z" fill="#E0E0E0"/>
    <path d="M80.8531 150.05C80.8466 150.025 81.1618 149.876 81.7318 149.617C82.3687 149.344 83.1956 148.993 84.1834 148.566C86.2617 147.692 89.1421 146.503 92.333 145.217C95.5238 143.93 98.4196 142.779 100.515 141.961C101.523 141.579 102.361 141.26 103.015 141.013C103.605 140.799 103.936 140.687 103.949 140.708C103.955 140.732 103.64 140.881 103.07 141.14C102.433 141.414 101.606 141.764 100.619 142.192C98.5404 143.065 95.6599 144.254 92.4691 145.541C89.2782 146.828 86.3824 147.978 84.2867 148.796C83.2791 149.179 82.4413 149.498 81.7867 149.745C81.1902 149.963 80.8596 150.075 80.8531 150.05Z" fill="#E0E0E0"/>
    <path d="M103.332 140.776C103.309 140.772 103.334 140.4 103.41 139.725C103.492 138.987 103.608 138.036 103.736 136.884C104.005 134.485 104.372 131.165 104.665 127.499C104.966 123.829 105.15 120.495 105.27 118.088C105.324 116.926 105.377 115.968 105.413 115.232C105.449 114.555 105.485 114.185 105.503 114.183C105.525 114.187 105.54 114.562 105.547 115.231C105.552 115.911 105.548 116.886 105.517 118.098C105.464 120.52 105.32 123.856 105.013 127.531C104.717 131.208 104.315 134.532 103.983 136.924C103.817 138.12 103.663 139.086 103.543 139.752C103.43 140.414 103.354 140.781 103.332 140.776Z" fill="#E0E0E0"/>
    <path fill-rule="evenodd" clip-rule="evenodd" d="M97.1256 2.96506C74.0404 2.96506 76.6762 49.5136 60.0091 63.7042C37.95 82.4821 0 73.1842 0 105.415C0 161.996 49.2232 182.495 102.866 182.495C156.507 182.495 202.277 151.114 186.305 94.6826C170.334 38.2494 150.768 2.96506 97.1256 2.96506Z" fill="#51AA47" fill-opacity="0.1"/>
    <path fill-rule="evenodd" clip-rule="evenodd" d="M82.0404 0H161.454C169.11 0 175.361 6.20966 175.361 13.8099V164.644C175.361 172.244 169.108 178.454 161.454 178.454H82.0404C74.3867 178.454 68.1333 172.246 68.1333 164.644V13.8099C68.1333 6.20782 74.383 0 82.0404 0Z" fill="#6AC95F"/>
    <path fill-rule="evenodd" clip-rule="evenodd" d="M82.0402 3.68427H161.454C167.063 3.68427 171.653 8.24218 171.653 13.8099V164.644C171.653 170.214 167.061 174.77 161.454 174.77H82.0402C76.4333 174.77 71.8433 170.214 71.8433 164.644V13.8099C71.8433 8.24034 76.4314 3.68427 82.0402 3.68427Z" fill="white"/>
    <path fill-rule="evenodd" clip-rule="evenodd" d="M82.0408 7.83748H161.455C164.763 7.83748 167.469 10.5266 167.469 13.8099V164.644C167.469 167.927 164.761 170.617 161.455 170.617H82.0408C78.7344 170.617 76.0264 167.927 76.0264 164.644V13.8099C76.0264 10.5248 78.7326 7.83748 82.0408 7.83748Z" fill="#EDFFEA"/>
    <path fill-rule="evenodd" clip-rule="evenodd" d="M109.616 29.3561H88.1255V50.6963H90.4483V31.6626H109.616V29.3561ZM88.1255 74.7881V96.1283H109.616V93.8217H90.4501V74.7881H88.1255ZM133.877 96.1283H155.368V74.7881H153.045V93.8217H133.877V96.1283ZM155.368 50.6963V29.3561H133.877V31.6626H153.045V50.6944H155.368V50.6963Z" fill="#59A64E"/>
    <path fill-rule="evenodd" clip-rule="evenodd" d="M149.799 114.044H93.693C92.9836 114.044 92.4038 114.619 92.4038 115.324V122.411C92.4038 123.115 92.9836 123.691 93.693 123.691H149.799C150.509 123.691 151.087 123.115 151.087 122.411V115.324C151.089 114.619 150.509 114.044 149.799 114.044Z" fill="#59A64E"/>
    <path fill-rule="evenodd" clip-rule="evenodd" d="M149.799 129.237H93.693C92.9836 129.237 92.4038 129.812 92.4038 130.517V137.604C92.4038 138.308 92.9836 138.884 93.693 138.884H149.799C150.509 138.884 151.087 138.308 151.087 137.604V130.517C151.089 129.812 150.509 129.237 149.799 129.237Z" fill="#59A64E"/>
    <path d="M134.669 51.6973L124.281 45.6986C122.585 44.7193 120.486 44.7193 118.772 45.6986L108.401 51.6973C106.705 52.6766 105.656 54.4954 105.656 56.4717V68.4339C105.656 70.3927 106.705 72.2115 108.401 73.2083L118.79 79.207C120.486 80.1863 122.585 80.1863 124.299 79.207L134.687 73.2083C136.383 72.229 137.433 70.4101 137.433 68.4339V56.4717C137.415 54.4954 136.366 52.6941 134.669 51.6973ZM121.535 54.3031C123.792 54.3031 125.61 56.1219 125.61 58.3779C125.61 60.634 123.792 62.4528 121.535 62.4528C119.279 62.4528 117.461 60.634 117.461 58.3779C117.461 56.1394 119.279 54.3031 121.535 54.3031ZM126.222 70.6025H116.849C115.432 70.6025 114.61 69.0285 115.397 67.8568C116.586 66.0904 118.895 64.9012 121.535 64.9012C124.176 64.9012 126.485 66.0904 127.674 67.8568C128.461 69.0111 127.622 70.6025 126.222 70.6025Z" fill="#59A64E"/>
    <g filter="url(#filter0_b_232_2171)">
        <path fill-rule="evenodd" clip-rule="evenodd" d="M82.0408 7.83748H161.455C164.763 7.83748 167.469 10.5266 167.469 13.8099V164.644C167.469 167.927 164.761 170.617 161.455 170.617H82.0408C78.7344 170.617 76.0264 167.927 76.0264 164.644V13.8099C76.0264 10.5248 78.7326 7.83748 82.0408 7.83748Z" fill="#EDFFEA" fill-opacity="0.54"/>
    </g>
    <g clip-path="url(#clip0_232_2171)">
        <path d="M188.771 63.4825C157.018 62.8738 148.144 41.4154 148.144 41.4154V41.4867V41.4154C148.144 41.4154 139.271 62.8738 107.518 63.4825C107.518 63.4825 99.083 124.044 146.745 134.598H149.55C197.206 124.044 188.771 63.4825 188.771 63.4825Z" fill="#59A64E"/>
        <path d="M148.145 47.4243V134.21C148.145 134.21 197.741 123.28 187.462 65.5804L161.248 55.4599L148.145 47.4243Z" fill="#59A64E"/>
        <path d="M149.878 137.635H146.415L146.093 137.564C125.386 132.979 111.631 118.534 106.311 95.7801C102.377 78.9644 104.428 63.7091 104.518 63.0681L104.873 60.5039L107.453 60.4521C134.453 59.9341 144.107 44.0055 145.616 40.9169L148.118 36.4296L150.613 40.8327C152.122 43.9213 161.841 59.9277 188.828 60.4457L191.408 60.4975L191.762 63.0616C191.853 63.7026 193.903 78.9579 189.97 95.7737C184.649 118.527 170.894 132.973 150.194 137.557L149.878 137.635ZM147.073 131.561H149.208C187.925 122.742 186.894 77.624 186.023 66.4222C163.782 65.1725 152.767 54.0418 148.144 47.4243C143.52 54.0418 132.506 65.1725 110.258 66.4157C109.864 71.3044 109.426 82.6487 112.237 94.5434C117.055 114.946 128.772 127.398 147.073 131.561Z" fill="#83D178"/>
    </g>
    <path fill-rule="evenodd" clip-rule="evenodd" d="M157.284 81.9078V84.3748C160.055 85.2398 162.074 87.7485 162.074 90.7448V98.6881C162.074 102.397 158.999 105.405 155.208 105.405H141.59C137.797 105.405 134.722 102.397 134.722 98.6881V90.7448C134.722 87.7485 136.743 85.2398 139.513 84.3748V81.9078C139.529 77.1111 143.502 73.2258 148.374 73.2258C153.311 73.2258 157.284 77.1111 157.284 81.9078ZM148.406 76.0239C151.725 76.0239 154.423 78.662 154.423 81.9078V84.0279H142.374V81.8758C142.39 78.646 145.088 76.0239 148.406 76.0239ZM149.829 96.4832C149.829 97.2667 149.191 97.8902 148.39 97.8902C147.605 97.8902 146.968 97.2667 146.968 96.4832V92.9337C146.968 92.1662 147.605 91.5427 148.39 91.5427C149.191 91.5427 149.829 92.1662 149.829 92.9337V96.4832Z" fill="white"/>
    <defs>
        <filter id="filter0_b_232_2171" x="69.0264" y="0.837479" width="105.443" height="176.779" filterUnits="userSpaceOnUse" color-interpolation-filters="sRGB">
            <feFlood flood-opacity="0" result="BackgroundImageFix"/>
            <feGaussianBlur in="BackgroundImage" stdDeviation="3.5"/>
            <feComposite in2="SourceAlpha" operator="in" result="effect1_backgroundBlur_232_2171"/>
            <feBlend mode="normal" in="SourceGraphic" in2="effect1_backgroundBlur_232_2171" result="shape"/>
        </filter>
        <clipPath id="clip0_232_2171">
            <rect width="88.4756" height="101.205" fill="white" transform="translate(103.907 36.4296)"/>
        </clipPath>
    </defs>
</svg>