<svg width="100" height="100" viewBox="0 0 28 28" fill="none" xmlns="http://www.w3.org/2000/svg">
    <g clip-path="url(#clip0_124_567)">
        <path d="M12.4326 15.5479C10.1265 15.5479 3.33945 15.5479 3.33945 15.5479C2.61896 15.5479 2.02942 16.1373 2.02942 16.8578V26.6902C2.02942 27.4107 2.61896 28.0001 3.33945 28.0001C3.33945 28.0001 10.2685 28.0001 12.5855 28.0001C12.8936 28.0001 12.8936 27.669 12.8936 27.669V15.993C12.8935 15.993 12.8935 15.5479 12.4326 15.5479Z" fill="#898989"/>
        <path d="M24.6604 15.5479C24.6604 15.5479 17.8474 15.5479 15.5765 15.5479C15.0232 15.5479 15.1061 16.124 15.1061 16.124V27.6797C15.1061 27.6797 15.1016 27.9998 15.4344 27.9998C17.7408 27.9998 24.6602 27.9998 24.6602 27.9998C25.3807 27.9998 25.9702 27.4104 25.9702 26.6899V16.8578C25.9704 16.1373 25.3809 15.5479 24.6604 15.5479Z" fill="#898989"/>
        <path d="M12.8935 7.81158C12.8935 7.81158 12.8935 7.36768 12.4549 7.36768C9.82822 7.36768 1.86008 7.36768 1.86008 7.36768C1.13959 7.36768 0.550049 7.95722 0.550049 8.67761V12.7668C0.550049 13.4873 1.13959 14.0768 1.86008 14.0768C1.86008 14.0768 9.86391 14.0768 12.4908 14.0768C12.8935 14.0768 12.8935 13.7274 12.8935 13.7274V7.81158Z" fill="#898989"/>
        <path d="M26.1394 7.36768C26.1394 7.36768 18.168 7.36768 15.5108 7.36768C15.1061 7.36768 15.1061 7.75336 15.1061 7.75336V13.7355C15.1061 13.7355 15.1061 14.0768 15.5982 14.0768C18.2334 14.0768 26.1394 14.0768 26.1394 14.0768C26.8599 14.0768 27.4494 13.4873 27.4494 12.7668V8.67761C27.4494 7.95722 26.8599 7.36768 26.1394 7.36768Z" fill="#898989"/>
        <path d="M8.43783 6.39841C7.83846 6.39841 7.29101 6.35088 6.81094 6.25706C5.59158 6.01884 4.7535 5.55518 4.24881 4.83975C3.79661 4.19857 3.65822 3.40813 3.83736 2.49026C4.15117 0.884362 5.22966 0 6.87393 0C7.22191 0 7.60406 0.0401809 8.00987 0.119493C9.04217 0.321161 10.3625 0.91309 11.5419 1.70287C13.5428 3.04297 13.6418 3.87608 13.5421 4.38621C13.3956 5.13581 12.695 5.67143 11.4001 6.0238C10.5253 6.26183 9.4456 6.39841 8.43783 6.39841ZM6.87402 2.09962C6.23724 2.09962 6.01839 2.27752 5.89823 2.89284C5.79992 3.39591 5.9239 3.57162 5.96456 3.62936C6.13483 3.87083 6.57835 4.07221 7.21351 4.19619C7.55624 4.26319 7.97971 4.2986 8.43774 4.2986C9.44493 4.2986 10.3323 4.14599 10.921 3.97906C10.9639 3.96694 11.0304 3.91626 10.9591 3.87379C10.1894 3.24673 8.78114 2.40942 7.6073 2.18008C7.33386 2.12682 7.08705 2.09962 6.87402 2.09962Z" fill="#898989"/>
        <path d="M19.5922 6.39831C19.5922 6.39831 19.5922 6.39831 19.592 6.39831C18.5843 6.39831 17.5046 6.26174 16.6298 6.0237C15.3349 5.67143 14.6343 5.13572 14.4878 4.38621C14.3883 3.87608 14.4871 3.04297 16.4882 1.70287C17.6674 0.91309 18.9877 0.321161 20.0202 0.119493C20.426 0.0401809 20.8082 0 21.1558 0C22.8005 0 23.8789 0.884458 24.1924 2.49036C24.3717 3.40813 24.2335 4.19857 23.7812 4.83975C23.2765 5.55528 22.4385 6.01884 21.2188 6.25706C20.739 6.35069 20.1915 6.39831 19.5922 6.39831ZM17.0876 3.86071C17.0194 3.90032 17.0524 3.96283 17.0878 3.97305C17.6763 4.14226 18.573 4.2986 19.592 4.2986C20.0503 4.2986 20.4735 4.26319 20.8164 4.19619C21.4514 4.07211 21.8951 3.87083 22.0653 3.62936C22.1062 3.57162 22.2302 3.39591 22.1316 2.89284C22.0116 2.27752 21.7926 2.09962 21.1557 2.09962C20.9428 2.09962 20.6962 2.12673 20.4226 2.18017C19.2486 2.40942 17.8574 3.23356 17.0876 3.86071Z" fill="#898989"/>
    </g>
    <defs>
        <clipPath id="clip0_124_567">
            <rect width="28" height="28" fill="white"/>
        </clipPath>
    </defs>
</svg>