<svg width="37" height="36" viewBox="0 0 37 36" fill="none" xmlns="http://www.w3.org/2000/svg">
<rect y="0.366699" width="36.3031" height="35.2821" rx="8" fill="#59A64E" fill-opacity="0.05"/>
<path d="M12 16V14C12 10.69 13 8 18 8C23 8 24 10.69 24 14V16" stroke="#59A64E" stroke-width="1.5" stroke-linecap="round" stroke-linejoin="round"/>
<path d="M18 24.5C19.3807 24.5 20.5 23.3807 20.5 22C20.5 20.6193 19.3807 19.5 18 19.5C16.6193 19.5 15.5 20.6193 15.5 22C15.5 23.3807 16.6193 24.5 18 24.5Z" stroke="#59A64E" stroke-width="1.5" stroke-linecap="round" stroke-linejoin="round"/>
<path d="M23 28H13C9 28 8 27 8 23V21C8 17 9 16 13 16H23C27 16 28 17 28 21V23C28 27 27 28 23 28Z" stroke="#59A64E" stroke-width="1.5" stroke-linecap="round" stroke-linejoin="round"/>
</svg>
