<svg width="44" height="44" viewBox="0 0 44 44" fill="none" xmlns="http://www.w3.org/2000/svg">
    <circle cx="22" cy="22" r="22" fill="#E54141" fill-opacity="0.1"/>
    <path d="M31.0702 15.23C29.4602 15.07 27.8502 14.95 26.2302 14.86V14.85L26.0102 13.55C25.8602 12.63 25.6402 11.25 23.3002 11.25H20.6802C18.3502 11.25 18.1302 12.57 17.9702 13.54L17.7602 14.82C16.8302 14.88 15.9002 14.94 14.9702 15.03L12.9302 15.23C12.5102 15.27 12.2102 15.64 12.2502 16.05C12.2902 16.46 12.6502 16.76 13.0702 16.72L15.1102 16.52C20.3502 16 25.6302 16.2 30.9302 16.73C30.9602 16.73 30.9802 16.73 31.0102 16.73C31.3902 16.73 31.7202 16.44 31.7602 16.05C31.7902 15.64 31.4902 15.27 31.0702 15.23Z" fill="#E54141"/>
    <path d="M29.2302 18.14C28.9902 17.89 28.6602 17.75 28.3202 17.75H15.6802C15.3402 17.75 15.0002 17.89 14.7702 18.14C14.5402 18.39 14.4102 18.73 14.4302 19.08L15.0502 29.34C15.1602 30.86 15.3002 32.76 18.7902 32.76H25.2102C28.7002 32.76 28.8402 30.87 28.9502 29.34L29.5702 19.09C29.5902 18.73 29.4602 18.39 29.2302 18.14ZM23.6602 27.75H20.3302C19.9202 27.75 19.5802 27.41 19.5802 27C19.5802 26.59 19.9202 26.25 20.3302 26.25H23.6602C24.0702 26.25 24.4102 26.59 24.4102 27C24.4102 27.41 24.0702 27.75 23.6602 27.75ZM24.5002 23.75H19.5002C19.0902 23.75 18.7502 23.41 18.7502 23C18.7502 22.59 19.0902 22.25 19.5002 22.25H24.5002C24.9102 22.25 25.2502 22.59 25.2502 23C25.2502 23.41 24.9102 23.75 24.5002 23.75Z" fill="#E54141"/>
</svg>