<svg width="100" height="100" viewBox="0 0 28 28" fill="none" xmlns="http://www.w3.org/2000/svg">
    <path d="M25.6666 12.7984V15.2017C25.6666 15.8434 25.1533 16.3684 24.4999 16.3917H22.2133C20.9533 16.3917 19.7983 15.4701 19.6933 14.2101C19.6233 13.4751 19.9033 12.7867 20.3933 12.3084C20.8249 11.8651 21.4199 11.6084 22.0733 11.6084H24.4999C25.1533 11.6317 25.6666 12.1567 25.6666 12.7984Z" fill="#898989"/>
    <path d="M23.8816 18.1416H22.2133C19.9966 18.1416 18.1299 16.4733 17.9433 14.3499C17.8383 13.1366 18.2816 11.9233 19.1683 11.0599C19.9149 10.2899 20.9533 9.85825 22.0733 9.85825H23.8816C24.2199 9.85825 24.4999 9.57825 24.4649 9.23992C24.2083 6.40492 22.3299 4.46825 19.5416 4.14159C19.2616 4.09492 18.9699 4.08325 18.6666 4.08325H8.16659C7.83992 4.08325 7.52492 4.10659 7.22159 4.15325C4.24659 4.52659 2.33325 6.74325 2.33325 9.91659V18.0833C2.33325 21.3033 4.94659 23.9166 8.16659 23.9166H18.6666C21.9333 23.9166 24.1849 21.8749 24.4649 18.7599C24.4999 18.4216 24.2199 18.1416 23.8816 18.1416ZM15.1666 11.3749H8.16659C7.68825 11.3749 7.29159 10.9783 7.29159 10.4999C7.29159 10.0216 7.68825 9.62492 8.16659 9.62492H15.1666C15.6449 9.62492 16.0416 10.0216 16.0416 10.4999C16.0416 10.9783 15.6449 11.3749 15.1666 11.3749Z" fill="#898989"/>
</svg>