<?xml version="1.0" encoding="utf-8"?>
<!-- Generator: Adobe Illustrator 26.0.1, SVG Export Plug-In . SVG Version: 6.00 Build 0)  -->
<svg version="1.1" id="Layer_1" xmlns="http://www.w3.org/2000/svg" xmlns:xlink="http://www.w3.org/1999/xlink" x="0px" y="0px"
	 viewBox="0 0 512 512" style="enable-background:new 0 0 512 512;" xml:space="preserve">
<style type="text/css">
	.st0{fill:#227038;}
	.st1{fill:#5E5E5E;}
	.st2{fill:#338540;}
	.st3{fill:#8BC53F;}
	.st4{fill:#FFFFFF;}
</style>
<path class="st0" d="M492.26,399.51H288.25c11.71-7.18,18.68-19.87,19.03-33.36v-63.97c0-6.34,5.19-11.53,11.53-11.53h173.45
	c6.34,0,11.53,5.19,11.53,11.53v85.8C503.79,394.32,498.6,399.51,492.26,399.51z"/>
<g>
	<path class="st1" d="M133.36,208.02c5.31,4.92,7.96,13.23,7.96,24.94c0,6.17-1.04,11.61-3.1,16.33c-2.07,4.72-5.03,8.41-8.9,11.07
		c-3.86,2.65-8.37,3.98-13.52,3.98c-2.81,0-5.43-0.14-7.84-0.41c-2.42-0.27-4.8-1.15-7.14-2.63v20.61H79.97v-65.57
		c0-4.99,2.75-8.86,8.25-11.59c5.5-2.73,12.78-4.1,21.84-4.1C120.29,200.65,128.06,203.11,133.36,208.02 M115.04,246.43
		c1.68-0.86,2.97-2.42,3.86-4.68c0.9-2.26,1.35-5.46,1.35-9.6c0-4.92-0.86-8.47-2.58-10.65c-1.72-2.18-4.57-3.28-8.55-3.28
		c-3.28,0-5.49,0.29-6.62,0.88c-1.13,0.59-1.7,1.43-1.7,2.52v24.35c1.01,0.55,2.24,0.98,3.69,1.29c1.44,0.31,2.75,0.47,3.92,0.47
		C111.16,247.72,113.36,247.29,115.04,246.43"/>
	<path class="st1" d="M151.86,209.9c1.25-1.17,3.32-2.46,6.21-3.86c2.89-1.41,6.15-2.59,9.78-3.57c3.63-0.98,7.04-1.46,10.24-1.46
		c8.74,0,14.64,1.25,17.68,3.75v15.1c-1.56-0.47-4.16-0.86-7.79-1.17c-3.63-0.31-6.97-0.47-10.01-0.47c-2.5,0-4.1,0.08-4.8,0.23
		v44.14h-21.31V209.9z"/>
	<path class="st1" d="M204.55,180.63h21.78v15.34h-21.78V180.63z M204.79,204.16h21.31l0.23,58.43h-21.54V204.16z"/>
	<path class="st1" d="M168.61,294.08c4.14,3.04,6.21,8.47,6.21,16.27v40.63H153.5v-35.48c0-3.04-0.82-5.25-2.46-6.61
		c-1.64-1.37-4.06-2.05-7.26-2.05c-1.41,0-2.65,0.2-3.75,0.59c-1.09,0.39-1.76,0.82-1.99,1.29v1.64v40.63h-21.31v-35.48
		c0-3.04-0.82-5.25-2.46-6.61c-1.64-1.37-4.06-2.05-7.26-2.05c-1.41,0-2.65,0.2-3.75,0.59c-1.09,0.39-1.76,0.82-1.99,1.29v42.27
		H79.97v-54.44c2.73-1.48,7.69-3.02,14.87-4.63c7.18-1.6,13.31-2.4,18.38-2.4c7.96,0,13.85,1.29,17.68,3.86
		c6.95-2.58,13.31-3.86,19.08-3.86C158.26,289.51,164.47,291.03,168.61,294.08"/>
	<path class="st1" d="M238.1,298.47c4.57,6.28,6.81,15.83,6.73,28.63h-37.12c1.87,5.46,6.83,8.2,14.87,8.2
		c3.2,0,7.61-1.05,13.23-3.16l2.93-0.94v17.68c-6.71,2.58-14.01,3.86-21.9,3.86c-6.17,0-11.63-1.25-16.39-3.75
		c-4.76-2.5-8.47-6.05-11.12-10.65c-2.65-4.6-3.98-9.91-3.98-15.92c0-10.54,2.69-18.73,8.08-24.59c5.39-5.85,13.11-8.78,23.18-8.78
		C226.37,289.04,233.53,292.19,238.1,298.47 M210.11,307.13c-1.6,1.6-2.67,4.08-3.22,7.44h16.98c-0.47-3.59-1.35-6.13-2.63-7.61
		c-1.29-1.48-3.18-2.22-5.68-2.22C213.53,304.73,211.71,305.53,210.11,307.13"/>
</g>
<g>
	<path class="st2" d="M249.82,399.06h-70.53v-28.44h67.45c8.81,0,15.95-7.14,15.95-15.95v-67.45h28.44v70.53
		C291.13,380.56,272.63,399.06,249.82,399.06z M145.54,399.06H75.01c-22.82,0-41.31-18.5-41.31-41.31v-70.53h28.44v67.45
		c0,8.81,7.14,15.95,15.95,15.95h67.45L145.54,399.06L145.54,399.06z M291.13,253.95h-28.44v-82.86c0-0.57-0.46-1.02-1.02-1.02
		h-82.38v-28.44h111.84V253.95L291.13,253.95z M62.14,253.95H33.7v-71.01c0-22.82,18.5-41.31,41.31-41.31h70.53v28.44H78.09
		c-8.81,0-15.95,7.14-15.95,15.95V253.95L62.14,253.95z"/>
	<polygon class="st3" points="145.56,169.95 8.28,124.46 35.66,117.29 21.71,98.98 145.56,141.62 145.56,169.94 	"/>
	<polygon class="st3" points="303.1,98.98 303.1,98.98 289.15,117.29 316.52,124.46 179.25,169.95 179.25,141.62 303.1,98.98 	"/>
	<path class="st2" d="M162.8,75.55c15.2,0,27.53,12.32,27.53,27.53c0,15.2-12.32,27.53-27.53,27.53c-15.2,0-27.53-12.32-27.53-27.53
		C135.27,87.88,147.6,75.55,162.8,75.55"/>
</g>
<g>
	<g>
		<path class="st4" d="M325.44,364.93l-0.29-5.22l15.53-2.29c-0.12-1.44-0.68-2.7-1.7-3.78c-1.02-1.07-2.46-1.61-4.34-1.61
			c-1.99,0-3.63,0.68-4.92,2.05c-1.29,1.37-1.95,3.32-1.99,5.86l0.18,3.16c0.31,2.42,1.26,4.21,2.84,5.36
			c1.58,1.15,3.56,1.73,5.95,1.73c1.64,0,3.16-0.24,4.57-0.73c1.41-0.49,2.54-1.01,3.4-1.55c0.51,0.31,0.94,0.74,1.29,1.29
			c0.35,0.55,0.53,1.13,0.53,1.76c0,1.02-0.45,1.9-1.35,2.67c-0.9,0.76-2.12,1.34-3.66,1.73c-1.54,0.39-3.29,0.59-5.25,0.59
			c-3.05,0-5.73-0.57-8.06-1.7c-2.32-1.13-4.14-2.82-5.45-5.07c-1.31-2.25-1.96-5.01-1.96-8.29c0-2.42,0.37-4.54,1.11-6.36
			c0.74-1.82,1.76-3.32,3.05-4.51c1.29-1.19,2.76-2.09,4.42-2.7c1.66-0.61,3.43-0.91,5.3-0.91c2.58,0,4.84,0.53,6.8,1.58
			c1.95,1.05,3.48,2.5,4.57,4.34c1.09,1.84,1.64,3.95,1.64,6.33c0,1.09-0.28,1.91-0.85,2.46c-0.57,0.55-1.36,0.9-2.37,1.05
			L325.44,364.93z"/>
		<path class="st4" d="M366.23,363h-13.24c-0.2-0.35-0.37-0.78-0.53-1.29c-0.16-0.51-0.23-1.05-0.23-1.64
			c0-1.09,0.25-1.88,0.76-2.37c0.51-0.49,1.19-0.73,2.05-0.73h13.25c0.16,0.31,0.32,0.73,0.5,1.26c0.18,0.53,0.26,1.08,0.26,1.67
			c0,1.05-0.26,1.84-0.76,2.34C367.77,362.75,367.09,363,366.23,363z"/>
		<path class="st4" d="M406.26,357.78v12.37c0,0.98-0.21,1.73-0.64,2.26c-0.43,0.53-1.08,1.03-1.93,1.49
			c-1.06,0.59-2.54,1.08-4.45,1.49c-1.91,0.41-3.83,0.61-5.74,0.61c-3.67,0-6.98-0.65-9.93-1.96c-2.95-1.31-5.27-3.34-6.94-6.09
			c-1.68-2.75-2.52-6.28-2.52-10.58c0-4.14,0.86-7.61,2.58-10.4c1.72-2.79,4.02-4.89,6.92-6.3c2.89-1.41,6.09-2.11,9.61-2.11
			c2.34,0,4.39,0.24,6.15,0.73c1.76,0.49,3.12,1.15,4.07,1.99c0.96,0.84,1.44,1.79,1.44,2.84c0,0.74-0.21,1.41-0.62,1.99
			c-0.41,0.59-0.91,1.04-1.49,1.35c-0.98-0.62-2.21-1.23-3.69-1.82c-1.49-0.59-3.26-0.88-5.33-0.88c-2.27,0-4.29,0.5-6.07,1.49
			c-1.78,1-3.17,2.42-4.19,4.28c-1.02,1.86-1.52,4.11-1.52,6.77c0,2.81,0.51,5.15,1.52,7c1.02,1.86,2.4,3.23,4.16,4.13
			s3.75,1.35,5.98,1.35c1.13,0,2.17-0.11,3.11-0.32c0.94-0.21,1.66-0.44,2.17-0.67v-8.09h-7.5c-0.2-0.35-0.37-0.78-0.53-1.29
			c-0.16-0.51-0.23-1.07-0.23-1.7c0-1.02,0.24-1.78,0.73-2.29c0.49-0.51,1.12-0.76,1.9-0.76h9.85c0.98,0,1.75,0.27,2.31,0.82
			C405.97,356.05,406.26,356.81,406.26,357.78z"/>
		<path class="st4" d="M413.11,339.03c0-1.17,0.4-2.16,1.2-2.96c0.8-0.8,1.83-1.2,3.08-1.2c1.25,0,2.28,0.4,3.08,1.2
			c0.8,0.8,1.2,1.79,1.2,2.96c0,1.17-0.4,2.16-1.2,2.96c-0.8,0.8-1.83,1.2-3.08,1.2c-1.25,0-2.28-0.4-3.08-1.2
			C413.51,341.19,413.11,340.2,413.11,339.03z M421.09,363.41h-7.38v-15.88c0.31-0.08,0.77-0.18,1.38-0.29
			c0.61-0.12,1.26-0.18,1.96-0.18c1.41,0,2.43,0.24,3.08,0.73c0.64,0.49,0.97,1.4,0.97,2.73V363.41z M413.7,359.6h7.38v15.41
			c-0.31,0.08-0.77,0.18-1.38,0.29c-0.61,0.12-1.26,0.18-1.96,0.18c-1.41,0-2.43-0.25-3.08-0.76c-0.64-0.51-0.97-1.41-0.97-2.7
			V359.6z"/>
		<path class="st4" d="M436.03,346.41v7.62h-7.15v-7.91c0-2.5,0.51-4.52,1.52-6.07s2.41-2.69,4.19-3.43
			c1.78-0.74,3.82-1.11,6.12-1.11c2.58,0,4.52,0.34,5.83,1.03c1.31,0.68,1.96,1.71,1.96,3.08c0,0.63-0.13,1.18-0.38,1.67
			c-0.26,0.49-0.56,0.89-0.91,1.2c-0.7-0.27-1.52-0.51-2.46-0.7c-0.94-0.19-1.91-0.29-2.93-0.29c-1.99,0-3.46,0.38-4.4,1.14
			C436.5,343.4,436.03,344.66,436.03,346.41z M428.88,352.04h7.44v22.97c-0.31,0.08-0.77,0.18-1.38,0.29
			c-0.61,0.12-1.26,0.18-1.96,0.18c-1.41,0-2.44-0.25-3.11-0.76c-0.67-0.51-1-1.41-1-2.7V352.04z M434.86,354.97v-5.8h11.72
			c0.2,0.27,0.37,0.66,0.53,1.17c0.16,0.51,0.23,1.06,0.23,1.64c0,1.02-0.23,1.77-0.7,2.26c-0.47,0.49-1.09,0.73-1.88,0.73H434.86z"
			/>
		<path class="st4" d="M459.94,361.18h-7.33v-21.16c0.31-0.08,0.77-0.18,1.38-0.29c0.61-0.12,1.26-0.18,1.96-0.18
			c1.37,0,2.37,0.25,3.02,0.76c0.64,0.51,0.97,1.41,0.97,2.7V361.18z M452.61,359.6h7.33v6.86c0,1.25,0.39,2.15,1.17,2.7
			c0.78,0.55,1.84,0.82,3.16,0.82c0.62,0,1.3-0.09,2.02-0.26c0.72-0.18,1.34-0.38,1.85-0.62c0.31,0.31,0.58,0.7,0.79,1.17
			s0.32,1,0.32,1.58c0,1.17-0.53,2.14-1.58,2.9c-1.05,0.76-2.75,1.14-5.1,1.14c-3.09,0-5.52-0.69-7.3-2.08s-2.67-3.68-2.67-6.89
			V359.6z M457.07,353.68v-5.8h11.49c0.2,0.27,0.37,0.66,0.53,1.17c0.15,0.51,0.23,1.08,0.23,1.7c0,1.02-0.23,1.76-0.67,2.23
			c-0.45,0.47-1.08,0.7-1.9,0.7H457.07z"/>
	</g>
</g>
<g>
	<path class="st1" d="M96.11,414.22c-0.08,1.67-0.12,2.98-0.12,3.93v0.83c0,0.16-0.14,0.25-0.43,0.25c-0.26,0-0.39-0.08-0.41-0.25
		c-0.13-1.54-0.5-2.64-1.1-3.32c-0.6-0.68-1.5-1.01-2.71-1.01c-2.11,0-3.17,1.15-3.17,3.44c0,0.8,0.2,1.58,0.59,2.33
		c0.39,0.75,1.24,1.78,2.54,3.07c1.43,1.41,2.37,2.57,2.82,3.46c0.45,0.89,0.67,1.83,0.67,2.81c0,1.83-0.68,3.33-2.04,4.5
		c-1.36,1.16-3.11,1.75-5.23,1.75c-0.9,0-1.97-0.17-3.2-0.51c-1.12-0.3-2.04-0.45-2.77-0.45c0.18-2.49,0.29-4.23,0.31-5.23
		c0-0.16,0.16-0.25,0.48-0.25c0.21,0,0.33,0.08,0.36,0.25c0.29,1.91,0.81,3.25,1.57,4.03c0.76,0.78,1.92,1.17,3.48,1.17
		c1.26,0,2.26-0.38,2.99-1.14c0.73-0.76,1.1-1.78,1.1-3.07c0-0.78-0.21-1.55-0.65-2.31c-0.43-0.76-1.34-1.8-2.72-3.12
		c-1.43-1.37-2.37-2.46-2.82-3.27c-0.45-0.81-0.67-1.63-0.67-2.48c0-1.7,0.61-3.12,1.82-4.26c1.21-1.14,2.78-1.71,4.7-1.71
		c0.71,0,1.51,0.09,2.41,0.28C94.76,414.13,95.49,414.22,96.11,414.22z"/>
	<path class="st1" d="M110.54,424.81c0,1.58-0.4,3.21-1.19,4.9c-0.79,1.69-1.83,3.16-3.1,4.41c-1.27,1.26-2.34,1.88-3.21,1.88
		c-0.47,0-0.88-0.14-1.23-0.41c-0.35-0.27-0.52-0.62-0.52-1.04c0-0.42,0.14-0.76,0.41-1.02c0.28-0.26,0.64-0.39,1.09-0.39
		c0.4,0,0.8,0.23,1.21,0.69c0.24,0.26,0.41,0.38,0.54,0.38c0.37,0,0.82-0.47,1.34-1.42c0.52-0.95,0.94-2.08,1.26-3.38
		c0.32-1.31,0.48-2.63,0.48-3.96c0-0.52-0.1-0.94-0.29-1.25c-0.2-0.31-0.46-0.47-0.78-0.47c-0.69,0-1.57,0.54-2.64,1.63
		c-1.08,1.09-2.07,2.48-2.98,4.17s-1.66,3.55-2.24,5.58c-0.04,0.14-0.21,0.27-0.5,0.37c-0.29,0.1-0.59,0.15-0.88,0.15
		c-0.26,0-0.5-0.04-0.72-0.13c-0.23-0.09-0.34-0.19-0.34-0.31l0.02-0.08l5.44-17.32c0.18-0.55,0.28-1.01,0.28-1.38
		c0-0.4-0.45-0.65-1.35-0.75c-0.18-0.02-0.28-0.15-0.28-0.38c0-0.25,0.07-0.37,0.21-0.37c0.66-0.12,1.43-0.35,2.34-0.69
		c0.9-0.34,1.58-0.65,2.03-0.95c0.2-0.13,0.38-0.2,0.52-0.2c0.2,0,0.31,0.11,0.31,0.34c0,0.25-0.05,0.51-0.15,0.8l-3.96,12.56
		c2.14-3.3,4.31-4.95,6.52-4.95c0.67,0,1.23,0.28,1.7,0.85C110.31,423.22,110.54,423.94,110.54,424.81z"/>
	<path class="st1" d="M125.25,422.07l-4.37,10.08c-0.31,0.7-0.46,1.2-0.46,1.51c0,0.25,0.1,0.37,0.31,0.37c0.3,0,0.96-0.62,2-1.86
		c0.47-0.56,0.74-0.85,0.8-0.85c0.12,0,0.24,0.06,0.34,0.18c0.1,0.12,0.15,0.23,0.15,0.35c0,0.14-0.37,0.64-1.12,1.48
		c-0.75,0.84-1.46,1.5-2.13,1.97c-0.67,0.47-1.24,0.71-1.7,0.71c-1.03,0-1.54-0.48-1.54-1.44c0-0.9,0.43-2.15,1.29-3.75
		c-0.75,1.39-1.75,2.61-2.99,3.64c-1.25,1.03-2.33,1.55-3.25,1.55c-0.52,0-0.94-0.2-1.24-0.6s-0.45-0.95-0.45-1.64
		c0-1.34,0.56-2.88,1.69-4.62c1.13-1.74,2.51-3.26,4.15-4.56s3.02-1.95,4.12-1.95c0.54,0,0.99,0.11,1.32,0.34l0.36-0.89
		c0.15-0.35,0.69-0.52,1.6-0.52c0.75,0,1.12,0.14,1.12,0.43L125.25,422.07z M121.44,424.5c0-0.62-0.23-0.92-0.68-0.92
		c-0.87,0-1.87,0.48-3,1.45c-1.13,0.97-2.11,2.16-2.96,3.57c-0.85,1.41-1.27,2.59-1.27,3.52c0,0.55,0.09,0.95,0.26,1.18
		c0.17,0.24,0.47,0.35,0.88,0.35c0.52,0,1.33-0.6,2.42-1.79c1.09-1.19,2.09-2.55,2.99-4.07
		C120.99,426.29,121.44,425.19,121.44,424.5z"/>
	<path class="st1" d="M138,423.52c0,0.51-0.14,0.92-0.43,1.23c-0.29,0.31-0.64,0.46-1.05,0.46c-0.37,0-0.72-0.19-1.06-0.57
		c-0.29-0.32-0.56-0.48-0.82-0.48c-0.64,0-1.59,1.04-2.85,3.12c-1.27,2.08-2.57,4.69-3.91,7.82c-0.14,0.35-0.6,0.52-1.38,0.52
		c-0.27,0-0.51-0.04-0.73-0.13c-0.22-0.09-0.33-0.19-0.33-0.31l0.02-0.08l3.23-9.47c0.27-0.8,0.4-1.3,0.4-1.51
		c0-0.25-0.1-0.37-0.31-0.37c-0.33,0-0.91,0.55-1.75,1.66c-0.41,0.53-0.66,0.8-0.74,0.8c-0.14,0-0.27-0.06-0.37-0.18
		c-0.1-0.12-0.15-0.23-0.15-0.35c0-0.14,0.34-0.61,1.01-1.39c0.68-0.78,1.33-1.4,1.96-1.84c0.63-0.45,1.17-0.67,1.64-0.67
		c1.06,0,1.6,0.46,1.6,1.38c0,0.51-0.16,1.24-0.49,2.18l-0.58,1.66c1.95-3.48,3.66-5.23,5.13-5.23c0.57,0,1.05,0.16,1.41,0.47
		C137.81,422.58,138,423,138,423.52z"/>
	<path class="st1" d="M147.28,424.1c0,1.4-0.7,2.67-2.09,3.79c-1.39,1.12-3.01,1.68-4.86,1.68c-0.06,0.62-0.09,1.17-0.09,1.66
		c0,0.9,0.12,1.55,0.38,1.94c0.25,0.39,0.67,0.58,1.25,0.58c1.31,0,2.48-0.75,3.49-2.26l0.09-0.05c0.08,0,0.17,0.05,0.26,0.16
		c0.09,0.11,0.14,0.21,0.14,0.3c0,0.21-0.31,0.73-0.94,1.54c-0.62,0.81-1.28,1.44-1.97,1.88c-0.69,0.45-1.37,0.67-2.02,0.67
		c-1,0-1.83-0.39-2.48-1.16c-0.65-0.77-0.97-1.69-0.97-2.74c0-1.48,0.39-3.02,1.16-4.63c0.77-1.61,1.76-2.96,2.97-4.04
		c1.2-1.09,2.32-1.63,3.34-1.63c0.74,0,1.31,0.21,1.72,0.62C147.07,422.83,147.28,423.39,147.28,424.1z M145.1,424.62
		c0-0.86-0.38-1.29-1.14-1.29c-0.74,0-1.43,0.5-2.08,1.51c-0.65,1-1.1,2.25-1.37,3.75c0.86,0,1.63-0.18,2.3-0.55
		c0.67-0.36,1.22-0.89,1.64-1.57C144.88,425.8,145.1,425.18,145.1,424.62z"/>
	<path class="st1" d="M164.71,423c0,0.21-0.07,0.4-0.21,0.58c-0.14,0.18-0.27,0.28-0.41,0.28l-3.1-0.09l-2.89,8.39
		c-0.21,0.66-0.31,1.12-0.31,1.38c0,0.33,0.11,0.49,0.34,0.49c0.48,0,1.45-0.65,2.89-1.95c0.54-0.5,0.85-0.75,0.92-0.75
		c0.14,0,0.27,0.06,0.38,0.18c0.11,0.12,0.17,0.23,0.17,0.35c0,0.16-0.45,0.65-1.35,1.47c-0.9,0.81-1.76,1.47-2.56,1.95
		c-0.8,0.49-1.45,0.73-1.93,0.73c-1.13,0-1.69-0.57-1.69-1.72c0-0.54,0.12-1.17,0.37-1.88l2.95-8.61l-2.37,0.06
		c-0.21,0-0.31-0.16-0.31-0.49c0-0.19,0.07-0.39,0.21-0.58c0.14-0.19,0.27-0.28,0.41-0.28h2.49l1.14-3.31
		c0.05-0.15,0.24-0.28,0.56-0.38c0.32-0.1,0.65-0.15,0.97-0.15c0.29,0,0.55,0.04,0.8,0.13c0.25,0.09,0.38,0.19,0.38,0.32l-0.02,0.08
		l-1.14,3.31h2.96C164.6,422.5,164.71,422.67,164.71,423z"/>
	<path class="st1" d="M177.96,424.81c0,1.58-0.4,3.21-1.19,4.9c-0.79,1.69-1.83,3.16-3.1,4.41c-1.27,1.26-2.34,1.88-3.21,1.88
		c-0.47,0-0.88-0.14-1.23-0.41c-0.35-0.27-0.52-0.62-0.52-1.04c0-0.42,0.14-0.76,0.41-1.02c0.28-0.26,0.64-0.39,1.09-0.39
		c0.4,0,0.8,0.23,1.21,0.69c0.24,0.26,0.41,0.38,0.54,0.38c0.37,0,0.82-0.47,1.34-1.42c0.52-0.95,0.94-2.08,1.26-3.38
		c0.32-1.31,0.48-2.63,0.48-3.96c0-0.52-0.1-0.94-0.29-1.25c-0.2-0.31-0.46-0.47-0.78-0.47c-0.69,0-1.57,0.54-2.64,1.63
		c-1.08,1.09-2.07,2.48-2.98,4.17s-1.66,3.55-2.24,5.58c-0.04,0.14-0.21,0.27-0.5,0.37c-0.29,0.1-0.59,0.15-0.88,0.15
		c-0.26,0-0.5-0.04-0.72-0.13c-0.23-0.09-0.34-0.19-0.34-0.31l0.02-0.08l5.44-17.32c0.18-0.55,0.28-1.01,0.28-1.38
		c0-0.4-0.45-0.65-1.35-0.75c-0.18-0.02-0.28-0.15-0.28-0.38c0-0.25,0.07-0.37,0.21-0.37c0.66-0.12,1.43-0.35,2.34-0.69
		c0.9-0.34,1.58-0.65,2.03-0.95c0.2-0.13,0.38-0.2,0.52-0.2c0.2,0,0.31,0.11,0.31,0.34c0,0.25-0.05,0.51-0.15,0.8l-3.96,12.56
		c2.14-3.3,4.31-4.95,6.52-4.95c0.67,0,1.23,0.28,1.7,0.85C177.73,423.22,177.96,423.94,177.96,424.81z"/>
	<path class="st1" d="M189.31,424.1c0,1.4-0.7,2.67-2.09,3.79c-1.39,1.12-3.01,1.68-4.86,1.68c-0.06,0.62-0.09,1.17-0.09,1.66
		c0,0.9,0.12,1.55,0.38,1.94c0.25,0.39,0.67,0.58,1.25,0.58c1.31,0,2.48-0.75,3.49-2.26l0.09-0.05c0.08,0,0.17,0.05,0.26,0.16
		c0.09,0.11,0.14,0.21,0.14,0.3c0,0.21-0.31,0.73-0.94,1.54c-0.62,0.81-1.28,1.44-1.97,1.88c-0.69,0.45-1.37,0.67-2.02,0.67
		c-1,0-1.83-0.39-2.48-1.16c-0.65-0.77-0.97-1.69-0.97-2.74c0-1.48,0.39-3.02,1.16-4.63c0.77-1.61,1.76-2.96,2.97-4.04
		c1.2-1.09,2.32-1.63,3.34-1.63c0.74,0,1.31,0.21,1.72,0.62C189.1,422.83,189.31,423.39,189.31,424.1z M187.12,424.62
		c0-0.86-0.38-1.29-1.14-1.29c-0.74,0-1.43,0.5-2.08,1.51c-0.65,1-1.1,2.25-1.37,3.75c0.86,0,1.63-0.18,2.3-0.55
		c0.67-0.36,1.22-0.89,1.64-1.57C186.91,425.8,187.12,425.18,187.12,424.62z"/>
	<path class="st1" d="M206.79,413.39c0,0.2-0.06,0.46-0.18,0.8l-6.7,17.32c-0.39,1.03-0.58,1.63-0.58,1.78
		c0,0.31,0.11,0.46,0.34,0.46c0.44,0,1.13-0.61,2.07-1.81c0.4-0.51,0.64-0.77,0.72-0.77c0.13,0,0.25,0.06,0.35,0.19
		c0.1,0.13,0.15,0.24,0.15,0.35c0,0.16-0.36,0.67-1.08,1.53c-0.72,0.86-1.42,1.53-2.1,2.02c-0.68,0.49-1.25,0.74-1.72,0.74
		c-1.09,0-1.63-0.54-1.63-1.63c0-0.51,0.14-1.17,0.43-1.97l5.6-14.62c0.23-0.59,0.34-1.06,0.34-1.38c0-0.4-0.43-0.65-1.29-0.75
		c-0.16-0.02-0.25-0.15-0.25-0.38c0-0.25,0.08-0.37,0.25-0.37c0.66-0.12,1.45-0.35,2.37-0.69c0.92-0.34,1.62-0.65,2.09-0.94
		c0.24-0.14,0.41-0.21,0.52-0.21C206.69,413.05,206.79,413.16,206.79,413.39z"/>
	<path class="st1" d="M216.33,426.53c0,1.47-0.38,2.94-1.15,4.43c-0.77,1.49-1.76,2.7-2.98,3.64c-1.22,0.94-2.42,1.41-3.61,1.41
		c-1,0-1.87-0.45-2.58-1.35c-0.72-0.9-1.08-2.02-1.08-3.36c0-1.46,0.38-2.94,1.14-4.43c0.76-1.49,1.75-2.7,2.97-3.65
		c1.22-0.95,2.42-1.42,3.6-1.42c1,0,1.87,0.45,2.6,1.35C215.96,424.05,216.33,425.18,216.33,426.53z M213.81,424.53
		c0-0.67-0.09-1.12-0.25-1.36c-0.17-0.24-0.47-0.36-0.91-0.36c-0.69,0-1.46,0.56-2.31,1.69c-0.86,1.13-1.56,2.5-2.1,4.11
		c-0.54,1.61-0.81,3.16-0.81,4.65c0,0.68,0.09,1.14,0.26,1.38s0.49,0.37,0.94,0.37c0.68,0,1.44-0.56,2.29-1.68
		c0.85-1.12,1.55-2.49,2.09-4.11C213.53,427.6,213.81,426.04,213.81,424.53z"/>
	<path class="st1" d="M233.31,424.23c0,1.57-0.51,3.27-1.54,5.1c-1.02,1.84-2.31,3.4-3.86,4.71c-1.55,1.31-2.91,1.96-4.09,1.96
		c-0.93,0-1.67-0.31-2.21-0.92c-0.54-0.62-0.81-1.43-0.81-2.46c0-1.23,0.46-2.7,1.39-4.42c0.93-1.72,1.96-3.08,3.1-4.1
		c-0.37,0.16-0.76,0.25-1.17,0.25c-0.31,0-0.74-0.08-1.29-0.25c-0.5-0.16-0.88-0.25-1.14-0.25c-0.66,0-1.17,0.12-1.54,0.35
		c-0.37,0.24-0.55,0.55-0.55,0.94c0,0.18,0.1,0.41,0.29,0.68c0.28,0.37,0.41,0.73,0.41,1.08c0,0.7-0.35,1.05-1.05,1.05
		c-0.37,0-0.68-0.15-0.94-0.45c-0.26-0.3-0.38-0.7-0.38-1.21c0-0.88,0.49-1.85,1.48-2.9c0.98-1.06,1.88-1.58,2.7-1.58
		c0.44,0,0.99,0.09,1.66,0.28c0.53,0.14,0.94,0.21,1.23,0.21c0.36,0,0.78-0.06,1.26-0.18c0.19-0.06,0.33-0.09,0.4-0.09
		c0.13,0,0.25,0.06,0.36,0.17c0.11,0.11,0.16,0.23,0.16,0.35c0,0.24-0.3,0.75-0.91,1.55c-1.13,1.47-1.9,2.76-2.31,3.89
		c-0.42,1.13-0.62,2.3-0.62,3.51c0,0.59,0.15,1.08,0.45,1.44c0.3,0.37,0.7,0.55,1.22,0.55c1.09,0,2.08-0.33,2.97-0.99
		c0.89-0.66,1.62-1.59,2.17-2.79c0.55-1.2,0.83-2.38,0.83-3.54c0-0.71-0.15-1.36-0.46-1.95c-0.18-0.36-0.28-0.67-0.28-0.94
		c0-0.43,0.14-0.78,0.41-1.06c0.27-0.28,0.64-0.41,1.1-0.41c0.47,0,0.84,0.22,1.12,0.66C233.18,422.9,233.31,423.49,233.31,424.23z"
		/>
	<path class="st1" d="M244.21,424.1c0,1.4-0.7,2.67-2.09,3.79c-1.39,1.12-3.01,1.68-4.86,1.68c-0.06,0.62-0.09,1.17-0.09,1.66
		c0,0.9,0.12,1.55,0.38,1.94s0.67,0.58,1.25,0.58c1.31,0,2.48-0.75,3.49-2.26l0.09-0.05c0.08,0,0.17,0.05,0.26,0.16
		c0.09,0.11,0.14,0.21,0.14,0.3c0,0.21-0.31,0.73-0.94,1.54c-0.62,0.81-1.28,1.44-1.97,1.88c-0.69,0.45-1.37,0.67-2.02,0.67
		c-1,0-1.83-0.39-2.48-1.16c-0.65-0.77-0.97-1.69-0.97-2.74c0-1.48,0.39-3.02,1.16-4.63c0.77-1.61,1.76-2.96,2.97-4.04
		c1.2-1.09,2.32-1.63,3.34-1.63c0.74,0,1.31,0.21,1.72,0.62C244.01,422.83,244.21,423.39,244.21,424.1z M242.03,424.62
		c0-0.86-0.38-1.29-1.14-1.29c-0.74,0-1.43,0.5-2.08,1.51c-0.65,1-1.1,2.25-1.37,3.75c0.86,0,1.63-0.18,2.3-0.55
		c0.67-0.36,1.22-0.89,1.64-1.57C241.82,425.8,242.03,425.18,242.03,424.62z"/>
</g>
</svg>
